SplineFontDB: 3.2
FontName: peteyscript_med
FullName: peteyscript_med
FamilyName: peteyscript_med
Weight: Regular
Copyright: Copyright (c) 2025, phine
UComments: "2025-3-8: Created with FontForge (http://fontforge.org)"
Version: 001.000
ItalicAngle: 0
UnderlinePosition: -0.2
UnderlineWidth: 0.1
Ascent: 2
Descent: 0
InvalidEm: 0
LayerCount: 2
Layer: 0 0 "Back" 1
Layer: 1 0 "Fore" 0
XUID: [1021 4 447193481 13186]
StyleMap: 0x0000
FSType: 0
OS2Version: 0
OS2_WeightWidthSlopeOnly: 0
OS2_UseTypoMetrics: 1
CreationTime: 1741437236
ModificationTime: 1741456636
OS2TypoAscent: 0
OS2TypoAOffset: 1
OS2TypoDescent: 0
OS2TypoDOffset: 1
OS2TypoLinegap: 0
OS2WinAscent: 0
OS2WinAOffset: 1
OS2WinDescent: 0
OS2WinDOffset: 1
HheadAscent: 0
HheadAOffset: 1
HheadDescent: 0
HheadDOffset: 1
OS2Vendor: 'wofl'
MarkAttachClasses: 1
DEI: 91125
Encoding: ISO8859-1
UnicodeInterp: none
NameList: AGL For New Fonts
DisplaySize: -48
AntiAlias: 1
FitToEm: 0
WinInfo: 0 54 20
BeginPrivate: 0
EndPrivate
BeginChars: 256 131

StartChar: uni0000
Encoding: 0 0 0
Width: 2
Flags: HW
LayerCount: 2
Back
Fore
SplineSet
0 0 m 1
 0 0 l 1
EndSplineSet
EndChar

StartChar: exclam
Encoding: 33 33 1
Width: 2
Flags: HW
LayerCount: 2
Back
Fore
SplineSet
0 0 m 1
 0 0 l 1
EndSplineSet
EndChar

StartChar: quotedbl
Encoding: 34 34 2
Width: 2
Flags: HW
LayerCount: 2
Back
Fore
SplineSet
0 0 m 1
 0 0 l 1
EndSplineSet
EndChar

StartChar: parenleft
Encoding: 40 40 3
Width: 2
Flags: HW
LayerCount: 2
Back
Fore
SplineSet
0 0 m 0
 1 0 0 0 0 0 c 0
0 0 m 1
 0 0 l 1
EndSplineSet
EndChar

StartChar: parenright
Encoding: 41 41 4
Width: 2
Flags: HW
LayerCount: 2
Back
Fore
SplineSet
0 0 m 2
 0 0 l 2
0 0 m 0
 1 0 0 0 0 0 c 0
0 0 m 0
 0 0 l 0
0 0 m 0
 0 1 0 0 0 0 c 0
0 0 m 2
 0 0 0 1 0 0 c 2
0 0 m 0
 0 0 0 -1 0 0 c 0
EndSplineSet
EndChar

StartChar: comma
Encoding: 44 44 5
Width: 2
Flags: HW
LayerCount: 2
Back
Fore
SplineSet
0 0 m 0
 1 0 0 0 0 0 c 0
0 0 m 0
 0 0 1 0 0 0 c 0
EndSplineSet
EndChar

StartChar: period
Encoding: 46 46 6
Width: 2
Flags: W
HStem: -19.04 20G<1.03 1.13> -19.04 20G<1.03 1.13> -18.7312 19.6913G<0.648605 0.722352 1.03 1.13> -18.7312 19.6913G<0.648605 0.722352 1.03 1.13> 0.12 21.85G<1.03372 1.105 1.73147 1.76> 0.12 21.85G<1.03372 1.105 1.73147 1.76> 0.97 21G<1.03372 1.07516 1.07516 1.09846 1.73147 1.76> 0.97 21G<1.03372 1.07516 1.07516 1.09846 1.73147 1.76>
CounterMasks: 1 83
LayerCount: 2
Back
Fore
SplineSet
1.13 1.18 m 2x00
 1.12 1.19 1.1 1.2 1.08 1.2 c 2
 1.07621029837 1.19992301418 l 2
 1.05740509188 1.19992301418 1.03756505093 1.19066490621 1.02166729958 1.17962876333 c 0
 1.00369124784 1.16541091988 0.991857443495 1.14538200751 0.990203979846 1.12492235036 c 0
 0.990203979846 1.1052169475 1.00234929748 1.08375975615 1.0173508063 1.06734373904 c 0
 1.03391741748 1.052211297 1.05561646575 1.04160090936 1.0754682835 1.04017016694 c 0
 1.10378614331 1.04017016694 1.12533407204 1.0578794593 1.13817381345 1.07911791612 c 0
 1.14569543799 1.09355711693 1.14999971047 1.11106145586 1.15 1.13 c 0
 1.15 1.13279640787 1.14989176473 1.13559281575 1.14978458358 1.13836198885 c 0
 1.14967947001 1.14107774316 1.14957537029 1.14376730331 1.14957537029 1.14640498047 c 0
 1.14957537029 1.15787930092 1.14181326874 1.16866064712 1.13394671948 1.17773699896 c 2
 1.13 1.18 l 2x00
0.933395046837 1.08953265716 m 0
 0.933395046837 1.09405874607 0.932568717423 1.09864721874 0.931733397538 1.10328561402 c 0
 0.930879701143 1.10802605107 0.930016614357 1.11281863143 0.930016614357 1.11765005334 c 0
 0.930016614357 1.15935071277 0.943964987267 1.20116928362 0.98 1.23 c 0
 1.00200444248 1.2483370354 1.02669885989 1.25994913345 1.05211267375 1.26483570077 c 0
 1.05675984163 1.26483570077 1.0614070095 1.26581414568 1.06605448584 1.26679265553 c 0
 1.07070257917 1.26777129528 1.07535098104 1.26875 1.08 1.26875 c 0
 1.08464701306 1.26875 1.08929402613 1.26777163097 1.09394131245 1.26679320441 c 0
 1.09858914534 1.26581466277 1.10323725155 1.26483606359 1.10788590444 1.26483606359 c 0
 1.13329785004 1.25994909423 1.15799287938 1.24833688697 1.18 1.23 c 0
 1.25012696052 1.16688573553 1.23665148098 1.06442914633 1.17406243184 1.0088455197 c 0
 1.14959173145 0.984916957883 1.11692560419 0.970002139366 1.08 0.97 c 2
 1.07515652924 0.970081429693 l 1
 1.07 0.97 l 2x02
 0.997443461952 0.97 0.946692343131 1.02607107801 0.933395046837 1.08953265716 c 0
0.400405947639 1.02057552593 m 0
 0.400405947639 1.02590581098 0.400017173355 1.02982674472 0.400000548785 1.02999440971 c 0
 0.400000185573 1.02999807283 0.4 1.02999994441 0.4 1.03 c 0
 0.4 1.1 0.42 1.12 0.53 1.16 c 0
 0.532985735503 1.16 0.536367676184 1.1613267021 0.540076689962 1.16278171176 c 0
 0.544579923847 1.16454828617 0.549565301924 1.166504001 0.5549090934 1.166504001 c 0
 0.591891131753 1.17626272127 0.627209161653 1.17999980854 0.67 1.18 c 2
 0.68 1.18 l 2
 0.764704522256 1.18 0.829547851182 1.1576561575 0.873294506504 1.11297001207 c 0
 0.91776381603 1.06922893457 0.939998470793 1.00449576629 0.94 0.92 c 2
 0.939976418631 0.915156189117 l 1
 0.94 0.91 l 2
 0.94 0.8 0.91 0.75 0.73 0.56 c 0
 0.71 0.54 0.69 0.52 0.65 0.48 c 0
 0.61 0.44 0.59 0.42 0.57 0.4 c 1
 0.65 0.4 0.72 0.4 0.8 0.4 c 0
 0.88 0.4 0.95 0.4 1.03 0.4 c 1
 1.03 0.49 1.03 0.59 1.03 0.68 c 0
 1.03 0.77 1.03 0.87 1.03 0.96 c 1
 1.05 0.96 1.06 0.96 1.08 0.96 c 0
 1.1 0.96 1.11 0.96 1.13 0.96 c 1
 1.13 0.68 l 1
 1.13 0.4 l 1
 1.36 0.4 l 1
 1.59 0.4 l 1
 1.51 0.48 1.47 0.52 1.43 0.56 c 0
 1.34 0.65 1.26 0.75 1.24 0.78 c 0
 1.23155547394 0.796889052119 1.22533938602 0.817343605256 1.22116309139 0.839667091972 c 0
 1.21372133967 0.862724831482 1.2100004638 0.889503446853 1.21 0.92 c 0
 1.21 0.963045594913 1.21756295201 1.00230971382 1.23036308912 1.03546712967 c 0
 1.23569970071 1.05316555107 1.24229315978 1.06843900129 1.25 1.08 c 0
 1.25682031014 1.08937792645 1.2642947604 1.09810171278 1.27235902329 1.10617178082 c 0
 1.30601073986 1.1448531079 1.35849592192 1.16833441766 1.41899273661 1.17661621575 c 0
 1.49001147119 1.18772052902 1.57111465472 1.17689489456 1.65027469231 1.14414035143 c 0
 1.6696680467 1.13712314871 1.68957635084 1.12907604649 1.71 1.12 c 0
 1.73385605554 1.10807197223 1.74704127259 1.09970089062 1.75379889487 1.08428183778 c 0
 1.75884633623 1.07382891614 1.76 1.06037296365 1.76 1.04 c 0
 1.76 1.02 1.76 0.99 1.76 0.97 c 1x02
 1.73147114317 0.989019237886 l 2
 1.72464101615 0.992679491924 1.71732050808 0.996339745962 1.71 1 c 0
 1.69 1.01 1.68 1.02 1.67 1.03 c 0
 1.61 1.06 1.55 1.08 1.5 1.08 c 0
 1.39440060335 1.08 1.32566478545 1.01548873718 1.32033427278 0.913007831309 c 0
 1.32033427278 0.87289983993 1.33063451212 0.839541085876 1.35749017368 0.797074444076 c 0
 1.3890881753 0.751508763396 1.44468983688 0.690624671895 1.53870558318 0.591368122869 c 0
 1.54558932125 0.584433327256 1.55268507331 0.57731331392 1.56 0.57 c 0
 1.5754231936 0.5545768064 1.58975410449 0.540003166017 1.60304701227 0.526253788914 c 0
 1.6798417534 0.447478203207 1.72088944975 0.39989236259 1.7387744128 0.36671984326 c 0
 1.74650453812 0.354071375403 1.7499999273 0.345287970204 1.75 0.34 c 2
 1.74934902709 0.338085789271 l 1
 1.75 0.33 l 2
 1.75 0.3 1.74 0.3 1.44 0.3 c 2
 1.29 0.3 l 1
 1.13 0.3 l 1
 1.13 0.21 l 2
 1.13 0.12 1.13 0.12 1.08 0.12 c 0x08
 1.03 0.12 1.03 0.12 1.03 0.21 c 2
 1.03 0.3 l 1
 0.87 0.3 l 2
 0.79 0.3 0.76 0.3 0.72 0.3 c 2
 0.7 0.3 l 1
 0.69 0.3 l 2
 0.68 0.3 0.67 0.3 0.66 0.3 c 0
 0.42 0.3 0.38 0.31 0.38 0.34 c 0
 0.38 0.35 0.39 0.37 0.44 0.42 c 0
 0.440179548081 0.420179548081 0.440359096163 0.420359391448 0.440538644183 0.420539234753 c 0
 0.444969198955 0.424977076026 0.449399716283 0.429414879855 0.453829272195 0.429414879855 c 0
 0.481205615083 0.46077354963 0.520226880398 0.500224930753 0.57 0.55 c 2
 0.579108205149 0.554554102574 l 2
 0.626895108572 0.605277306305 0.667545029222 0.649008848785 0.701289669789 0.68620766567 c 0
 0.755327015836 0.749291251867 0.797725442033 0.80159186398 0.81 0.82 c 0
 0.820815624094 0.841631248188 0.827244583518 0.865455828712 0.829879834376 0.889498542288 c 0
 0.829879834376 0.892859983175 0.829909607617 0.896251222166 0.829939514042 0.899657631036 c 0
 0.829969689227 0.903094652318 0.83 0.906547117359 0.83 0.91 c 0
 0.83 0.97 0.81 1.02 0.78 1.05 c 0
 0.75 1.07 0.72 1.08 0.67 1.08 c 0
 0.58 1.08 0.48 1.04 0.42 0.99 c 0
 0.4 0.97 0.4 0.97 0.4 1 c 0
 0.4 1.00376896156 0.40010807732 1.00741516325 0.400212700642 1.01094483749 c 0
 0.400310843832 1.0142558917 0.400405947639 1.01746440631 0.400405947639 1.02057552593 c 0
EndSplineSet
Validated: 33
EndChar

StartChar: zero
Encoding: 48 48 7
Width: 2
Flags: W
HStem: -18.88 20G<0.695 0.945> -18.88 20G<0.695 0.945> -18.88 20G<0.695 0.945> 0.34 21G<0.4 0.427969 1.20233 1.23755> 0.34 21G<0.4 0.427969 1.20233 1.23755> 0.34 21G<0.4 0.427969 1.20233 1.23755> 0.34 21G<0.4 0.427969 1.20233 1.23755>
LayerCount: 2
Back
Fore
SplineSet
0.65 1.06 m 0x10
 0.56 1.06 0.54 1.07 0.54 1.09 c 0
 0.54 1.12 0.57 1.12 0.82 1.12 c 0
 1.07 1.12 1.11 1.12 1.11 1.09 c 0
 1.11 1.07 1.09 1.06 1 1.06 c 0
 0.96 1.06 0.93 1.06 0.89 1.06 c 1
 0.89 0.83 l 2
 0.89 0.7 0.9 0.6 0.9 0.6 c 1
 0.9 0.6 0.906016066076 0.606015514759 0.915357997945 0.606015514759 c 2
 0.92 0.61 l 2
 0.93 0.62 0.93 0.62 0.94 0.62 c 0
 0.943136239719 0.62 0.94621100444 0.622214455776 0.949224512165 0.62438479406 c 0
 0.952120292113 0.626470344407 0.954959507791 0.628515156978 0.957742352633 0.628515156978 c 2
 0.96 0.63 l 2
 0.962272726661 0.630909090664 0.964483469885 0.631797520183 0.966637864527 0.63266341027 c 0
 0.96669410502 0.632686014339 0.966750307113 0.632708603048 0.966806470907 0.632731176364 c 0
 1.0119309068 0.650867560651 1.03233205621 0.659067177515 1.08 0.64 c 0
 1.11281935638 0.626872257448 1.14563871276 0.605127633669 1.17492210845 0.578300074465 c 0
 1.23631123802 0.526566426058 1.2800009545 0.456099257403 1.28 0.39 c 2
 1.27993111164 0.384531335333 l 1
 1.28 0.38 l 2
 1.28 0.376079194182 1.27897559477 0.372500004326 1.27804256417 0.36924007012 c 0
 1.27726235104 0.36651406792 1.27654603195 0.364011306396 1.27654603195 0.3617187109 c 0
 1.27049575815 0.344931282772 1.25510924255 0.340000227916 1.22 0.34 c 0x10
 1.18465762549 0.34 1.1742969197 0.356554223887 1.17125803106 0.361409727364 c 0
 1.17073577277 0.362244186023 1.17042976641 0.362733119683 1.17025037262 0.362733119683 c 2
 1.17 0.37 l 2
 1.17 0.373687270974 1.16913315062 0.377676674554 1.1682127967 0.38191231606 c 0
 1.16717135488 0.386705226832 1.16606140354 0.391813431267 1.16606140354 0.397155943189 c 0
 1.1600886203 0.413723609726 1.14816937659 0.436237736741 1.13625 0.45875 c 0
 1.130625 0.469375 1.125 0.48 1.12 0.49 c 0
 1.09704526586 0.524432101211 1.07162059507 0.546514519153 1.04608617634 0.556718880435 c 0
 1.04207263229 0.556718880435 1.03796298311 0.557495724882 1.03374304707 0.558293416787 c 0
 1.02929037217 0.559135103175 1.02471490982 0.56 1.02 0.56 c 0
 0.972705806504 0.56 0.931624781726 0.522720987693 0.901653039358 0.457958351708 c 0
 0.897304610205 0.446252238725 0.893400256699 0.433595199483 0.89 0.42 c 0
 0.884712301475 0.404136904426 0.880123596843 0.39106978442 0.875492258381 0.380429536216 c 0
 0.866409759039 0.347272991879 0.854116328995 0.339999496871 0.82 0.34 c 0
 0.78 0.34 0.77 0.35 0.76 0.4 c 0
 0.73 0.5 0.69 0.56 0.63 0.56 c 0
 0.609908087998 0.56 0.589816175995 0.554953938401 0.570992655242 0.543592910194 c 0
 0.553054624808 0.531443096592 0.535751339813 0.513630219553 0.52 0.49 c 0
 0.503261279089 0.456522558178 0.486522558178 0.416040496913 0.481508774718 0.3920029656 c 0
 0.481508774718 0.387750201614 0.481089679157 0.383673375411 0.480693249051 0.379817031427 c 0
 0.480337498264 0.376356402714 0.48 0.373073328652 0.48 0.37 c 2
 0.479761616301 0.362968750259 l 2
 0.479761616301 0.338579694142 0.474222064576 0.338765435329 0.449174410778 0.339605283239 c 0
 0.443746449586 0.339787282795 0.437402364135 0.34 0.43 0.34 c 2x02
 0.42796875479 0.340005410023 l 1
 0.42 0.34 l 2
 0.38 0.34 0.37 0.35 0.37 0.38 c 2
 0.370063111129 0.384843670299 l 1
 0.37 0.39 l 2
 0.37 0.48 0.47 0.61 0.57 0.64 c 0
 0.617667943787 0.659067177515 0.638069093196 0.650867560651 0.683193529093 0.632731176364 c 0
 0.685401149408 0.631843891026 0.687667943787 0.630932822485 0.69 0.63 c 0
 0.72 0.61 0.75 0.6 0.75 0.6 c 1
 0.75 0.6 0.76 0.7 0.76 0.83 c 2
 0.76 1.06 l 1
 0.72 1.06 0.69 1.06 0.65 1.06 c 0x10
EndSplineSet
Validated: 33
EndChar

StartChar: one
Encoding: 49 49 8
Width: 2
Flags: W
HStem: 0.11 21.96G<0.865 0.914753 1.015 1.03> 1.07 21G<1.015 1.03> 1.07 21G<1.015 1.03>
LayerCount: 2
Back
Fore
SplineSet
0.79258642031 0.634671321425 m 0x00
 0.878453491313 0.605505081475 0.973812318667 0.612118574495 1.06 0.66 c 0
 1.15 0.71 1.24 0.83 1.26 0.92 c 2
 1.26069808793 0.924886615518 l 2
 1.26069808793 0.935738846265 1.26302356595 0.946591077012 1.26534904397 0.957443307759 c 0
 1.26767452198 0.968295538506 1.27 0.979147769253 1.27 0.99 c 1
 0.9 0.99 l 1
 0.86 0.99 l 2
 0.608352664204 0.99 0.537637847303 0.98483049946 0.536350765858 0.937324511027 c 2
 0.54 0.93 l 1
 0.54 0.92 l 1
 0.54 0.913254387037 l 1
 0.54 0.913254387037 0.543202225849 0.90649220975 0.543202225849 0.902893928366 c 0
 0.601852016118 0.774630981272 0.691173440934 0.677791106296 0.79258642031 0.634671321425 c 0x00
0.73 1.11 m 0
 0.73 1.14 0.72 1.17 0.7 1.19 c 0
 0.680514056188 1.20948594381 0.658703406215 1.21889816093 0.637372261538 1.21996196732 c 0
 0.578547223189 1.21996196732 0.530000018149 1.15897591086 0.53 1.09 c 2
 0.53 1.05 l 1
 0.9 1.05 l 2
 1.02 1.05 1.15 1.05 1.27 1.05 c 1
 1.27 1.09 l 2
 1.27 1.12 1.25 1.16 1.23 1.18 c 0
 1.19730007335 1.21923991198 1.14749158344 1.22426269747 1.11134446277 1.20066264807 c 0
 1.09144043087 1.18422954983 1.07575377272 1.15877031208 1.07 1.13 c 0
 1.06 1.1 1.04 1.07 1.02 1.07 c 0x40
 1.01 1.07 1.01 1.08 1.01 1.1 c 0
 1.01 1.16 0.95 1.22 0.9 1.22 c 0
 0.85 1.22 0.8 1.18 0.79 1.12 c 0
 0.79 1.11368340157 0.786945342343 1.10858595195 0.784509794382 1.10452163954 c 0
 0.78289513202 1.1018271772 0.781552575381 1.09958679035 0.781552575381 1.09774627953 c 0
 0.773752140044 1.08051862037 0.764506640881 1.06999689014 0.75 1.07 c 0x20
 0.74 1.07 0.73 1.08 0.73 1.11 c 0
0.400473025836 1.11438081313 m 0
 0.414947907565 1.18048404832 0.447195689 1.23867533705 0.5 1.28 c 0
 0.51743221023 1.29245157874 0.536104754963 1.30180232121 0.555247487609 1.30805166222 c 0
 0.572829019681 1.3156832881 0.591413480068 1.3200005652 0.61 1.32 c 0
 0.617170044401 1.32 0.624340088803 1.31826708619 0.631509985536 1.31653420807 c 0
 0.638679586946 1.31480140132 0.6458490407 1.31306863026 0.653018199151 1.31306863026 c 0
 0.67739812067 1.30742876709 0.700314505913 1.29640605411 0.72 1.28 c 2
 0.724112094151 1.27671799039 l 2
 0.732693546463 1.27087053645 0.741274998775 1.26458757004 0.749855632706 1.25796903284 c 0
 0.763685538825 1.25028630977 0.768647385237 1.25582813523 0.782548760166 1.27135477088 c 0
 0.787163617314 1.27650904827 0.792763597357 1.28276359736 0.8 1.29 c 0
 0.84 1.34 0.93 1.34 0.99 1.29 c 0
 0.996017247309 1.28518620215 1.00131034932 1.28080689149 1.00603617103 1.27689692689 c 0
 1.02488309789 1.26130369863 1.03470758229 1.25317529505 1.04545971845 1.25472278061 c 2
 1.05 1.26 l 2
 1.05914408261 1.26685806196 1.06881075427 1.27319353488 1.07888157833 1.2788861345 c 2
 1.08 1.28 l 2
 1.2 1.37 1.37 1.28 1.4 1.1 c 0
 1.41957442794 0.977659825395 1.39125407724 0.855319650791 1.33027332011 0.752901749409 c 0
 1.2666071499 0.641065652658 1.16371558068 0.551238331872 1.04 0.51 c 0
 0.99 0.49 0.98 0.48 0.97 0.41 c 2
 0.97 0.37 l 1
 0.97 0.33 l 1
 1 0.33 1.02 0.33 1.05 0.33 c 0
 1.11 0.33 1.13 0.32 1.13 0.3 c 0
 1.13 0.28 1.11 0.27 1.05 0.27 c 2
 0.97 0.27 l 1
 0.97 0.19 l 2
 0.97 0.140855253187 0.960219779639 0.123108186185 0.957276518136 0.117767380234 c 0
 0.956755202926 0.116821408096 0.956448377227 0.116264645974 0.956448377227 0.115991564813 c 0
 0.946574257256 0.110000436605 0.929505522711 0.11 0.9 0.11 c 0x80
 0.83 0.11 0.83 0.11 0.83 0.19 c 2
 0.83 0.27 l 1
 0.75 0.27 l 2
 0.69 0.27 0.67 0.28 0.67 0.3 c 0
 0.67 0.32 0.69 0.33 0.75 0.33 c 2
 0.83 0.33 l 1
 0.83 0.37 l 1
 0.83 0.42 l 2
 0.82 0.49 0.81 0.5 0.77 0.51 c 0
 0.729299867983 0.519690507623 0.690102230974 0.536517866534 0.653354466052 0.55902773684 c 0
 0.546270931587 0.619956602607 0.465559913754 0.729631826637 0.423649148302 0.848073377102 c 0
 0.402032345318 0.906912688185 0.389999986965 0.968810234594 0.39 1.03 c 0
 0.39 1.05991702759 0.393580114158 1.08804399809 0.400473025836 1.11438081313 c 0
EndSplineSet
Validated: 33
EndChar

StartChar: two
Encoding: 50 50 9
Width: 2
Flags: W
HStem: -0.04 21G<0.46 0.9 1.56 2> -0.04 21G<0.46 0.9 1.56 2>
LayerCount: 2
Back
Fore
SplineSet
1.45940949467 1.26183230809 m 2x00
 1.45 1.27 l 2
 1.37104431354 1.32921676484 1.3407917554 1.33973040137 1.23426718537 1.3399947939 c 2
 1.22515625 1.33999976918 l 2
 1.16628561807 1.33999976918 1.13201658737 1.31820773957 1.10086401388 1.29839749719 c 0
 1.07490520233 1.28189002153 1.05111031935 1.26675861034 1.01704822661 1.26675861034 c 0
 0.946374136555 1.19283501406 0.90303418903 1.1191527451 0.88702966988 1.04975285058 c 0
 0.882752241716 1.02528240636 0.885675124724 1.00066503325 0.888593129508 0.97608874596 c 0
 0.890448130978 0.960465382595 0.892301161032 0.94485862307 0.892301161032 0.929316769552 c 0
 0.89726452908 0.915184386637 0.903345797057 0.900502907011 0.909806640162 0.884903320081 c 0
 0.91313708499 0.87686291501 0.916568542495 0.868578643763 0.92 0.86 c 0
 1.0268516941 0.646296611804 1.26185658192 0.601522433515 1.4205029968 0.716785738381 c 0
 1.47047452385 0.756560584657 1.51105532941 0.812462213601 1.54 0.88 c 0
 1.54468871126 0.891721778146 1.54937742252 0.902344355629 1.55380844205 0.912383115901 c 0
 1.55809238402 0.922088662476 1.56213545732 0.931248505571 1.56570493159 0.940327501859 c 2
 1.56570493159 0.940327501859 1.57274287401 1.02906345233 1.57274287401 1.0709821622 c 0
 1.55748675785 1.13642780529 1.51854628397 1.20353475748 1.45940949467 1.26183230809 c 2x00
0.780853505539 0.827551173382 m 0
 0.755175595885 0.886809430481 0.73999974365 0.948404584988 0.74 1.01 c 0
 0.74 1.23 0.89 1.42 1.11 1.47 c 0
 1.14864358897 1.47966089724 1.17795388438 1.47999956704 1.21596637462 1.47999956704 c 0
 1.36664454916 1.48517105136 1.52750272756 1.40811927059 1.63 1.28 c 0
 1.65148622544 1.252374853 1.66731949721 1.23134481863 1.67894539045 1.21083569239 c 0
 1.69411356846 1.1858594778 1.70227439106 1.15978922001 1.70636720612 1.11792663898 c 0
 1.70636720612 1.10576141214 1.70706359018 1.092341083 1.70784656472 1.07725202999 c 0
 1.70885190348 1.05787769644 1.71 1.03575221425 1.71 1.01 c 0
 1.71 0.86 1.7 0.82 1.63 0.72 c 2
 1.56554551989 0.631375089842 l 2
 1.5596214474 0.621935753645 1.5548107237 0.614810723698 1.55 0.61 c 0
 1.55 0.607969837242 1.55187035224 0.605893879363 1.55378475611 0.603769027313 c 0
 1.55579151346 0.601541669474 1.55784667518 0.599260586232 1.55784667518 0.596922208041 c 2
 1.7 0.36 l 2
 1.8050082553 0.194987027384 1.84813178076 0.136865860863 1.88844710446 0.118120809721 c 0
 1.90375676694 0.111873976732 1.92000412718 0.11 1.94 0.11 c 2
 1.9465625879 0.109932084539 l 2
 1.99189131912 0.109932084539 1.99999595938 0.102995126751 1.9999999982 0.0400473221465 c 2
 2 -0.04 l 1
 1.78 -0.04 l 1
 1.56 -0.04 l 1x80
 1.56 -0.01 1.56 0.01 1.56 0.04 c 0
 1.56 0.0936103890663 1.57173091353 0.106162580763 1.60866880995 0.109105581565 c 0
 1.6117070191 0.109105581565 1.61490255179 0.109307168482 1.61825948804 0.109518937377 c 0
 1.6219735755 0.109753236792 1.62588523758 0.11 1.63 0.11 c 0
 1.67965569635 0.11 1.59917784986 0.25383181052 1.56995219282 0.303426338597 c 0
 1.56995219282 0.306029740191 1.56757128612 0.308672601935 1.56515399573 0.311355850406 c 0
 1.5626616795 0.314122379313 1.56013068605 0.316931840831 1.56013068605 0.31978525052 c 2
 1.56 0.32 l 2
 1.54 0.35 1.52 0.38 1.48 0.45 c 0
 1.45674234614 0.481010205144 1.44550510257 0.506010205144 1.43696938457 0.525 c 0
 1.43449489743 0.530505102572 1.43224744871 0.535505102572 1.43 0.54 c 2
 1.23 0.54 l 1
 1.03 0.54 l 1
 0.915825798297 0.346782120195 l 2
 0.910741626806 0.337369525238 0.905789841746 0.328684762619 0.9 0.32 c 2
 0.83 0.11 l 1
 0.834205463432 0.11 0.838198695791 0.109742516654 0.841985986825 0.10949831239 c 0
 0.845401795374 0.109278061291 0.848650081406 0.109068612032 0.851735459454 0.109068612032 c 0
 0.888352966137 0.109068612032 0.899997664011 0.0934129690736 0.9 0.04 c 0
 0.9 0.01 0.9 -0.01 0.9 -0.04 c 1x40
 0.83 -0.04 0.75 -0.04 0.68 -0.04 c 0
 0.61 -0.04 0.53 -0.04 0.46 -0.04 c 1x80
 0.46 0.04 l 2
 0.46 0.11 0.47 0.11 0.52 0.11 c 0
 0.530527226657 0.11 0.540188652525 0.112249674434 0.549326156631 0.114377353067 c 0
 0.557523616781 0.116286141354 0.565299409659 0.118096743917 0.572900382147 0.118096743917 c 0
 0.615574768278 0.136814959122 0.662447767721 0.194914106546 0.76 0.36 c 0
 0.768640335809 0.374400559682 0.777280671619 0.388801119364 0.786075820619 0.403132221577 c 0
 0.791681191349 0.412474506125 0.797286562078 0.421816790674 0.802789555168 0.43120221275 c 0
 0.834074786658 0.483344265234 0.865360018149 0.535486317719 0.896592814088 0.587654690147 c 0
 0.900853961656 0.595391774803 0.905130591601 0.602695887401 0.91 0.61 c 0
 0.903819660113 0.616180339887 0.897639320225 0.626180339887 0.889098300563 0.64 c 0
 0.883819660113 0.648541019662 0.877639320225 0.658541019662 0.87 0.67 c 0
 0.860366244897 0.684450632654 0.855372951663 0.69426080344 0.851667239808 0.701665766016 c 2
 0.851205218603 0.702481359074 l 2
 0.847484646612 0.708327972202 0.843764074622 0.71417458533 0.84 0.72 c 0
 0.815440607626 0.755084846248 0.795805000997 0.791127095281 0.780853505539 0.827551173382 c 0
EndSplineSet
Validated: 33
EndChar

StartChar: three
Encoding: 51 51 10
Width: 2
Flags: W
HStem: -18.78 20G<0.32 1.26> -18.78 20G<0.32 1.26> 0.1 21G<0.59 0.99> 0.1 21G<0.59 0.99>
LayerCount: 2
Back
Fore
SplineSet
1.16 0.38 m 1x00
 1.16 0.75 l 2
 1.16 0.87 1.16 1 1.16 1.12 c 1
 1.04 1.12 0.92 1.12 0.8 1.12 c 0
 0.62 1.12 0.44 1.12 0.43 1.11 c 0
 0.42 1.1 0.42 0.92 0.42 0.74 c 2
 0.42 0.38 l 1
 0.46 0.38 0.51 0.38 0.55 0.38 c 0
 0.59 0.38 0.65 0.38 0.69 0.38 c 1
 0.69 0.29 l 1
 0.69 0.19 l 1
 0.72 0.19 0.76 0.19 0.79 0.19 c 0
 0.83 0.19 0.86 0.19 0.9 0.19 c 1
 0.9 0.29 l 1
 0.9 0.38 l 1
 0.94 0.38 0.99 0.38 1.03 0.38 c 0
 1.07 0.38 1.12 0.38 1.16 0.38 c 1x00
0.32 0.29 m 1
 0.32 0.75 l 2
 0.32 0.91 0.32 1.06 0.32 1.22 c 1
 0.79 1.22 l 1
 1.26 1.22 l 1
 1.26 0.75 l 1
 1.26 0.29 l 1
 1.12 0.29 l 1
 0.99 0.29 l 1
 0.99 0.19 l 1
 0.99 0.1 l 1
 0.79 0.1 l 1
 0.59 0.1 l 1x20
 0.59 0.19 l 1
 0.59 0.29 l 1
 0.46 0.29 l 1
 0.32 0.29 l 1
EndSplineSet
Validated: 1
EndChar

StartChar: four
Encoding: 52 52 11
Width: 2
Flags: W
HStem: -18.42 19.58G<1.925 1.93555 1.93555 1.94 2.245 2.265> -18.42 19.58G<1.925 1.93555 1.93555 1.94 2.245 2.265> 0.08 21G<0.81 0.89 1.35 1.35604 1.35604 1.36> 0.08 21G<0.81 0.89 1.35 1.35604 1.35604 1.36> 0.75 21G<1.35 1.35604 1.35604 1.36> 0.75 21G<1.35 1.35604 1.35604 1.36>
LayerCount: 2
Back
Fore
SplineSet
1.3 1.13 m 0x20
 1.64 1.38 1.92 1.58 1.93 1.58 c 2
 1.9355481767 1.57807164343 l 1
 1.94 1.58 l 1
 1.94 1.58 1.96 1.56 1.96 1.55 c 0
 1.96 1.54 1.96 1.54 1.96 1.54 c 2
 1.96378685791 1.53242628418 1.95753551084 1.51194630481 1.94070310334 1.47910285668 c 0
 1.91506274624 1.42642057432 1.86193770286 1.34477310776 1.77 1.22 c 0
 1.66 1.06 1.57 0.92 1.57 0.92 c 1
 1.59 0.92 1.75 0.98 1.91 1.04 c 0
 2.14 1.13 2.23 1.16 2.26 1.16 c 0
 2.27 1.16 2.27 1.15 2.27 1.15 c 2
 2.27 1.14250667406 2.25991055879 1.12773140358 2.24146676347 1.10704620146 c 1
 2.27174359591 1.10134543464 2.27990514705 1.09013033412 2.27999917538 1.09000112618 c 0
 2.27999971949 1.09000037851 2.27999999345 1.09000000204 2.28 1.09 c 0
 2.28 1.07 1.11 0.15 1.05 0.13 c 0
 1.02562182082 0.121293507434 1.00131944465 0.115770741406 0.977356062748 0.113116340294 c 0
 0.958050084581 0.102299415589 0.942084089782 0.0944503103137 0.93 0.09 c 0
 0.92 0.08 0.9 0.08 0.88 0.08 c 0
 0.74 0.08 0.58 0.28 0.58 0.45 c 0
 0.58 0.49 0.59 0.52 0.61 0.55 c 0
 0.613600198534 0.557200397068 0.617770699965 0.564556331289 0.622612400487 0.572153624567 c 0
 0.627490966917 0.584872146875 0.633272001596 0.597505375632 0.64 0.61 c 0
 0.67 0.66 0.87 0.82 1.3 1.13 c 0x20
0.86630911661 0.229023532808 m 0
 0.886233139333 0.22313848955 0.907593699852 0.22 0.93 0.22 c 0
 1.05 0.22 1.14 0.32 1.14 0.44 c 0
 1.14 0.53 1.09 0.61 1.01 0.66 c 2
 1.0088864277 0.661085340871 l 2
 0.970768608956 0.678327482454 0.943435175489 0.681985992636 0.909894926716 0.672061385639 c 2
 0.907294901688 0.670901699437 l 2
 0.9 0.667639320225 0.891458980338 0.663819660113 0.88 0.66 c 0
 0.78 0.61 0.72 0.53 0.72 0.43 c 0
 0.72 0.426681877493 0.72020320775 0.423386692355 0.72040492554 0.420115668181 c 0
 0.72060370679 0.416892262479 0.720801041145 0.413692319407 0.720801041145 0.410517009896 c 0
 0.730986380804 0.329368934174 0.781915752414 0.254317369076 0.86630911661 0.229023532808 c 0
1.35604278624 0.750547174153 m 1
 1.35 0.75 l 1
 1.35 0.76 l 2
 1.35 0.78 1.39 0.84 1.49 0.99 c 2
 1.49 0.99 1.5499900979 1.0899834965 1.6299822051 1.21996658071 c 0
 1.63 1.22 1.48 1.13 1.31 1.01 c 0
 1.29666666667 1 1.28444444444 0.991111111111 1.27111111111 0.981481481481 c 2
 1.26118401555 0.974260539003 l 2
 1.2274509365 0.949522947704 1.19371785746 0.924785356406 1.16 0.9 c 0
 1.11314217939 0.864856634541 1.08343791622 0.843436115035 1.05880243637 0.825729529826 c 0
 1.05542472333 0.825685424949 1.04888888889 0.818518518519 1.04888888889 0.818518518519 c 1
 1.01 0.79 l 1
 1.01172839506 0.79 1.01345679012 0.788148148148 1.01518518518 0.786296296296 c 0
 1.01691358024 0.784444444445 1.0186419753 0.782592592593 1.02037037037 0.782592592593 c 2
 1.02037037037 0.782592592593 1.02696723315 0.778196601125 1.03090169944 0.778196601125 c 0
 1.03618033989 0.776180339887 1.04236067977 0.773819660113 1.05 0.77 c 0
 1.07 0.76 1.08 0.75 1.09 0.74 c 0
 1.16425124207 0.695449254757 1.2219627433 0.623332274768 1.24676019939 0.55230476263 c 0
 1.25530192679 0.530533734627 1.25999968693 0.509385976173 1.26 0.49 c 0
 1.26 0.46525856017 1.26680154272 0.44051712034 1.27479517197 0.432601893353 c 0
 1.30967314094 0.454742990167 1.52212306462 0.613819213354 1.6819385841 0.737175065701 c 0
 1.76638169081 0.803959442098 1.83924773465 0.862920189481 1.86996665887 0.890587594445 c 1
 1.86 0.9 l 2
 1.84334221907 0.9 1.80201940122 0.890750611153 1.72918375268 0.868828112741 c 0
 1.70182753362 0.860309130758 1.67181342707 0.850604307425 1.64 0.84 c 0
 1.60249997567 0.827499991889 1.56624995296 0.815624984589 1.53296858223 0.804844029271 c 0
 1.51913666525 0.800099870854 1.50481740386 0.795153543523 1.49 0.79 c 0
 1.43418238959 0.769068396096 1.39296918058 0.757873059792 1.36975614814 0.753017678192 c 0
 1.3634795143 0.753017678192 1.36007776309 0.750067433785 1.36000131724 0.750001134414 c 0
 1.36000044851 0.750000380992 1.36000000921 0.75 1.36 0.75 c 2x08
 1.35604278624 0.750547174153 l 1
EndSplineSet
Validated: 37
EndChar

StartChar: five
Encoding: 53 53 12
Width: 2
Flags: W
HStem: -19 20G<0.705 0.735156 0.735156 0.744784 1.13 1.24 1.47 1.66> -19 20G<0.705 0.735156 0.735156 0.744784 1.13 1.24 1.47 1.66> -19 20G<0.705 0.735156 0.735156 0.744784 1.13 1.24 1.47 1.66> -19 20G<0.705 0.735156 0.735156 0.744784 1.13 1.24 1.47 1.66> -0.13 21G<0.62 0.914237 1.13 1.24 1.59 1.61289 1.64209 1.67> -0.13 21G<0.62 0.914237 1.13 1.24 1.59 1.61289 1.64209 1.67>
LayerCount: 2
Back
Fore
SplineSet
0.67 0.97 m 0x04
 0.67 0.98 0.67 0.99 0.67 0.99 c 2
 0.67 1 0.68 1 0.73 1 c 2
 0.735156278251 0.999983914063 l 1
 0.74 1 l 2
 0.749567927437 1 0.757828065796 0.998645407488 0.765316343509 0.997417393564 c 0
 0.771524747993 0.996399267975 0.777202591845 0.995468149823 0.782655297534 0.995468149823 c 0
 0.807936387141 0.988513775722 0.823435326224 0.97139956351 0.853462200864 0.93044703268 c 0
 0.869339344061 0.909976248208 0.888731900702 0.88351276876 0.913791518217 0.84931162811 c 2
 0.919732037588 0.841206390029 l 2
 1.03214936245 0.694889854218 1.10078629725 0.609999379759 1.11 0.61 c 0
 1.12 0.61 1.13 0.69 1.13 0.8 c 0
 1.13 0.86 1.13 0.94 1.13 1 c 1
 1.18 1 l 1
 1.24 1 l 1
 1.24 0.968979178349 1.24232656163 0.937958356698 1.24465312325 0.906937535047 c 0
 1.24697968487 0.875916713396 1.2493062465 0.844895891745 1.2493062465 0.813875070093 c 0
 1.2493062465 0.811678762719 1.24947319649 0.809460250042 1.24964329907 0.807199844176 c 0
 1.24981994955 0.804852426676 1.25 0.802459828655 1.25 0.8 c 2
 1.25 0.6 l 1
 1.28 0.65 1.31 0.69 1.38 0.78 c 0
 1.38381966011 0.783819660113 1.38763932023 0.786180339887 1.39090169944 0.788196601125 c 2
 1.39136 0.78848 l 2
 1.39136 0.7904 1.39352 0.79232 1.39568 0.79424 c 0
 1.39784 0.79616 1.4 0.79808 1.4 0.8 c 0
 1.405 0.8075 1.409375 0.814375 1.41375 0.82125 c 0
 1.426875 0.841875 1.44 0.8625 1.47 0.9 c 2
 1.54 1 l 1
 1.59 1 l 1
 1.63 1 l 2x80
 1.69 1 1.7 1 1.7 0.99 c 2
 1.7 0.99 1.69214146995 0.981483902477 1.69214146995 0.972307081611 c 0
 1.69214146995 0.965593179249 1.69009366323 0.960244707713 1.69000309524 0.960008161806 c 0
 1.69000104719 0.960002812682 1.69 0.960000077638 1.69 0.96 c 0
 1.68521092864 0.95042185727 1.66436721409 0.927082591819 1.63515753957 0.894375736896 c 0
 1.60379146425 0.859254302244 1.56277860148 0.81333110131 1.52164025295 0.762045553851 c 0
 1.5175429457 0.756119516354 1.5136775862 0.75042542661 1.50992234859 0.744841974685 c 0
 1.50992234859 0.742367793588 1.50744131563 0.739893612491 1.50496050561 0.737419653715 c 0
 1.50248014137 0.734946139501 1.5 0.732472847528 1.5 0.73 c 0
 1.48 0.7 1.46 0.67 1.42 0.62 c 0
 1.40472135955 0.600901699437 1.39236067977 0.586180339887 1.38180339887 0.57360679775 c 0
 1.37801787283 0.569098300563 1.37446421441 0.564865953778 1.37109103977 0.560806989698 c 2
 1.34 0.52 l 1
 1.39 0.52 1.43 0.52 1.52 0.52 c 2
 1.52777321915 0.519590883203 l 2
 1.55814434929 0.519590883203 1.58851547943 0.517193162402 1.61888660957 0.514795441601 c 0
 1.64925773971 0.512397720801 1.67962886985 0.51 1.71 0.51 c 1
 1.71 0.44 l 1
 1.71 0.38 l 1
 1.70754035283 0.38 1.70508070566 0.379805817329 1.70262105849 0.379611634658 c 0
 1.70016141132 0.379417451986 1.69770176415 0.379223269315 1.69524211699 0.379223269315 c 0
 1.69189704299 0.379223269315 1.68857264305 0.378514193546 1.68518404798 0.377791425317 c 0
 1.68166200649 0.37704019372 1.67807061416 0.37627416998 1.67431457505 0.37627416998 c 0
 1.65656854249 0.373431457505 1.63514718626 0.37 1.6 0.37 c 0
 1.56 0.37 1.54 0.37 1.52 0.37 c 0
 1.5 0.37 1.47 0.37 1.42 0.37 c 0
 1.37 0.37 1.35 0.37 1.33 0.37 c 1
 1.34 0.36 1.35 0.35 1.36 0.34 c 0
 1.37901923789 0.320980762114 1.39 0.305980762114 1.39803847577 0.295 c 0
 1.39803847577 0.292891014388 1.40027094538 0.290930289453 1.40233460627 0.289117825195 c 0
 1.40410811841 0.287560191673 1.40575695351 0.286112059041 1.40575695351 0.284773427298 c 2
 1.41 0.28 l 2
 1.51 0.17 1.73 -0.1 1.73 -0.12 c 0
 1.73 -0.13 1.69 -0.13 1.65 -0.13 c 2
 1.64209075842 -0.129958422717 l 2
 1.63717939014 -0.129958422717 1.63211615599 -0.129968260355 1.62691547174 -0.129978365052 c 0
 1.62142454557 -0.129989033676 1.61578039947 -0.13 1.61 -0.13 c 0
 1.57 -0.13 1.57 -0.13 1.51 -0.05 c 2
 1.5 -0.04 l 2
 1.48967356557 -0.0259855532696 1.47967356557 -0.0124063524497 1.47 0.000729576498138 c 0
 1.34852479508 0.165683196721 1.27852479508 0.260737602459 1.26 0.27 c 0
 1.25660047126 0.269997813281 1.25115236203 0.262876335749 1.25115236203 0.254698882872 c 0
 1.24483980633 0.23030670347 1.24000006881 0.174351745585 1.24 0.07 c 0
 1.24 0 1.24 -0.06 1.24 -0.13 c 1
 1.18 -0.13 l 1
 1.13 -0.13 l 1
 1.13 -0.06 1.13 0.01 1.13 0.08 c 0
 1.13 0.24 1.1 0.27 1.1 0.27 c 2
 1.09 0.27 1.02 0.18 0.94 0.07 c 0
 0.931861406616 0.0577921099245 0.923722813233 0.0472401374056 0.914236535882 0.0356487145094 c 2
 0.79 -0.13 l 1
 0.71 -0.13 l 2x08
 0.68 -0.13 0.65 -0.13 0.62 -0.13 c 1
 0.74 0.03 l 2
 0.770686832915 0.0738383327357 0.803295465247 0.113833066637 0.834455862276 0.149984283894 c 0
 0.873958958837 0.198069797965 0.912868510388 0.24286833277 0.94 0.27 c 2
 1.02633708733 0.365930097031 l 1
 1.03 0.37 l 1
 1.01 0.37 0.99 0.37 0.94 0.37 c 0
 0.89 0.37 0.86 0.37 0.84 0.37 c 2
 0.832635897649 0.370409116797 l 2
 0.803863248041 0.370409116797 0.775090598432 0.372806837598 0.746317948823 0.375204558398 c 0
 0.717545299215 0.377602279199 0.688772649606 0.38 0.66 0.38 c 1
 0.66 0.44 l 1
 0.66 0.51 l 1
 0.688772649608 0.51 0.717545299216 0.512397720801 0.746317948824 0.514795441601 c 0
 0.775090598432 0.517193162402 0.80386324804 0.519590883203 0.832635897649 0.519590883203 c 2
 0.84 0.52 l 2
 0.93 0.52 0.98 0.52 1.03 0.52 c 1
 1.02 0.53 1.01 0.54 1 0.55 c 0
 0.973262379212 0.584376941013 0.952360679775 0.611458980338 0.934508497187 0.634589803375 c 0
 0.905623058987 0.672016261238 0.88472135955 0.699098300563 0.86 0.73 c 0
 0.802969034897 0.799704512903 0.749953540141 0.86539355546 0.716221015988 0.909255864102 c 0
 0.694043085254 0.937288644704 0.677325403396 0.959010933627 0.67 0.97 c 0x04
EndSplineSet
Validated: 33
EndChar

StartChar: six
Encoding: 54 54 13
Width: 2
Flags: HW
LayerCount: 2
Back
Fore
SplineSet
0 0 m 0
 0 0 l 0
0 0 m 0
 0 0 1 0 0 0 c 0
 0 0 l 0
0 0 m 2
 -1 0 0 0 0 0 c 0
 0 0 -1 0 0 0 c 0
 0 0 -1 0 0 0 c 0
 0 0 l 2
EndSplineSet
EndChar

StartChar: seven
Encoding: 55 55 14
Width: 2
Flags: W
HStem: -18.71 20G<0.775546 0.785703 0.785703 0.797898 1.275 1.315> -18.71 20G<0.775546 0.785703 0.785703 0.797898 1.275 1.315> 0.13 21G<0.980065 1.09> 0.13 21G<0.980065 1.09>
LayerCount: 2
Back
Fore
SplineSet
1.11 0.83 m 0x00
 1.09744562647 0.833138593384 1.08686140662 0.836277186767 1.07731981375 0.839106604585 c 2
 1.06784325306 0.841893845517 l 2
 1.04496070758 0.84665223809 1.0257841965 0.849999892834 1.02 0.85 c 0
 0.851728483079 0.83020335095 0.752040746036 0.722227556343 0.750030898111 0.545468746001 c 0
 0.750030898111 0.411349693026 0.834556940907 0.296636186471 0.948556127451 0.25586472839 c 0
 1.0372239523 0.228273717864 1.14145250659 0.244734238351 1.23 0.32 c 0
 1.23434448187 0.323620401557 1.23854332699 0.327328185164 1.2425975478 0.331120505 c 0
 1.29854117784 0.388231452503 1.33000039359 0.460182005422 1.33 0.54 c 0
 1.33 0.68 1.24 0.79 1.11 0.83 c 0x00
0.75 1.24 m 2
 0.75 1.25 0.75 1.24 0.75 1.25 c 0
 0.75 1.2626949057 0.753581347348 1.27180846405 0.759228514245 1.27809861757 c 0
 0.764168822296 1.28603274269 0.771092661626 1.28999980525 0.78 1.29 c 2
 0.785702996648 1.28984085345 l 1
 0.79 1.29 l 2
 0.805796620827 1.29 0.825585773328 1.28500933541 0.847474517998 1.27628906292 c 0
 0.894544435798 1.26042220602 0.947703724977 1.23229747275 0.98 1.2 c 0
 1.03 1.16 1.03 1.16 1.07 1.19 c 0
 1.13 1.24 1.25 1.29 1.3 1.29 c 0
 1.33 1.29 1.34 1.28 1.34 1.24 c 0
 1.34 1.21043691005 1.32907529641 1.19179852369 1.30318672373 1.18004897628 c 0
 1.28999951383 1.17291649858 1.27260809982 1.16645763164 1.25 1.16 c 0
 1.24424020482 1.16 1.23863591859 1.15740776961 1.23318939642 1.15488851208 c 0
 1.22804112415 1.15250720834 1.22303381081 1.15019110433 1.21816936095 1.15019110433 c 0
 1.14963624153 1.11753226024 1.1100005699 1.06876608038 1.11 1.02 c 0
 1.11 1.0008228039 1.11459706063 0.981645607808 1.12599711676 0.964674194659 c 0
 1.13867467468 0.950935075248 1.15657752444 0.939006073457 1.18 0.93 c 0
 1.23641295108 0.904927577296 1.30068373192 0.860210580208 1.35064699204 0.810623929019 c 0
 1.38010316123 0.781476035435 1.40498480206 0.750033952191 1.42 0.72 c 0
 1.44670779669 0.666584406616 1.44079133935 0.5903430083 1.4348776125 0.514136796086 c 0
 1.43236041059 0.481699311618 1.4298437034 0.449268202218 1.4298437034 0.418606521126 c 0
 1.42009714425 0.385750268991 1.40681584724 0.355224109889 1.39 0.33 c 0
 1.32 0.22 1.15 0.13 1.03 0.13 c 0x20
 0.930129884393 0.13 0.797287735758 0.195944066058 0.713795930846 0.282928116915 c 0
 0.698409909458 0.297795485825 0.683733778161 0.313520853096 0.67 0.33 c 0
 0.63 0.38 0.63 0.42 0.63 0.54 c 0
 0.63 0.62392670027 0.643625354905 0.664728761653 0.65364102261 0.694721366714 c 0
 0.659461350693 0.712150739038 0.664062676022 0.725929723866 0.664062676022 0.742400073709 c 0
 0.671137252976 0.753963348671 0.679681149159 0.766242451355 0.69 0.78 c 0
 0.714883184663 0.811103980829 0.755245691301 0.846077792152 0.796642876814 0.875292863151 c 0
 0.820806198252 0.893976935758 0.845403392666 0.909457545389 0.87 0.92 c 0
 0.874417424305 0.924417424305 0.880786212359 0.929122181999 0.888244363997 0.929122181999 c 2
 0.99 0.98 l 1
 0.96037037037 1.03185185185 l 2
 0.959253940723 1.03363813929 0.957868285402 1.03539077351 0.956477155919 1.03715033169 c 0
 0.953253277703 1.04122802635 0.95 1.0453429067 0.95 1.05 c 0
 0.92 1.1 0.88 1.13 0.83 1.15 c 0
 0.77 1.17 0.75 1.19 0.75 1.23 c 2
 0.750184369358 1.23910082142 l 1
 0.75 1.24 l 2
EndSplineSet
Validated: 33
EndChar

StartChar: eight
Encoding: 56 56 15
Width: 2
Flags: W
HStem: -19.53 20G<0.82 0.855 1.6875 1.69116> -19.53 20G<0.82 0.855 1.6875 1.69116> -18.8 19.27G<0.645 0.725 0.82 0.855 1.6875 1.69116> -18.8 19.27G<0.645 0.725 0.82 0.855 1.6875 1.69116> -0.07 21G<0.828361 0.845858 1.66599 1.69237> -0.07 21G<0.828361 0.845858 1.66599 1.69237>
LayerCount: 2
Back
Fore
SplineSet
0.965088636478 0.304841923929 m 0x00
 0.918936394433 0.34975207284 0.880949716361 0.368725754906 0.834784795301 0.369938181422 c 0
 0.794776528571 0.369938181422 0.753559514961 0.348719237508 0.71 0.31 c 0
 0.684113071241 0.288427559368 0.667533546379 0.274301041852 0.65785164619 0.259590633725 c 0
 0.652259536912 0.24901072024 0.65 0.239504598625 0.65 0.23 c 0
 0.65 0.22 0.65 0.22 0.65 0.21 c 2
 0.65 0.2 l 2
 0.662071177633 0.13360852302 0.68871368821 0.0890740454558 0.727729709326 0.0641992366093 c 0
 0.753947815038 0.0490080345612 0.786214711855 0.0407620031011 0.824531243822 0.0400506367434 c 0
 0.912673383886 0.0400506367434 0.990336291654 0.101513209175 1.01 0.19 c 0
 1.01 0.2 1.01 0.2 1.01 0.22 c 0
 1.01 0.226670642983 1.00830637814 0.232846869547 1.00668795785 0.238748854287 c 0
 1.00520715191 0.244148992971 1.00378930248 0.249319544626 1.00378930248 0.254429159778 c 0
 0.996153786285 0.269517589632 0.983657945518 0.285712625195 0.965088636478 0.304841923929 c 0x00
1.86681629524 0.237910473114 m 0
 1.85770078372 0.258867553913 1.8389990607 0.281001670407 1.81 0.31 c 0
 1.786596036 0.333403963997 1.76319207201 0.34996110886 1.73953786671 0.359921876733 c 0
 1.71969186516 0.366849026866 1.69984586361 0.37 1.68 0.37 c 0
 1.64 0.37 1.6 0.35 1.56 0.32 c 0
 1.52 0.28 1.5 0.25 1.5 0.21 c 0
 1.5 0.19 1.51 0.16 1.53 0.13 c 0
 1.54050596623 0.111614559101 1.55101193246 0.0966783471519 1.56224431512 0.0846485041496 c 0
 1.5951676109 0.0538380281802 1.63566360685 0.0399992977595 1.69 0.04 c 0
 1.77 0.04 1.81 0.07 1.85 0.14 c 0
 1.8565513024 0.151464779199 1.86176136845 0.16185656932 1.86558597739 0.171529801632 c 2
 1.87 0.21 l 2
 1.87 0.214651912893 1.86920404926 0.219303825785 1.8684081108 0.223955666944 c 0
 1.86761219688 0.22860736464 1.86681629524 0.233258990607 1.86681629524 0.237910473114 c 0
0.58 1.18 m 2
 0.59 1.19 0.63 1.2 0.66 1.2 c 0
 0.79 1.2 1.03 1.11 1.19 0.99 c 2
 1.24962962963 0.947407407407 l 2
 1.25333333333 0.947407407407 1.26 0.94 1.26 0.94 c 2
 1.26059725332 0.940597253319 1.26119450664 0.941215516587 1.2617960209 0.941838190688 c 0
 1.26564344587 0.945820958899 1.26966519364 0.949984182164 1.27497627325 0.949984182164 c 2
 1.27749036004 0.951451124378 l 2
 1.30719752063 0.971255898108 1.33690468123 0.991060671838 1.36659281409 1.01106187606 c 0
 1.3676450385 1.0119202049 1.36869820696 1.0128996486 1.36976101198 1.01388805426 c 0
 1.37300220238 1.01690235218 1.3763330166 1.02 1.38 1.02 c 0
 1.54069094993 1.13248366495 1.75948045797 1.20623495781 1.87039656394 1.19976083586 c 0
 1.90354539716 1.19976083586 1.92090704623 1.18909323462 1.93 1.18 c 2
 1.94 1.17 l 2
 1.94 1.15269699882 1.91006061502 1.14287884389 1.8437063299 1.12111898969 c 0
 1.83336376406 1.11772730633 1.8221364947 1.11404549823 1.81 1.11 c 0
 1.62 1.05 1.48 0.99 1.38 0.91 c 2
 1.3551246118 0.895074767078 l 1
 1.35 0.89 l 2
 1.34359048312 0.883590483116 1.33718096623 0.880462869608 1.33077144935 0.880462869608 c 2
 1.33 0.88 l 1
 1.42 0.77 l 2
 1.47 0.71 1.54 0.62 1.57 0.56 c 0
 1.6077345504 0.499624719364 1.62838234527 0.467727364602 1.64913711401 0.460011087134 c 2
 1.65 0.46 l 2
 1.66 0.46 1.67 0.46 1.67 0.46 c 1
 1.67789307865 0.462998023604 l 1
 1.68 0.465 l 2
 1.6825 0.4675 1.685 0.47 1.69 0.47 c 0
 1.69232782603 0.47 1.69492659075 0.46929141027 1.69776494269 0.468517493721 c 0
 1.70117979453 0.467586386368 1.704941443 0.46656072004 1.70899529031 0.46656072004 c 0
 1.73093981161 0.46656072004 1.75710649616 0.461445703189 1.78 0.45 c 0
 2 0.35 2.02 0.07 1.81 -0.03 c 0
 1.79262461562 -0.0377223930559 1.77599467318 -0.0443266232147 1.75982551715 -0.0495972065131 c 0
 1.72947700979 -0.0631988099235 1.70473691776 -0.0699996116286 1.68 -0.07 c 0
 1.65197557079 -0.07 1.62395114158 -0.061273681862 1.58777563324 -0.0438196956436 c 0
 1.57870705353 -0.0398538405601 1.56946381803 -0.035259354608 1.56 -0.03 c 0
 1.50249486957 0.000669402897233 1.46262621927 0.0504449926116 1.44152088492 0.106367682344 c 0
 1.4274662966 0.139448585198 1.42000003986 0.174724300974 1.42 0.21 c 0
 1.42 0.27 1.45 0.33 1.49 0.37 c 2
 1.54 0.42 l 1
 1.53 0.43 1.52 0.44 1.51 0.47 c 0
 1.50905805442 0.471883891166 1.50806970137 0.473679056184 1.50712559638 0.475393852574 c 0
 1.50450502855 0.480153641291 1.50222537447 0.484294221689 1.50222537447 0.487994325961 c 2
 1.50172094773 0.489075269701 l 2
 1.49784082432 0.496059491831 1.49396070092 0.503043713961 1.49 0.51 c 0
 1.46 0.56 1.4 0.66 1.35 0.71 c 2
 1.34413471653 0.716516981638 l 1
 1.26 0.81 l 1
 1.25585786438 0.805857864376 1.25343145751 0.801715728753 1.25058874503 0.79686291501 c 0
 1.24656854249 0.79 1.24171572875 0.781715728753 1.23 0.77 c 0
 1.21828427125 0.758284271247 1.21 0.753431457505 1.20313708499 0.74941125497 c 0
 1.19828427125 0.746568542495 1.19414213562 0.744142135624 1.19 0.74 c 0
 1.15 0.7 1.08 0.61 1.04 0.55 c 0
 1.03585786438 0.541715728753 1.03171572875 0.535147186258 1.02686291501 0.527451660041 c 2
 1.02664790738 0.527110698367 l 1
 1.00613285434 0.491942036008 l 2
 1.00613285434 0.490183830401 1.00472172015 0.488356917329 1.00325324127 0.48645576344 c 0
 1.00166035684 0.484393548955 1 0.482243981864 1 0.48 c 0
 0.995615528128 0.471231056256 0.993153415616 0.462462112512 0.990927956355 0.454536021822 c 0
 0.98807764064 0.444384471872 0.985615528128 0.435615528128 0.98 0.43 c 1
 0.99 0.42 0.99 0.42 1 0.4 c 2
 1.03 0.37 l 2
 1.06 0.33 1.09 0.28 1.1 0.25 c 0
 1.13 0.14 1.01 -0.03 0.88 -0.06 c 2
 0.870279123873 -0.0623359082119 l 1
 0.86686291501 -0.0637258300203 l 2
 0.86 -0.0665685424949 0.851715728753 -0.07 0.84 -0.07 c 0x08
 0.816722958344 -0.07 0.793445916688 -0.066406291486 0.770811079786 -0.0598168479201 c 0
 0.7013302924 -0.042325377992 0.637478711858 0.00608850857239 0.598670793033 0.0690735357579 c 0
 0.574435664522 0.106513049947 0.560000499569 0.148256679719 0.56 0.19 c 2
 0.560068227012 0.194531122187 l 1
 0.56 0.2 l 2
 0.56 0.288653703643 0.643710429025 0.395909724846 0.731844998508 0.442480495633 c 0
 0.761738233328 0.45974557698 0.792150792631 0.470000820472 0.82 0.47 c 0
 0.83 0.47 0.83 0.47 0.85 0.47 c 0
 0.86 0.47 0.86 0.46 0.86 0.46 c 2
 0.88 0.46 0.91 0.49 0.94 0.55 c 0
 0.970205405282 0.604369729508 1.00770974263 0.655089992983 1.04369523194 0.699955437242 c 0
 1.06607551091 0.730747941853 1.08892549451 0.758927083622 1.11 0.78 c 2
 1.19633708733 0.875930097031 l 1
 1.2 0.88 l 1
 1.15 0.91 l 2
 1.07 0.98 0.85 1.08 0.7 1.12 c 0
 0.676886836778 1.12630358997 0.658630203685 1.13260717994 0.644211580259 1.13863271541 c 0
 0.601402572069 1.15310615913 0.579998067974 1.16155295421 0.58 1.17 c 2
 0.58 1.18 l 2
EndSplineSet
Validated: 37
EndChar

StartChar: nine
Encoding: 57 57 16
Width: 2
Flags: W
HStem: 0.30929 0.56071<0.74616 1.06455 1.4 1.45702>
LayerCount: 2
Back
Fore
SplineSet
1.72396174421 0.753865807129 m 0
 1.7217439808 0.753865807129 1.71949031638 0.755351345653 1.71720109452 0.756860322422 c 0
 1.71483847779 0.758417678588 1.71243798705 0.76 1.71 0.76 c 0
 1.68 0.77 1.64 0.78 1.63 0.78 c 0
 1.55 0.77 1.54 0.76 1.5 0.71 c 0
 1.49448056775 0.703376681303 1.48947902575 0.696570577812 1.48498053572 0.689620331273 c 0
 1.46940090733 0.658562642347 1.45999970526 0.624282177666 1.46 0.59 c 0
 1.46 0.491517285054 1.527891916 0.412432260395 1.62546893701 0.410052294201 c 0
 1.63497164081 0.410052294201 1.6443503719 0.411696507539 1.65354579357 0.413308584356 c 0
 1.66238865296 0.414858852427 1.67106199002 0.416379401032 1.6795130348 0.416379401032 c 0
 1.74508357942 0.433830113332 1.79384540134 0.485393253486 1.81 0.55 c 0
 1.81 0.554142135624 1.81171572875 0.558284271247 1.81372583002 0.56313708499 c 2
 1.81384627604 0.56343173857 l 2
 1.81992293229 0.619886429493 1.80363406962 0.677533522617 1.7697333418 0.71735535365 c 0
 1.75667355667 0.73137741689 1.74131800015 0.743697832891 1.72396174421 0.753865807129 c 0
1.3699619036 0.694604884509 m 0
 1.37543098965 0.710928118706 1.38213575473 0.726237129107 1.39 0.74 c 0
 1.39 0.748291796068 1.3968753882 0.756583592135 1.40492523292 0.764875388203 c 2
 1.42 0.79 l 1
 1.16 0.79 l 2
 1.02 0.79 0.9 0.78 0.9 0.77 c 2
 0.91125 0.7475 l 2
 0.916470968718 0.73914645005 0.922564209896 0.729048355182 0.927343750586 0.717205701608 c 0
 0.927343750586 0.714505064574 0.9290975987 0.711693576021 0.930917825288 0.708775680124 c 0
 0.932881253104 0.705628226941 0.934921914512 0.702356965226 0.934921914512 0.698967472736 c 0
 0.946640695858 0.669550714148 0.952500086531 0.629775904509 0.95125 0.59 c 0
 0.95125 0.545 0.94375 0.5 0.93 0.47 c 0
 0.926666666667 0.463333333333 0.922222222222 0.455555555556 0.917777777778 0.447777777778 c 0
 0.913279080913 0.439905058265 0.908780384049 0.432032338752 0.905434030722 0.425311480165 c 0
 0.905434030722 0.416487662098 0.900075524571 0.410090171421 0.900000789089 0.410000945144 c 0
 0.900000264258 0.410000318552 0.9 0.410000003056 0.9 0.41 c 0
 0.9 0.401428396193 0.980819630999 0.400029144417 1.09207679433 0.400029144417 c 0
 1.10218919355 0.400029144417 1.11268724574 0.400022379441 1.12356769154 0.40001536805 c 0
 1.13527074575 0.400007826567 1.14741620055 0.4 1.16 0.4 c 0
 1.25545832611 0.4 1.33232013788 0.404256729806 1.37156484428 0.406430164279 c 0
 1.38501838681 0.407175242936 1.39405117362 0.407675493086 1.39789691902 0.407675493086 c 1
 1.39789691902 0.409864557744 1.39665199724 0.412470573205 1.39524009425 0.415426133213 c 0
 1.39339076219 0.41929737077 1.39125495449 0.423768292535 1.39125495449 0.42868742721 c 2
 1.39 0.43 l 2
 1.38063134234 0.448737315315 1.38000273356 0.458218887487 1.38000273356 0.458218887487 c 2
 1.38000273356 0.463178653139 1.37690873683 0.468259317345 1.37379239767 0.473376670127 c 0
 1.37245069449 0.475579886192 1.37110484985 0.477789902969 1.37 0.48 c 0
 1.37 0.483084232034 1.36846460112 0.486213053853 1.36690943315 0.489382160921 c 0
 1.3653136956 0.492633940327 1.36369714408 0.495928134237 1.36369714408 0.499260092376 c 0
 1.35456586253 0.526998555379 1.35000022176 0.55621767735 1.35 0.59 c 0
 1.35 0.629119108899 1.35850169267 0.663987371462 1.3699619036 0.694604884509 c 0
0.855386846895 0.627674152693 m 0
 0.855386846895 0.629457818005 0.85416702769 0.631305308183 0.852888318867 0.633241990259 c 0
 0.851479881807 0.635375153619 0.85 0.637616524383 0.85 0.64 c 0
 0.84 0.69 0.81 0.73 0.77 0.75 c 0
 0.768309732947 0.75 0.766619465893 0.751595035616 0.764929209914 0.753190071233 c 0
 0.763238953936 0.754785106849 0.761548709033 0.756380142466 0.759858486282 0.756380142466 c 0
 0.699862841173 0.783606090755 0.639069441582 0.78010890419 0.590058278226 0.753748938065 c 0
 0.565661624786 0.73899354003 0.54352883792 0.718705375439 0.524555385582 0.694664873223 c 0
 0.519209691196 0.686918216543 0.514339535137 0.678686294149 0.51 0.67 c 0
 0.48 0.61 0.48 0.6 0.5 0.53 c 0
 0.509829082964 0.50542729259 0.519658165928 0.485685128775 0.533046717558 0.468396647683 c 0
 0.550825811498 0.448440111724 0.573684422818 0.435567339278 0.61 0.42 c 0
 0.625 0.415 0.635 0.41 0.6425 0.40625 c 0
 0.644931074782 0.40625 0.64709947736 0.404750501944 0.649090774666 0.403373476077 c 0
 0.650781353092 0.402204403927 0.652344278843 0.401123606409 0.653831912399 0.401123606409 c 0
 0.667027852924 0.401123606409 0.680552650379 0.405220592151 0.699264915752 0.410888986423 c 0
 0.701429930936 0.411544821483 0.703664388498 0.412221692305 0.7059758136 0.4129156872 c 0
 0.713164137257 0.415074202836 0.721096755832 0.417456215952 0.73 0.42 c 0
 0.822548268857 0.447764480657 0.872270627372 0.535485235793 0.855386846895 0.627674152693 c 0
0.482444974677 0.802310510334 m 2
 0.501425555743 0.820703634166 0.525711007268 0.841905077024 0.55 0.85 c 0
 0.580633122501 0.86531656125 0.746159547908 0.868903270074 1.06454537652 0.869743181641 c 0
 1.07827454283 0.869743181641 1.09218309746 0.869805868619 1.10625701421 0.869869300897 c 0
 1.12066961396 0.869934259647 1.13525563034 0.87 1.15 0.87 c 0
 1.17072956503 0.87 1.19066611531 0.869996117917 1.20984456997 0.869992383451 c 0
 1.227617917 0.869988922591 1.24474018275 0.869985588511 1.26123915989 0.869985588511 c 0
 1.28277627814 0.869985588511 1.30482409592 0.869989025336 1.32738597041 0.869992542292 c 0
 1.35102504481 0.869996227163 1.37522843422 0.87 1.4 0.87 c 0
 1.66 0.87 1.7 0.87 1.76 0.84 c 0
 1.86 0.79 1.9 0.73 1.91 0.62 c 2
 1.91 0.61 l 2
 1.92 0.48 1.87 0.39 1.76 0.34 c 0
 1.75823962911 0.34 1.75651315249 0.338730458336 1.75481409014 0.337481075382 c 0
 1.7531681423 0.336270749482 1.75154792151 0.335079341626 1.74994753666 0.335079341626 c 2
 1.74 0.33 l 2
 1.7265068668 0.3232534334 1.71187582958 0.318782674845 1.69034687055 0.315820391335 c 0
 1.64428804484 0.308175284054 1.59807651582 0.308420405559 1.49889439434 0.308946500917 c 0
 1.46889695269 0.309105617445 1.43405403469 0.309290436011 1.39290436011 0.309290436011 c 0
 1.32291532039 0.309608626655 1.23682905384 0.31 1.13 0.31 c 2
 0.87 0.31 l 2
 0.803255619953 0.31 0.751342957326 0.311790548263 0.710360805544 0.313204086251 c 0
 0.683634962913 0.314125902021 0.661557630162 0.314887383475 0.643046853043 0.314887383475 c 0
 0.562764171247 0.319849293119 0.545188986752 0.329848721382 0.52 0.35 c 0
 0.40541086308 0.43594185269 0.362630079363 0.562917050069 0.399004142547 0.675824426664 c 0
 0.409798333607 0.717820851953 0.43122092759 0.756971098704 0.468126873922 0.788420005563 c 0
 0.471947808082 0.792337637445 0.475905071418 0.796199157773 0.48 0.8 c 2
 0.482444974677 0.802310510334 l 2
EndSplineSet
Validated: 33
EndChar

StartChar: question
Encoding: 63 63 17
Width: 2
Flags: W
HStem: -18.54 20G<0.46 0.535> -18.54 20G<0.46 0.535> 0.41 21G<0.78 0.9> 0.41 21G<0.78 0.9> 0.41 21G<0.78 0.9> 0.41 21G<0.78 0.9>
LayerCount: 2
Back
Fore
SplineSet
0.48 1.15 m 0x20
 0.47 1.19 0.46 1.27 0.46 1.34 c 0
 0.46 1.38 0.46 1.42 0.46 1.46 c 1
 0.51 1.46 l 2
 0.56 1.46 0.56 1.46 0.56 1.43 c 2
 0.560019888458 1.42975922207 l 2
 0.563989067107 1.4121236793 0.57 1.38420250511 0.57 1.34 c 0
 0.578505036302 1.26770719143 0.590626854728 1.21168990243 0.608671798853 1.16810272074 c 0
 0.633756279972 1.10866268143 0.669108422327 1.07544645376 0.72 1.05 c 0
 0.74840645127 1.03737491055 0.774820491493 1.02873464319 0.800184862222 1.0237646532 c 0
 0.807765886919 1.0237646532 0.81553713846 1.02288089411 0.823549113666 1.02196975955 c 0
 0.832073316455 1.02100037365 0.840870007092 1.02 0.85 1.02 c 0
 0.88 1.02 0.92 1.03 0.95 1.04 c 0
 1.02312287491 1.06924914996 1.05881706597 1.11988611927 1.08054216393 1.23882898229 c 0
 1.08073680308 1.24005106829 1.08093289621 1.24127900834 1.08112992635 1.24251281592 c 0
 1.08535003508 1.26893924118 1.09 1.29805743655 1.09 1.33 c 0
 1.0919394596 1.35521297482 1.09459768733 1.37553599503 1.09674030276 1.39191699064 c 0
 1.09880666965 1.40771504123 1.10039346911 1.41984664202 1.10039346911 1.42916208069 c 0
 1.10039346911 1.46774413251 1.10535020912 1.46674460299 1.12309132334 1.46316709694 c 0
 1.12998040426 1.46177790975 1.1387971888 1.46 1.15 1.46 c 2
 1.2 1.46 l 1
 1.2 1.34 l 2
 1.2 1.27 1.19 1.19 1.18 1.15 c 0
 1.1521821407 1.05727380234 1.06417724727 0.964547604675 0.987740139633 0.935602893689 c 0
 0.965864840792 0.924528588734 0.943117891611 0.915779920114 0.92 0.91 c 2
 0.912344147856 0.905905333124 l 2
 0.894992629796 0.887262603107 0.895945094746 0.877315251577 0.898035551648 0.85548294199 c 0
 0.898916685322 0.846280559905 0.9 0.834966640245 0.9 0.82 c 2
 0.9 0.73 l 1
 0.94 0.73 0.98 0.73 1.02 0.73 c 0
 1.06 0.73 1.09 0.73 1.13 0.73 c 1
 1.13 0.68 l 1
 1.13 0.63 l 1
 1.09 0.63 1.06 0.63 1.02 0.63 c 0
 0.98 0.63 0.94 0.63 0.9 0.63 c 1
 0.9 0.52 l 1
 0.9 0.41 l 1
 0.84 0.41 l 1
 0.78 0.41 l 1
 0.78 0.52 l 1
 0.78 0.63 l 1
 0.66 0.63 l 1
 0.65 0.63 l 1
 0.53 0.63 l 1
 0.53 0.68 l 1
 0.53 0.73 l 1
 0.57 0.73 0.61 0.73 0.65 0.73 c 2
 0.66 0.73 l 1
 0.78 0.73 l 1
 0.78 0.82 l 1
 0.78 0.9 l 1
 0.777972820066 0.9 0.775945640131 0.901051305328 0.773751847961 0.902189016568 c 0
 0.77116515139 0.903530489933 0.768346818368 0.904992091082 0.765023726754 0.904992091082 c 2
 0.69 0.93 l 2
 0.59 0.97 0.5 1.06 0.48 1.15 c 0x20
EndSplineSet
Validated: 1
EndChar

StartChar: A
Encoding: 65 65 18
Width: 2
Flags: W
HStem: -18.87 19.99G<0.978515 1.06191 1.41 1.94> -18.87 19.99G<0.978515 1.06191 1.41 1.94> -18.87 19.99G<0.978515 1.06191 1.41 1.94> 0.27 21G<1.41 1.94> 0.27 21G<1.41 1.94> 0.27 20.74G<1.15 1.18142 1.41 1.94> 0.27 20.74G<1.15 1.18142 1.41 1.94>
LayerCount: 2
Back
Fore
SplineSet
1.1 0.98 m 0x00
 1.03 1.02 0.87 1.02 0.79 0.97 c 0
 0.6 0.86 0.55 0.53 0.7 0.41 c 0
 0.712786903336 0.39903979714 0.72857695784 0.39008169506 0.746392161029 0.383125036216 c 0
 0.779154887871 0.373642777544 0.817757753383 0.370000657542 0.86 0.37 c 0
 0.92 0.37 0.97 0.38 1.02 0.41 c 0
 1.19 0.52 1.25 0.88 1.1 0.98 c 0x00
0.549912139892 0.357678819674 m 0
 0.506452653133 0.407672458791 0.489999174721 0.477382392309 0.49 0.58 c 2
 0.490051056524 0.589687443166 l 2
 0.490051056524 0.591381431468 0.490038415269 0.593083591662 0.49002571302 0.594793964733 c 0
 0.490012887601 0.596520922834 0.49 0.59825625386 0.49 0.6 c 0
 0.49 0.86 0.61 1.04 0.85 1.12 c 0
 0.87170729381 1.1272357646 0.91435710338 1.12978884819 0.96279547707 1.12978884819 c 0
 0.96556367712 1.12978884819 0.968363355576 1.12984040465 0.971195883546 1.12989256605 c 0
 0.974095670583 1.12994596602 0.977029885695 1.13 0.98 1.13 c 2
 0.98 1.13 0.99 1.13 1 1.13 c 0
 1.01 1.13 1.01 1.13 1.01 1.13 c 1
 1.02 1.13 l 2
 1.10382894587 1.12664684217 1.17191675729 1.09968198265 1.22200277849 1.05400838345 c 0
 1.29158509909 0.995789648311 1.32999854827 0.907497321916 1.33 0.8 c 0
 1.33 0.757294901688 1.32270509831 0.721884705063 1.31434588481 0.681308230375 c 0
 1.31291796068 0.674376941013 1.31145898034 0.667294901688 1.31 0.66 c 0
 1.30478755715 0.642277694303 1.2988143666 0.624664066847 1.29214782745 0.607272581473 c 2
 1.29 0.6 l 2
 1.26 0.49 1.13 0.33 1.04 0.29 c 0
 1.02349693723 0.283811351462 1.00997271441 0.278473800052 0.999515177235 0.273285054445 c 0
 0.997731585853 0.272189665763 0.996042717887 0.270948194614 0.994445078264 0.269773784572 c 0
 0.991164019894 0.267361909051 0.988267730505 0.265232873632 0.985725936655 0.265232873632 c 0
 0.961583636905 0.247845199856 0.971927974403 0.228069647882 1.02 0.18 c 0
 1.0319611957 0.1680388043 1.04302820263 0.157865986131 1.05427377877 0.149482457418 c 0
 1.08632270475 0.133980929536 1.12320514809 0.129999088078 1.18 0.13 c 0
 1.21310287079 0.13 1.22565949056 0.123151249658 1.22900254185 0.109453019963 c 0
 1.23257763627 0.105047236169 1.23196447437 0.0988011540937 1.23114934581 0.0904977028474 c 0
 1.23073714116 0.0862987073495 1.23027328855 0.0815735906956 1.23027328855 0.0762942816268 c 2
 1.23 0.07 l 2
 1.22599222227 0.0499611113309 1.22198444453 0.0363471356073 1.21475911464 0.0272265407661 c 0
 1.20589651225 0.013260443953 1.19283788119 0.01 1.17 0.01 c 2
 1.15000000242 0.01 l 2
 1.07566725876 0.00256672587634 1.01791058679 0.0227602338514 0.956193676946 0.0746870036554 c 0
 0.944565126855 0.0842513238634 0.933077531091 0.0948762570481 0.921641979141 0.106559153398 c 0
 0.911325947094 0.11685331951 0.90080813494 0.127995158765 0.89 0.14 c 0
 0.883877502963 0.147653121296 0.877286443802 0.155071961529 0.870439463477 0.162148337342 c 0
 0.828109701911 0.203861452629 0.784253927416 0.230000604475 0.76 0.23 c 0
 0.75 0.23 0.72 0.23 0.72 0.24 c 0
 0.72 0.25 0.68 0.27 0.64 0.29 c 0
 0.602048861501 0.3072505175 0.572429972913 0.329262320664 0.549912139892 0.357678819674 c 0
1.41 0.27 m 1x10
 1.41 0.69 l 2
 1.41 0.83 1.41 0.98 1.41 1.12 c 1
 1.68 1.12 l 1
 1.94 1.12 l 1
 1.94 1.05 l 1
 1.94 0.99 l 1
 1.75 0.99 l 1
 1.56 0.99 l 1
 1.56 0.96 1.56 0.93 1.56 0.9 c 0
 1.56 0.87 1.56 0.84 1.56 0.81 c 1
 1.61 0.81 1.66 0.81 1.71 0.81 c 0
 1.76 0.81 1.81 0.81 1.86 0.81 c 1
 1.86 0.79 1.86 0.77 1.86 0.75 c 0
 1.86 0.73 1.86 0.71 1.86 0.69 c 1
 1.81 0.69 1.76 0.69 1.71 0.69 c 0
 1.66 0.69 1.61 0.69 1.56 0.69 c 1
 1.56 0.54 l 1
 1.56 0.39 l 1
 1.62 0.39 1.69 0.39 1.75 0.39 c 0
 1.81 0.39 1.88 0.39 1.94 0.39 c 1
 1.94 0.33 l 1
 1.94 0.27 l 1
 1.85 0.27 1.77 0.27 1.68 0.27 c 2
 1.41 0.27 l 1x10
EndSplineSet
Validated: 33
EndChar

StartChar: B
Encoding: 66 66 19
Width: 2
Flags: W
HStem: -19.09 20G<0.495 0.519946 2.0703 2.095> -19.09 20G<0.495 0.519946 2.0703 2.095> -18.52 19.43G<0.495 0.519946 1.19607 1.30331 2.0703 2.095> -18.52 19.43G<0.495 0.519946 1.19607 1.30331 2.0703 2.095> 0.04 21.71G<0.49 2.1> 0.04 21.71G<0.49 2.1> 0.75 21G<0.495 0.51 2.08 2.095> 0.75 21G<0.495 0.51 2.08 2.095>
LayerCount: 2
Back
Fore
SplineSet
0.658867297999 0.870001668855 m 0x02
 0.721018970279 0.870001668855 0.790364297198 0.880145795146 0.84 0.9 c 0
 0.91 0.93 0.94 0.98 1.06 1.21 c 2
 1.1786100585 1.43874796997 l 2
 1.18581544201 1.45485640373 1.19213436915 1.46820155372 1.2 1.48 c 2
 1.29 1.48 l 2
 1.31662534791 1.48 1.33537392747 1.47445225226 1.34961106822 1.47023944961 c 0
 1.35832542837 1.46766085043 1.36534957908 1.46558238811 1.37145525105 1.46558238811 c 0
 1.39607713753 1.44903466665 1.41157469268 1.41391308646 1.44 1.34 c 0
 1.46517797957 1.28125138101 1.49035595913 1.22954643597 1.50371093998 1.2144428128 c 2
 1.51 1.21 l 2
 1.51745683229 1.21 1.54159496895 1.1655165217 1.57412176403 1.10557382589 c 0
 1.58521509315 1.0851302485 1.59728416147 1.06288850935 1.61 1.04 c 0
 1.61618033989 1.03381966011 1.61854101966 1.02763932023 1.62180339887 1.01909830056 c 0
 1.62381966011 1.01381966011 1.62618033989 1.00763932023 1.63 1 c 0
 1.63388142595 0.990943339455 1.63742806373 0.982556255239 1.64070488612 0.974752116986 c 2
 1.69 0.87 l 1
 1.87 0.87 l 2
 1.88975743769 0.87 1.9087341627 0.871171022826 1.92662185831 0.872274843421 c 0
 1.94256791485 0.873258848627 1.9576485305 0.874189448884 1.97164528458 0.874189448884 c 0
 2.02448435194 0.879567597153 2.06060218228 0.890603571976 2.08 0.91 c 2
 2.09 0.91 l 2
 2.1 0.91 2.1 0.88 2.1 0.83 c 0
 2.1 0.77 2.1 0.75 2.09 0.75 c 2x02
 2.08 0.76 l 1
 2.08 0.76 2.07362742016 0.767800533916 2.06932463856 0.767800533916 c 0
 2.06392860684 0.767800533916 2.06 0.77 2.06 0.77 c 1
 2.054213533 0.774453207645 l 2
 2.02913367089 0.783294604681 1.99108219706 0.788364911566 1.94469299313 0.789664303868 c 0
 1.93509697891 0.789664303868 1.92507975712 0.789742225112 1.91469764116 0.789822984768 c 0
 1.90353055943 0.78990985046 1.89194132016 0.79 1.88 0.79 c 0
 1.85806908629 0.79 1.83613817257 0.787650259245 1.81420725885 0.785300518489 c 0
 1.79227634514 0.782950777734 1.77034543143 0.780601036979 1.74841451771 0.780601036979 c 2
 1.74 0.78 l 1
 1.78574687796 0.685964750866 l 2
 1.79746871803 0.663727692146 1.81173205132 0.636535897358 1.83 0.6 c 0
 1.88 0.5 1.9 0.46 1.92 0.41 c 2
 1.94476512733 0.356099428759 l 2
 1.95012921702 0.345578162455 1.95604912707 0.334353495376 1.96284234934 0.321472951995 c 0
 1.9750978141 0.298235519238 1.99019562819 0.269608743617 2.01 0.23 c 0
 2.06 0.13 2.08 0.09 2.1 0.04 c 1
 2.09 0.04 l 1
 1.29 0.04 l 1
 0.49 0.04 l 1x08
 0.51 0.09 0.53 0.13 0.58 0.23 c 0
 0.598267948679 0.266535897358 0.612531281971 0.293727692146 0.624253122043 0.315964750866 c 2
 0.67 0.41 l 1
 0.766343559722 0.608039539428 l 2
 0.803524199846 0.687048399691 0.826762099923 0.733524199846 0.85 0.78 c 1
 0.841585482295 0.780601036979 l 2
 0.819654568579 0.780601036979 0.797723654863 0.782950777734 0.775792741147 0.785300518489 c 0
 0.753861827431 0.787650259245 0.731930913715 0.79 0.71 0.79 c 0
 0.694054604638 0.79 0.678423105119 0.789785676624 0.663383171922 0.789579464209 c 0
 0.64944008664 0.789388290668 0.636005429282 0.789204088178 0.623300442389 0.789204088178 c 0
 0.564511208793 0.789204088178 0.526745338869 0.776742439345 0.51 0.76 c 2
 0.5 0.75 l 2
 0.49 0.75 0.49 0.77 0.49 0.83 c 0
 0.49 0.89 0.49 0.91 0.5 0.91 c 2
 0.51 0.91 l 2
 0.529892039926 0.890107960074 0.589353405094 0.870215920148 0.658867297999 0.870001668855 c 0x02
1.17028286394 0.871117512707 m 0
 1.18680130356 0.871117512707 1.20549063789 0.870878318583 1.2255762068 0.87062125485 c 0
 1.24890516942 0.870322680772 1.27411769858 0.87 1.3 0.87 c 2
 1.30736410235 0.870409116797 l 2
 1.30995638273 0.870409116797 1.31260741967 0.871077037238 1.31537836195 0.871775167453 c 0
 1.31841183564 0.872539441632 1.32158901172 0.87333992118 1.32499011823 0.87333992118 c 0
 1.34 0.876247529557 1.35937129434 0.88 1.39 0.88 c 0
 1.44 0.88 1.46 0.88 1.48 0.88 c 1
 1.43 0.98 l 2
 1.4 1.03 1.39 1.05 1.38 1.08 c 0
 1.37 1.09 1.36 1.1 1.35 1.13 c 0
 1.32656854249 1.17686291501 1.31343145751 1.21 1.30254833996 1.23745166004 c 0
 1.29675876829 1.25205532049 1.2916070691 1.26505000644 1.28588276336 1.27764619694 c 0
 1.28588276336 1.27970516412 1.28441207252 1.28176413129 1.28294138168 1.28382309847 c 0
 1.28147069084 1.28588206564 1.28 1.28794103282 1.28 1.29 c 1
 1.27525190366 1.27575571099 1.26824936545 1.26376586386 1.26006281607 1.24974873572 c 2
 1.25875 1.2475 l 1
 1.23 1.19 l 2
 1.22 1.165 1.21 1.1475 1.20125 1.1325 c 2
 1.18 1.09 l 2
 1.16042891641 1.0469436161 1.14238994207 1.00695145071 1.12828127009 0.973622504134 c 0
 1.11007629336 0.926690369956 1.10000060995 0.891589823126 1.1 0.88 c 1
 1.10309016994 0.88 1.10904508497 0.879045084972 1.11727457514 0.877725424859 c 0
 1.12286851185 0.877725424859 1.12951341662 0.876475792834 1.13702389343 0.875063382477 c 0
 1.14678406197 0.873227898058 1.15800601325 0.871117512707 1.17028286394 0.871117512707 c 0
1.80103027063 0.262077991499 m 2
 1.79680395782 0.270236806199 1.79222364235 0.278921484827 1.78715765066 0.288527048005 c 0
 1.7749021859 0.311764480762 1.75980437181 0.340391256383 1.74 0.38 c 0
 1.71 0.44 1.7 0.47 1.69 0.5 c 0
 1.69 0.502905012065 1.68774611133 0.50581002413 1.68549222266 0.508715036195 c 0
 1.68323833399 0.51162004826 1.68098444532 0.514525060325 1.68098444532 0.517430072389 c 0
 1.67556530365 0.527595597963 1.66993658086 0.537687296878 1.66372583002 0.548822509939 c 0
 1.65 0.573431457505 1.63343145751 0.60313708499 1.61 0.65 c 0
 1.5967208942 0.676558211601 1.5867480631 0.697605965363 1.57861802766 0.715338479865 c 2
 1.54 0.79 l 1
 1.29 0.79 l 1
 1.05 0.79 l 1
 0.9 0.5 l 1
 0.83 0.35 l 2
 0.8075 0.3 0.785 0.25 0.76 0.2 c 1
 0.761816869777 0.2 0.763633739555 0.199898895015 0.76545949454 0.199797295586 c 0
 0.767303194606 0.199694697552 0.769155955401 0.199591595307 0.771026926713 0.199591595307 c 0
 0.814189105594 0.199591595307 0.857351284476 0.19719369648 0.900513463357 0.194795797653 c 0
 0.943675642239 0.192397898827 0.98683782112 0.19 1.03 0.19 c 2
 1.29 0.19 l 1
 1.56 0.19 l 2
 1.60316217888 0.19 1.64632435776 0.192397898827 1.68948653664 0.194795797653 c 0
 1.73264871552 0.19719369648 1.7758108944 0.199591595307 1.81897307329 0.199591595307 c 0
 1.82083493934 0.199591595307 1.82267877169 0.19969369648 1.82451358719 0.199795797653 c 0
 1.82452256016 0.199796296968 1.82453153292 0.199796796283 1.82454050546 0.199797295586 c 0
 1.82636626045 0.199898895015 1.82818313022 0.2 1.83 0.2 c 1
 1.80103027063 0.262077991499 l 2
EndSplineSet
Validated: 5
EndChar

StartChar: C
Encoding: 67 67 20
Width: 2
Flags: W
HStem: -18.64 20G<1.09343 1.11363> -18.64 20G<1.09343 1.11363> 0.03 21G<1.17826 1.20575 1.20575 1.405> 0.03 21G<1.17826 1.20575 1.20575 1.405>
LayerCount: 2
Back
Fore
SplineSet
1.28812959568 0.969118323695 m 0x00
 1.2750883256 0.99828157333 1.26177376486 1.02645104955 1.25 1.05 c 0
 1.22569633058 1.09860733883 1.2079556428 1.13408871439 1.19677768633 1.1458085666 c 1
 1.17087077617 1.10471462818 1.00150490775 0.769798274702 0.871926252881 0.505578860352 c 0
 0.796701722804 0.347359795424 0.734517639724 0.212958328457 0.722208987207 0.178074966955 c 0
 0.743534032508 0.168755735124 0.917984222537 0.159998850532 1.18 0.16 c 0
 1.33 0.16 1.49 0.16 1.64 0.16 c 1
 1.63857408523 0.167129573851 l 1
 1.635 0.175 l 2
 1.6325 0.18 1.63 0.185 1.63 0.19 c 0
 1.63 0.2 1.63 0.2 1.63 0.21 c 0
 1.62 0.24 1.56 0.37 1.49 0.5 c 0
 1.43581639987 0.600626685963 1.3876243559 0.713236484267 1.35933627831 0.786813515449 c 0
 1.34747865879 0.815056004337 1.33749256318 0.840022632567 1.33 0.86 c 0
 1.325 0.8725 1.319375 0.8875 1.31328125 0.90375 c 0
 1.30554599247 0.924377353401 1.29705543133 0.947018849799 1.28812959568 0.969118323695 c 0x00
0.484296868003 0.0612947021839 m 0
 0.490331064118 0.0763247163023 0.50366236916 0.107322813425 0.53 0.16 c 0
 0.544680273526 0.189360547052 0.556666666667 0.214680273526 0.567442188206 0.237442188206 c 0
 0.584304401382 0.273061462524 0.5982014374 0.302417178347 0.614817184998 0.331191800255 c 0
 0.618766129574 0.339243748481 0.62277779632 0.347422929693 0.626849777807 0.355722666721 c 0
 0.677529923543 0.459051811949 0.737409396496 0.581136992785 0.8 0.71 c 0
 0.8 0.72 0.8 0.73 0.81 0.74 c 0
 0.90372583002 0.927451660041 0.96313708499 1.05313708499 1.01235498012 1.1572583002 c 0
 1.04715728753 1.23088311755 1.07686291501 1.29372583002 1.11 1.36 c 2
 1.11362541391 1.35959717623 l 2
 1.12802117826 1.35959717623 1.14241694261 1.35719788217 1.15681270696 1.35479858812 c 0
 1.1712084713 1.35239929406 1.18560423565 1.35 1.2 1.35 c 0
 1.2321955336 1.3459755583 1.25305377551 1.3419511166 1.2677904812 1.3346679482 c 0
 1.28598048375 1.32694136006 1.29450087174 1.31649311817 1.3 1.3 c 0
 1.30942236994 1.27173289017 1.33882047734 1.20351430543 1.38923996808 1.09325291945 c 0
 1.40706654655 1.05582113028 1.42726280055 1.0137208726 1.44917960675 0.96803398875 c 0
 1.49686917696 0.86862232585 1.55270509831 0.7522291236 1.61 0.63 c 0
 1.62747161937 0.592727212021 1.64467189875 0.556268443997 1.66142668384 0.520923114534 c 0
 1.66948180935 0.505945827525 1.67858516159 0.487795527625 1.68776637773 0.465501506191 c 0
 1.730758984 0.37525360313 1.76997993224 0.293942979478 1.80219910552 0.227148034678 c 0
 1.80223515745 0.227073293882 1.80227120061 0.226998571261 1.802307235 0.226923866822 c 0
 1.81160767366 0.20764302674 1.82032386232 0.189573401667 1.82837626091 0.172848369699 c 2
 1.83 0.17 l 2
 1.85974917301 0.110501653971 1.87533813331 0.0757836802035 1.88308601093 0.0574217497477 c 0
 1.88760336529 0.0473229347448 1.89 0.0413569280449 1.89 0.04 c 0
 1.89 0.03 1.59 0.03 1.22 0.03 c 2
 1.20575172281 0.0300001079878 l 1
 1.18 0.03 l 2x20
 1.17651611565 0.03 1.1730418642 0.0300020527857 1.16957734499 0.0300041055713 c 0
 1.16956761246 0.030004111338 1.16955788001 0.0300041171047 1.16954814764 0.0300041228713 c 0
 1.16609341549 0.0300061698741 1.16264836126 0.0300082111426 1.15921308346 0.0300082111426 c 0
 1.07464216536 0.0300082111426 0.987621933034 0.0316078936712 0.903684761936 0.0331509006538 c 0
 0.825491741309 0.0345883136048 0.749974248523 0.0359765426474 0.681604807093 0.0359765426474 c 0
 0.553474609517 0.0397549175305 0.480000003185 0.0448775077769 0.48 0.05 c 2
 0.48 0.05 0.484296868003 0.0548338108681 0.484296868003 0.0612947021839 c 0
EndSplineSet
Validated: 33
EndChar

StartChar: D
Encoding: 68 68 21
Width: 2
Flags: W
HStem: -19.5 20G<0.475 0.49 2.10302 2.125> -19.5 20G<0.475 0.49 2.10302 2.125> -18.71 19.21G<0.475 0.49 1.02 1.25218 1.29799 1.53 2.10302 2.125> -18.71 19.21G<0.475 0.49 1.02 1.25218 1.29799 1.53 2.10302 2.125> -0.24 21.6G<0.475 0.498272 1.12 1.41747 1.45071 1.45179 2.11 2.125> -0.24 21.6G<0.475 0.498272 1.12 1.41747 1.45071 1.45179 2.11 2.125> 0.36 21G<0.475 0.498272 2.11 2.125> 0.36 21G<0.475 0.498272 2.11 2.125>
LayerCount: 2
Back
Fore
SplineSet
1.33790341238 0.0395971659899 m 2x00
 1.4 0.17 l 2
 1.43434880095 0.24442240206 1.46542026822 0.302458135692 1.48570956963 0.340354784817 c 0
 1.50086133316 0.368655466737 1.51 0.385724800158 1.51 0.39 c 0
 1.51 0.4 1.41 0.41 1.3 0.41 c 0
 1.19 0.41 1.09 0.4 1.09 0.39 c 0
 1.09 0.383935717145 1.10838776327 0.348451013055 1.13624260201 0.294696747485 c 0
 1.1543203812 0.25981025065 1.17638569713 0.217228605742 1.2 0.17 c 2
 1.26209658762 0.0395971659899 l 2
 1.28296706912 0.00384577429146 1.29148353456 -0.0144506036726 1.3 -0.04 c 1
 1.30851646544 -0.0144506036726 1.31703293088 0.00384577429146 1.33790341238 0.0395971659899 c 2x00
1.69994116255 0.789937959116 m 2
 1.70056662406 0.791194116423 l 2
 1.71785973187 0.827697322585 1.7336697325 0.860866067087 1.74792520257 0.890773469095 c 0
 1.7480653728 0.89106754059 1.74820539273 0.891361296769 1.7483452623 0.891654737703 c 0
 1.78759817418 0.974000317654 1.81500943845 1.03150424144 1.82908022603 1.06566539531 c 0
 1.83609665274 1.08330576767 1.83999987739 1.09527733944 1.84 1.1 c 0
 1.84 1.11914120114 1.73924396516 1.12912276276 1.441302319 1.12994468645 c 0
 1.43178479012 1.12994468645 1.42206072445 1.12995577393 1.41212647553 1.12996710107 c 0
 1.40175328645 1.12997892869 1.39115093009 1.1299910176 1.380315255 1.1299910176 c 0
 1.01070949311 1.1299910176 0.75 1.11982644902 0.75 1.11 c 0
 0.75 1.1 0.83 0.93 0.91 0.77 c 0
 0.93 0.73 0.94 0.71 0.98 0.63 c 0
 0.99527864045 0.595623058987 1.00763932023 0.567082039325 1.01819660113 0.542705098312 c 0
 1.02681348378 0.522808569834 1.03422896541 0.505686096735 1.04104908206 0.490428624939 c 2
 1.06 0.45 l 2
 1.06209244671 0.45 1.06418489343 0.45013077792 1.06627734014 0.450261555839 c 0
 1.06836978685 0.450392333759 1.07046223356 0.450523111678 1.07255468028 0.450523111678 c 0
 1.07662148379 0.450523111678 1.08076184811 0.45126901016 1.08504635995 0.452040877231 c 0
 1.08963996501 0.452868428329 1.09439926598 0.45372583002 1.09941125497 0.45372583002 c 0
 1.12 0.456568542495 1.14485281374 0.46 1.18 0.46 c 0
 1.24 0.46 1.27 0.46 1.3 0.46 c 0
 1.3019973737 0.46 1.3039947474 0.460119842422 1.30599212109 0.460239684844 c 0
 1.30798949479 0.460359527266 1.30998686849 0.460479369687 1.31198424219 0.460479369687 c 0
 1.3161342245 0.460479369687 1.32035761066 0.461234807708 1.32472978132 0.462016858846 c 0
 1.32942125253 0.462856023343 1.3342840333 0.46372583002 1.33941125497 0.46372583002 c 0
 1.36 0.466568542495 1.38485281374 0.47 1.42 0.47 c 0
 1.48 0.47 1.52 0.47 1.55 0.47 c 2
 1.5538442235 0.478237621786 l 1
 1.55777777778 0.487777777778 l 2
 1.5612459115 0.496448112095 1.56471404523 0.505118446412 1.57240577656 0.518012378353 c 2
 1.66914437747 0.725309380298 l 2
 1.67598455326 0.740783549609 1.6826958874 0.755391774804 1.69 0.77 c 2
 1.69 0.77 1.69994116255 0.779960412369 1.69994116255 0.789937959116 c 2
0.69692060973 0.792272400568 m 2
 0.681557201042 0.821892763019 0.669621447396 0.84594638151 0.66 0.87 c 0
 0.55 1.09 0.47 1.28 0.47 1.28 c 2
 0.47 1.29 0.79 1.29 1.25 1.29 c 0
 1.25435024721 1.29 1.25869141059 1.28999774142 1.2630233189 1.28999548284 c 0
 1.26303257434 1.28999547801 1.26304182974 1.28999547319 1.26305108509 1.28999546836 c 0
 1.2673736985 1.28999321461 1.27168709597 1.28999096567 1.27599110737 1.28999096567 c 0
 1.27997837692 1.28999096567 1.2839728769 1.28999322425 1.28797442109 1.28999548284 c 0
 1.29197596528 1.28999774142 1.29598455366 1.29 1.3 1.29 c 0
 1.76 1.29 2.13 1.29 2.13 1.28 c 2
 2.1274363225 1.27143014546 l 1
 2.13 1.27 l 1
 2.13 1.27 2.09 1.18 1.98 0.94 c 0
 1.92844334601 0.824989002631 1.88475085938 0.730424840423 1.85079384854 0.656931282848 c 0
 1.8048774694 0.557553923917 1.77676164515 0.496702515123 1.7710753649 0.475918648964 c 0
 1.78203231177 0.455900182001 1.87459103615 0.450735095472 1.95941979428 0.45711402049 c 0
 2.03338976474 0.467217138327 2.09604329649 0.486043460928 2.11 0.5 c 2
 2.12 0.5 l 2x80
 2.13 0.5 2.13 0.48 2.13 0.43 c 0
 2.13 0.38 2.13 0.36 2.12 0.36 c 2x02
 2.11 0.37 l 2
 2.1 0.39 2.05 0.4 1.97 0.4 c 0
 1.96072245616 0.4 1.95133864959 0.399384353643 1.94192527911 0.398766767677 c 0
 1.93245240708 0.398145277975 1.92294959623 0.397521824066 1.91349500903 0.397521824066 c 0
 1.84213403927 0.386998496223 1.76960589419 0.366404232383 1.73 0.34 c 0
 1.69274604809 0.312059536071 1.6294697787 0.214726225515 1.55632769141 0.0641576598885 c 0
 1.55099652853 0.0531113915565 1.54555577785 0.0417269540587 1.54 0.03 c 2
 1.45178606062 -0.153213566395 l 1
 1.45078125 -0.155625 l 1
 1.45070965598 -0.155612677335 l 2
 1.43430816397 -0.194976257815 1.42493374979 -0.217472743736 1.41 -0.24 c 0
 1.3 -0.24 l 1
 1.2 -0.24 l 1x08
 1.12 -0.08 l 1
 1.04 0.08 l 2
 1.03 0.1 1.02 0.12 1 0.16 c 0
 0.969056002163 0.227045328647 0.948751237683 0.275471998918 0.932226947936 0.31488227289 c 0
 0.927757282519 0.325542382422 0.923564216204 0.335542805724 0.919512010768 0.34507357631 c 2
 0.89 0.41 l 1
 0.71 0.41 l 2
 0.663011921534 0.41 0.618231722587 0.405584240964 0.581882731506 0.398828140073 c 0
 0.538288429896 0.390043477065 0.506543578188 0.376541728716 0.49 0.36 c 2
 0.48 0.36 l 2x02
 0.47 0.36 0.47 0.38 0.47 0.43 c 0
 0.47 0.49 0.47 0.5 0.48 0.5 c 2x80
 0.49 0.49 l 2
 0.507046689235 0.472953310765 0.553152339856 0.463171361877 0.615933272823 0.460654264778 c 0
 0.628906324817 0.460654264778 0.642428466551 0.460497408713 0.656230878573 0.460337301528 c 0
 0.670617559368 0.460170416859 0.685308740865 0.46 0.7 0.46 c 2
 0.709015554681 0.460601036979 l 2
 0.711632802596 0.460601036979 0.714298936101 0.461329906809 0.717055912491 0.462083611344 c 0
 0.720007392514 0.462890489447 0.723062985431 0.46372583002 0.72627416998 0.46372583002 c 0
 0.74 0.466568542495 0.756568542495 0.47 0.78 0.47 c 0
 0.82 0.47 0.83 0.47 0.85 0.47 c 1
 0.69692060973 0.792272400568 l 2
EndSplineSet
Validated: 33
EndChar

StartChar: E
Encoding: 69 69 22
Width: 2
Flags: W
HStem: -18.63 20G<0.42 1.91> -18.63 20G<0.42 1.91> 0.01 21G<1.11 1.26414> 0.01 21G<1.11 1.26414>
LayerCount: 2
Back
Fore
SplineSet
1.43162038148 0.753375631215 m 0x00
 1.47439588905 0.842464662685 1.5145764383 0.925100745214 1.54852202137 0.994913537397 c 0
 1.60923279883 1.11977247813 1.65 1.20361508018 1.65 1.21 c 0
 1.65 1.22 1.45 1.23 1.16 1.23 c 0
 0.99 1.23 0.84 1.23 0.67 1.23 c 1
 0.683011343229 1.19747164193 l 2
 0.687168113932 1.19064309366 0.69 1.18532154683 0.69 1.18 c 0
 0.696180339887 1.16145898034 0.7405572809 1.06652475842 0.801884705063 0.935328890437 c 0
 0.839787137637 0.854245384838 0.88416407865 0.759311162925 0.93 0.66 c 0
 0.939352130745 0.641295738511 0.948704261489 0.623563280904 0.958662288032 0.604681991887 c 0
 0.980647869255 0.562995407553 1.00558688457 0.515708853936 1.04 0.44 c 0
 1.05975077641 0.397206651122 1.07625077641 0.36199844719 1.0905700893 0.331878513172 c 2
 1.16 0.19 l 1
 1.28 0.44 l 2
 1.34 0.57 1.37 0.63 1.4 0.69 c 0
 1.41086498851 0.711729977028 1.4214071896 0.732860491682 1.43162038148 0.753375631215 c 0x00
0.908339860465 0.361635054322 m 0
 0.845708857277 0.48858234515 0.762854440674 0.654291178354 0.68 0.82 c 2
 0.50541678351 1.18931065027 l 2
 0.46539537676 1.26980173265 0.44269768838 1.31703872711 0.42 1.37 c 1
 1.16 1.37 l 1
 1.91 1.37 l 1
 1.79 1.13 l 1
 1.73 1.01 l 2
 1.73 1.00790642198 1.72859186523 1.00580743277 1.72718012962 1.00370307608 c 0
 1.7257611554 1.00158792941 1.72433854333 0.999467360079 1.72433854333 0.997341412497 c 2
 1.72058874503 0.987451660041 l 2
 1.71656854249 0.976568542495 1.71171572875 0.963431457505 1.7 0.94 c 0
 1.66757642047 0.873446336749 1.63922986009 0.814755496147 1.61426405154 0.762685365348 c 0
 1.60620457324 0.745386051837 1.59810254777 0.72782416706 1.59 0.71 c 0
 1.58051992476 0.691039849519 1.57122326141 0.672079699038 1.5621083026 0.653219714338 c 0
 1.52558382809 0.576055864229 1.49839876551 0.51748256866 1.47640983852 0.470104935606 c 0
 1.47633082767 0.46993469778 1.47625188391 0.469764604502 1.47617300704 0.469594655431 c 2
 1.47513892459 0.467370187849 l 2
 1.45220990934 0.417713463965 1.43084163954 0.371790378648 1.41103395342 0.332070742182 c 2
 1.41 0.33 l 2
 1.39 0.29 1.37 0.25 1.33 0.17 c 0
 1.30656854249 0.12313708499 1.29343145751 0.09 1.28254833996 0.0625483399594 c 0
 1.27485281374 0.0431370849898 1.26828427125 0.0265685424949 1.26 0.01 c 2
 1.25 0.01 l 1
 1.16 0.01 l 2x20
 1.06 0.01 1.06 0.01 1.04 0.07 c 0
 1.01489215236 0.132769619111 0.985844279627 0.199479263306 0.908339860465 0.361635054322 c 0
EndSplineSet
Validated: 1
EndChar

StartChar: F
Encoding: 70 70 23
Width: 2
Flags: W
HStem: -19.08 20G<2.52628 2.535> -19.08 20G<2.52628 2.535> -18.71 20G<1.26 2.52 2.52628 2.535> -18.71 20G<1.26 2.52 2.52628 2.535> -0.09 21G<1.23 1.58 2.49 2.51182> -0.09 21G<1.23 1.58 2.49 2.51182> 0.33 21G<2.49 2.51182>
LayerCount: 2
Back
Fore
SplineSet
0.92 0.58 m 0x08
 0.74 0.95 0.59 1.26 0.59 1.27 c 0
 0.59 1.28 0.97 1.29 1.55 1.29 c 0
 2.52 1.29 l 1
 2.52 1.22 l 1
 2.52 1.15 l 1
 2.28 1.15 l 2
 2.2 1.15 2.12 1.15 2.04 1.15 c 2
 1.93526146981 0.956636559647 l 2
 1.92692858854 0.938864342182 1.91962144739 0.924432171091 1.91 0.91 c 0
 1.90047119196 0.890148316577 1.89094238391 0.870296633155 1.88139257103 0.850453623947 c 2
 1.88107399399 0.849737487474 l 2
 1.87294244332 0.82993164899 1.86349460284 0.806989205669 1.85 0.78 c 0
 1.83854101966 0.757082039325 1.83 0.738541019662 1.82270509831 0.722705098312 c 0
 1.81090169944 0.697082039325 1.80236067977 0.678541019662 1.79 0.66 c 1
 1.86 0.66 1.93 0.66 2 0.66 c 0
 2.07 0.66 2.14 0.66 2.21 0.66 c 1
 2.21 0.59 l 1
 2.21 0.52 l 1
 1.97 0.52 l 2
 1.89 0.52 1.8 0.52 1.72 0.52 c 2
 1.6796800008 0.430720001765 l 1
 1.67819660113 0.427294901688 l 2
 1.67720629759 0.425015091723 1.67620047742 0.42269881671 1.6751782257 0.420344701937 c 0
 1.66527252372 0.397533139087 1.65382393729 0.37116851098 1.64 0.34 c 0
 1.6325 0.3225 1.62625 0.3075 1.62078125 0.294375 c 0
 1.604375 0.255 1.595 0.2325 1.58 0.21 c 0
 1.43 -0.09 l 1
 1.34 -0.09 l 1
 1.33 -0.09 l 1
 1.25 -0.09 l 1
 1.24 -0.09 l 2
 1.22 -0.045 1.2 -0.005 1.175 0.045 c 0
 1.15 0.095 1.12 0.155 1.08 0.24 c 0
 1.0494427191 0.304934221913 1.02472135955 0.356737620788 1.00360679775 0.400983005625 c 0
 0.9694427191 0.472573542138 0.94472135955 0.524376941013 0.92 0.58 c 0x08
1.34550273667 0.118685955118 m 1
 1.40212380198 0.218771203041 1.82999982849 1.1209172015 1.83 1.14 c 2
 1.83 1.14 1.62735184485 1.14921127978 1.37234511835 1.14995271424 c 0
 1.01777420201 1.14995271424 0.866586826176 1.14025674486 0.851304521798 1.12302820705 c 0
 0.860647405529 1.08918743664 0.919010919975 0.963468291016 0.992358376491 0.811517956781 c 0
 1.08011729849 0.634819423717 1.20301631325 0.393905604847 1.34550273667 0.118685955118 c 1
2.49 0.8 m 0
 2.49511938698 0.817917854438 2.49958357089 0.834525302722 2.50356026362 0.849319209137 c 0
 2.51511938698 0.892320919527 2.52255969349 0.92 2.53 0.92 c 0
 2.54 0.92 2.54 0.81 2.54 0.62 c 0
 2.54 0.617225796224 2.53999526861 0.614473854202 2.53999053722 0.611744053625 c 0
 2.53999049885 0.6117219117 2.53999046047 0.611699771232 2.5399904221 0.61167763222 c 0
 2.53998572939 0.608970329833 2.53998107445 0.6062848102 2.53998107445 0.603620955915 c 0
 2.53998107445 0.601361074642 2.53998580584 0.599095891739 2.53999053722 0.596825651117 c 0
 2.53999526861 0.594555410494 2.54 0.592280112152 2.54 0.59 c 0
 2.54 0.579947695671 2.53985059615 0.570281341704 2.53970693414 0.560986481564 c 0
 2.53957390579 0.552379614155 2.53944580073 0.544091280975 2.53944580073 0.536110003897 c 0
 2.53944580073 0.379278276041 2.52860815767 0.319998290664 2.52 0.32 c 2
 2.52 0.32 2.5147056292 0.325294370799 2.51182406487 0.332030726092 c 1
 2.51 0.33 l 1x02
 2.47 0.43 2.46 0.67 2.49 0.8 c 0
EndSplineSet
Validated: 33
EndChar

StartChar: G
Encoding: 71 71 24
Width: 2
Flags: W
HStem: -18.65 20G<2.045 2.07104 2.08188 2.12> -18.65 20G<2.045 2.07104 2.08188 2.12> -0.03 21G<0.73 1.25125 1.98 2.11 2.285 2.41> -0.03 21G<0.73 1.25125 1.98 2.11 2.285 2.41>
LayerCount: 2
Back
Fore
SplineSet
0.856179841103 1.3197873159 m 0x20
 0.869328434308 1.3197873159 0.882745899264 1.31983840009 0.896429301233 1.31989049678 c 0
 0.910666087273 1.31994470037 0.925190755326 1.32 0.94 1.32 c 0
 0.97 1.32 0.99 1.32 1.06 1.32 c 2
 1.2 1.32 l 2
 1.63 1.32 1.98 1.32 1.98 1.33 c 0
 1.98 1.34 2.02 1.35 2.07 1.35 c 0
 2.07207226328 1.35 2.07409755792 1.34997882228 2.07607706443 1.34995764456 c 0
 2.07612284976 1.34995715472 2.07616861059 1.34995666489 2.07621434694 1.34995617532 c 0
 2.0781459996 1.3499354985 2.08003398381 1.34991528911 2.08187940003 1.34991528911 c 2
 2.09 1.35 l 2
 2.15 1.35 2.16 1.34 2.16 1.31 c 0
 2.16 1.30505103644 2.16049983683 1.29964284338 2.16103337391 1.29387001649 c 0
 2.16164405717 1.28726247433 2.16229889095 1.28017722717 2.16229889095 1.27275612377 c 0
 2.16747305539 1.2500639666 2.18061154994 1.21940747933 2.19375 1.18875 c 0
 2.199375 1.175625 2.205 1.1625 2.21 1.15 c 0
 2.26 1.06 2.27 0.89 2.23 0.82 c 0
 2.21647924326 0.792958486519 2.21209902966 0.779627787751 2.2446649167 0.773828197627 c 0
 2.25154285575 0.773828197627 2.25967686318 0.773181931478 2.26926077572 0.772420466935 c 0
 2.28300254313 0.771328650979 2.29972515339 0.77 2.32 0.77 c 2
 2.44 0.77 l 1
 2.44 0.69 l 1
 2.44 0.61 l 1
 2.39 0.61 2.35 0.61 2.3 0.61 c 0
 2.25 0.61 2.21 0.61 2.16 0.61 c 1
 2.16 0.49 l 2
 2.16 0.39 2.18 0.35 2.29 0.17 c 0
 2.30236067977 0.151458980338 2.31090169944 0.136737620788 2.32270509831 0.11639320225 c 0
 2.33 0.103819660113 2.33854101966 0.0890983005625 2.35 0.07 c 2
 2.41 -0.03 l 1
 2.32 -0.03 l 2
 2.25 -0.03 2.23 -0.02 2.2 0.02 c 0
 2.19666666667 0.0233333333333 2.19333333333 0.0255555555556 2.19 0.0277777777778 c 0
 2.18333333333 0.0322222222222 2.17666666667 0.0366666666667 2.17 0.05 c 0
 2.16 0.06 2.16 0.07 2.16 0.07 c 1
 2.16 0.05 2.16 0.04 2.16 0.02 c 0
 2.16 -0.02 2.15 -0.03 2.07 -0.03 c 1
 1.98 -0.03 l 1
 1.98 0 1.98 0.01 1.98 0.07 c 0
 1.98 0.12 1.98 0.15 1.98 0.18 c 0
 1.98 0.33 1.96 0.41 1.92 0.46 c 0
 1.91638228559 0.465426571616 1.91243737474 0.470525946793 1.908147416 0.475312153298 c 0
 1.86860309987 0.510172477616 1.8244585496 0.527415670916 1.76303923753 0.534960940972 c 0
 1.73302110425 0.538462220774 1.69881677705 0.54 1.66 0.54 c 2
 1.58 0.54 l 2
 1.54 0.54 1.53 0.54 1.51 0.54 c 2
 1.41389750963 0.340930555665 l 2
 1.39717464882 0.304349297639 1.38358732441 0.277174648819 1.37 0.25 c 0
 1.36056079711 0.226401992781 1.34889413045 0.20503144934 1.335 0.179580724918 c 2
 1.3325 0.174999999991 l 1
 1.28 0.07 l 2
 1.27000000007 0.0450000001813 1.26000000014 0.0275000002538 1.25125000016 0.0125000003264 c 2
 1.23 -0.03 l 2
 1.2 -0.03 1.17 -0.03 1.14 -0.03 c 0
 1.11 -0.03 1.09 -0.03 1.06 -0.03 c 2
 0.73 0.63 l 0
 0.623775478513 0.842449042975 0.531481387847 1.03748504742 0.473670993702 1.16372820892 c 0
 0.434399126815 1.24491367918 0.409998864135 1.29609433398 0.41 1.3 c 2
 0.412610336713 1.30203189103 l 2
 0.412610336713 1.30650531671 0.41 1.31 0.41 1.31 c 2
 0.41 1.31722928977 0.587692944146 1.3197873159 0.856179841103 1.3197873159 c 0x20
0.671304567164 1.15302682458 m 0
 0.698732087626 1.05373586692 1.15 0.17 1.15 0.17 c 1
 1.16 0.18 1.63 1.17 1.63 1.18 c 2
 1.63 1.18 1.44044070204 1.18902663324 1.18996326814 1.18992774712 c 0
 0.847255860299 1.18992774712 0.687121598106 1.17127205705 0.671304567164 1.15302682458 c 0
1.95477040133 0.718046798574 m 0
 1.97801743412 0.740103923257 1.97998768588 0.784869733361 1.97998768588 0.914843749251 c 0
 1.97998768588 1.15039952941 1.96919286364 1.15999999992 1.93 1.16 c 0
 1.91 1.16 1.88 1.16 1.86 1.17 c 0
 1.83 1.17 1.78 1.09 1.68 0.89 c 0
 1.67651462504 0.884191041731 1.67316422606 0.878382083463 1.66991682076 0.872544177315 c 0
 1.64751227027 0.827522738017 1.62867872683 0.786657225029 1.6149322238 0.755005301414 c 2
 1.61116796585 0.746167965852 l 2
 1.61116796585 0.744235987417 1.6099233613 0.742288701146 1.6086686298 0.74032557042 c 0
 1.60739331208 0.738330230867 1.60610753238 0.736318522678 1.60610753238 0.734289882383 c 0
 1.59576016146 0.709460971261 1.58999993944 0.693394304854 1.59 0.69 c 0
 1.59 0.684653202313 1.60929706572 0.680009752198 1.63871798379 0.680009752198 c 0
 1.64045456534 0.680009752198 1.64223757478 0.680007438886 1.644066795 0.680005065619 c 0
 1.64599335484 0.680002566062 1.6479711744 0.68 1.65 0.68 c 0
 1.74674320499 0.68 1.89964189626 0.698718495424 1.95477040133 0.718046798574 c 0
EndSplineSet
Validated: 33
EndChar

StartChar: H
Encoding: 72 72 25
Width: 2
Flags: W
HStem: -18.71 20G<1.24453 1.49285> -18.71 20G<1.24453 1.49285> -0.24 21G<0.49 0.86 1.45 1.64 2.37188 2.39122 2.40281 2.42> -0.24 21G<0.49 0.86 1.45 1.64 2.37188 2.39122 2.40281 2.42>
VStem: 1.45 0.91<0.71 1.02252>
LayerCount: 2
Back
Fore
SplineSet
2.43931941213 -0.186563777251 m 0
 2.43689764071 -0.226385066232 2.42742687622 -0.239515554182 2.40281194336 -0.239515554182 c 0
 2.35960533493 -0.233754973881 2.30687874104 -0.175245940677 2.20233248987 -0.0156500761093 c 1024x08
1.64 0.08 m 1
 1.64 -0.24 l 1025x28
1.45 -0.24 m 1
 1.45 0.08 l 1025
0.78 -0.08 m 0
 0.7525 -0.1325 0.725 -0.185 0.7 -0.24 c 1024
0.870905248028 0.512836994167 m 0
 0.9440322903 0.66025874534 1.01689001101 0.808464503893 1.07 0.92 c 2
 1.07328537157 0.92675326379 l 2
 1.08008802486 0.941118344588 1.08589726744 0.955771623097 1.09254833996 0.972548339959 c 0
 1.10343145751 1 1.11656854249 1.03313708499 1.14 1.08 c 0
 1.17177204458 1.14989849808 1.19546838663 1.19153203728 1.21622065776 1.2279929599 c 0
 1.2281264535 1.24891097386 1.23906322675 1.2681264535 1.25 1.29 c 0
 1.3 1.29 1.35 1.29 1.46 1.29 c 0
 1.52570302774 1.29 1.57 1.28643232409 1.60567675912 1.28355891971 c 0
 1.61409836213 1.28355891971 1.62203963842 1.2827254461 1.62966876145 1.28192473441 c 0
 1.63672080181 1.28118459021 1.64350612669 1.28047243904 1.65015756053 1.28047243904 c 0
 1.65346463377 1.28047243904 1.65677170702 1.28035432928 1.66007878026 1.28023621952 c 0
 1.66338585351 1.28011810976 1.66669292675 1.28 1.67 1.28 c 0
 1.69181545698 1.27937670123 1.71262081043 1.27879225259 1.73247417693 1.27823454647 c 0
 2.0311416776 1.26984459946 2.1143630914 1.26750680492 2.18 1.23 c 0
 2.19679343845 1.22020382757 2.21241179533 1.20962426744 2.22685542773 1.19820744738 c 0
 2.32032961153 1.13329675621 2.35999964293 1.02251591891 2.36 0.88 c 0
 2.36 0.71 2.29 0.58 2.15 0.51 c 0
 2.05 0.46 l 1
 2.05488661555 0.455811472383 l 1
 2.06313708499 0.45058874503 l 2
 2.07 0.446568542495 2.07828427125 0.441715728753 2.09 0.43 c 0
 2.11 0.41 2.11 0.41 2.12 0.4 c 0
 2.18665805395 0.338469488666 2.26909112383 0.213838913582 2.33359537482 0.0908174565913 c 0
 2.39390580847 -0.0164028594441 2.44000089049 -0.117833746808 2.44 -0.16 c 0
 2.44 -0.165349088143 2.43980679262 -0.170347816156 2.43962626227 -0.175018559679 c 0
 2.4394679637 -0.179114114872 2.43931941213 -0.182957492275 2.43931941213 -0.186563777251 c 0
 2.43931941213 -0.189017884197 2.43950047973 -0.191399499565 2.43967582692 -0.193705873235 c 0
 2.43984043402 -0.19587098067 2.44 -0.197969781293 2.44 -0.2 c 0
 2.44 -0.23 2.43 -0.24 2.41 -0.24 c 2
 2.40281194336 -0.239515554182 l 2
 2.40095981018 -0.239515554182 2.39902193521 -0.239625769296 2.39699483113 -0.239741059246 c 0
 2.39477204141 -0.239867478662 2.39244196367 -0.24 2.39 -0.24 c 0
 2.35376602951 -0.24 2.3011208013 -0.182560597985 2.20233248987 -0.0156500761093 c 0
 2.18908256778 0.00457669192817 2.175000299 0.0264271544069 2.16 0.05 c 0
 2.07608798127 0.186909083186 2.01948265961 0.27310572896 1.96692562089 0.326679369949 c 0
 1.89998991619 0.392340058888 1.83765527536 0.410000252182 1.74 0.41 c 2
 1.64 0.41 l 1
 1.64 0.3 1.64 0.19 1.64 0.08 c 0
 1.64 -0.03 1.64 -0.13 1.64 -0.24 c 1
 1.55 -0.24 l 1
 1.45 -0.24 l 1
 1.45 -0.13 1.45 -0.03 1.45 0.08 c 0
 1.45 0.19 1.45 0.3 1.45 0.41 c 1
 1.24 0.41 l 2
 1.17 0.41 1.1 0.41 1.03 0.41 c 1
 1.03 0.407023235241 1.0276975455 0.404046470482 1.02538847912 0.401061157461 c 0
 1.02306611284 0.398058649442 1.0207370583 0.395047494403 1.0207370583 0.39201899552 c 2
 0.86 0.08 l 2
 0.7 -0.24 l 2
 0.67 -0.24 0.63 -0.24 0.6 -0.24 c 0
 0.57 -0.24 0.52 -0.24 0.49 -0.24 c 1
 0.501271568597 -0.213699673273 0.513954784513 -0.190222641183 0.529110413052 -0.163734694549 c 2
 0.660479315608 0.0924346654358 l 2
 0.670704283003 0.116333897637 0.678777965879 0.133166948819 0.69 0.15 c 0
 0.723320658467 0.220806399241 0.770519645441 0.314165082308 0.824371413356 0.420682837363 c 0
 0.839416522293 0.45044177176 0.854980902107 0.481227813905 0.870905248028 0.512836994167 c 0
1.45 0.56 m 1
 1.45 0.65 1.45 0.76 1.45 0.85 c 0
 1.45 1.11 1.45 1.13 1.41 1.13 c 0
 1.36 1.13 1.34 1.1 1.18 0.75 c 0
 1.17 0.72 1.16 0.7 1.13 0.64 c 0
 1.11 0.6 1.1 0.58 1.09 0.56 c 1
 1.15 0.56 1.21 0.56 1.27 0.56 c 0
 1.33 0.56 1.39 0.56 1.45 0.56 c 1
2.18 0.86 m 0
 2.18 0.99 2.12 1.08 1.99 1.11 c 0
 1.93 1.12 1.83 1.13 1.76 1.13 c 0
 1.72 1.13 1.68 1.13 1.64 1.13 c 1
 1.64 0.85 l 2
 1.64 0.76 1.64 0.65 1.64 0.56 c 1
 1.69 0.56 1.73 0.56 1.78 0.56 c 0
 2.05 0.56 2.18 0.66 2.18 0.86 c 0
EndSplineSet
Validated: 35
EndChar

StartChar: I
Encoding: 73 73 26
Width: 2
Flags: W
HStem: -18.79 20.04G<0.469989 0.619259 0.938167 0.947052 1.1277 1.4> -18.79 20.04G<0.469989 0.619259 0.938167 0.947052 1.1277 1.4> 0.06 21G<0.762448 0.834887> 0.06 21G<0.762448 0.834887>
LayerCount: 2
Back
Fore
SplineSet
0.762447899802 0.242390670535 m 2x20
 0.752675736966 0.267868480712 0.741904761907 0.296666666658 0.73 0.33 c 2
 0.697552100198 0.417609329465 l 2
 0.688714738183 0.44064994347 0.680694236394 0.460975049156 0.67339076784 0.479483089443 c 0
 0.654850982689 0.526465572894 0.640931712199 0.561739007302 0.63 0.6 c 0
 0.52 0.9 0.43 1.16 0.43 1.18 c 2
 0.430247048489 1.18714879007 l 1
 0.43 1.19 l 1
 0.431435540615 1.19460948068 l 2
 0.435584822658 1.2099997568 0.449977457672 1.21 0.49 1.21 c 2
 0.56 1.21 l 1
 0.61925925927 1.0396296296 l 2
 0.626666666674 1.01888888887 0.633333333337 0.999999999988 0.64 0.98 c 0
 0.64 0.978030891393 0.640883663501 0.976045956709 0.641774030745 0.974045963701 c 0
 0.642678010457 0.9720153936 0.643588900461 0.969969301212 0.643588900461 0.967908490044 c 2
 0.64625 0.9625 l 2
 0.65 0.955 0.655 0.945 0.66 0.93 c 0
 0.673333333333 0.896666666667 0.677777777778 0.881111111111 0.682222222222 0.865555555556 c 0
 0.684444444444 0.857777777778 0.686666666667 0.85 0.69 0.84 c 2
 0.69050788031 0.838315326842 l 2
 0.703981521946 0.803101999201 0.717815495483 0.766548746346 0.73 0.73 c 0
 0.76 0.65 0.79 0.56 0.81 0.49 c 2
 0.858360431525 0.350292086705 l 2
 0.881984850513 0.293946957671 0.890992425257 0.266030298973 0.9 0.23 c 1
 0.983656440278 0.457731420757 l 2
 0.994475800154 0.487935467079 1.00647580015 0.521681433771 1.02 0.56 c 0
 1.03145898034 0.5905572809 1.04 0.61527864045 1.04729490169 0.63639320225 c 0
 1.05909830056 0.6705572809 1.06763932023 0.69527864045 1.08 0.72 c 0
 1.09309307341 0.759279220242 1.10618614683 0.798558440485 1.12769619601 0.857477270849 c 2
 1.25 1.21 l 1
 1.32 1.21 l 1
 1.4 1.21 l 1
 1.39585786438 1.19757359313 1.39171572875 1.18686291501 1.38686291501 1.17431457505 c 0
 1.38 1.15656854249 1.37171572875 1.13514718626 1.36 1.1 c 0
 1.35 1.07 1.34 1.05 1.33 1.03 c 0
 1.31913083586 1.00101556229 1.30957432427 0.975969082217 1.29942730443 0.949630740506 c 0
 1.28286027457 0.904824067323 1.26322884763 0.850513345346 1.24192621868 0.79157921069 c 0
 1.24185236511 0.791374893385 1.24177849147 0.791170520511 1.24170459779 0.79096609227 c 0
 1.21624792519 0.720535104095 1.18841520748 0.643530310774 1.16058238848 0.568264843699 c 0
 1.14584024458 0.525385333396 1.13401040937 0.492692876214 1.12 0.46 c 0
 1.10886655613 0.426599668375 1.09773311225 0.396298176063 1.08142455534 0.355295221637 c 2
 0.98 0.08 l 1
 0.975815106572 0.0794768883215 l 1
 0.96686291501 0.0762741699797 l 2
 0.96 0.0734314575051 0.951715728753 0.07 0.94 0.07 c 0
 0.92 0.07 0.91 0.07 0.9 0.07 c 0
 0.889147769253 0.07 0.878295538506 0.0676745219828 0.867443307759 0.0653490439656 c 0
 0.856591077012 0.0630235659484 0.845738846265 0.0606980879312 0.834886615518 0.0606980879312 c 2
 0.83 0.06 l 1
 0.762447899802 0.242390670535 l 2x20
0.803455840846 1.18018264118 m 0
 0.809732873036 1.19340950439 0.818603669185 1.20670488618 0.83 1.22 c 0
 0.847766797163 1.23776679716 0.883289417658 1.24764211729 0.918166868388 1.24874946681 c 0
 0.921762542845 1.24874946681 0.925381488145 1.24906006345 0.92901224052 1.24937167345 c 0
 0.932666761637 1.2496853234 0.936333244926 1.25 0.94 1.25 c 0x80
 0.954104380158 1.25 0.966965425694 1.24626999613 0.977706475289 1.240563715 c 0
 0.994858105007 1.23418999246 1.00718453398 1.22407644047 1.01 1.21 c 2
 1.00948468057 1.20472701894 l 1
 1.01 1.2 l 2
 1.01 1.18 0.99 1.18 0.95 1.18 c 0
 0.91306767161 1.18 0.887501983889 1.17621111978 0.873305218812 1.16863281614 c 0
 0.865609103282 1.16423090435 0.861156797599 1.15858585515 0.860077000927 1.15175871388 c 2
 0.86 1.15 l 2
 0.86 1.14244485745 0.864281013416 1.13203570596 0.872305664211 1.12039175547 c 0
 0.883618687622 1.10596250936 0.902714164529 1.08909687867 0.93 1.07 c 0
 0.941200198873 1.06159985085 0.951420362942 1.05339570865 0.960660207184 1.04533135368 c 0
 1.00688692574 1.01022134806 1.03000028502 0.975111342435 1.03 0.94 c 0
 1.03 0.93 1.03 0.93 1.03 0.92 c 0
 1.03 0.91680642119 1.02755801071 0.913694433945 1.0251819451 0.910666457583 c 0
 1.02293079532 0.907797669654 1.02073881988 0.90500429147 1.02073881988 0.902288380489 c 2
 1.02 0.9 l 2
 1.01353153284 0.882750754227 0.999624653677 0.872010118948 0.981787148863 0.865773518772 c 0
 0.954279789514 0.849152773513 0.918665697965 0.839999778569 0.88 0.84 c 0
 0.839689751658 0.84 0.812378832288 0.852999328971 0.803307435833 0.878998033062 c 2
 0.8 0.88 l 2
 0.8 0.882868107245 0.800065285996 0.885553413619 0.800125922731 0.888047489231 c 0
 0.800178497266 0.890209955023 0.800227576671 0.892228661162 0.800227576671 0.894098112986 c 2
 0.8 0.9 l 2
 0.8 0.92 0.81 0.92 0.84 0.91 c 0
 0.851458980338 0.906180339887 0.86 0.902360679775 0.867294901688 0.899098300563 c 0
 0.879098300563 0.893819660113 0.887639320225 0.89 0.9 0.89 c 0
 0.921719394498 0.89 0.938197321247 0.900482935497 0.94563747581 0.913859695235 c 0
 0.950999597487 0.940259323586 0.928051738451 0.981299576956 0.87 1.02 c 0
 0.853806019428 1.02971638834 0.83970999891 1.04153073674 0.828051063999 1.05442206947 c 0
 0.811442880169 1.07178593527 0.80070137293 1.08976106197 0.795620441874 1.10814045487 c 0
 0.79192762777 1.11907696041 0.79 1.12985955745 0.79 1.14 c 0
 0.79 1.15339430305 0.794485183854 1.1667886061 0.803455840846 1.18018264118 c 0
EndSplineSet
Validated: 33
EndChar

StartChar: J
Encoding: 74 74 27
Width: 2
Flags: W
HStem: -18.6 20G<0.625 0.675> -18.6 20G<0.625 0.675>
LayerCount: 2
Back
Fore
SplineSet
0.440081872103 1.19546878721 m 1x00
 0.44 1.2 l 2
 0.44 1.24 0.46 1.28 0.51 1.33 c 0
 0.56 1.38 0.6 1.4 0.65 1.4 c 0
 0.7 1.4 0.76 1.38 0.81 1.34 c 0
 0.86 1.3 0.88 1.26 0.88 1.2 c 2
 0.879959994597 1.19546863071 l 1
 0.88 1.19 l 2
 0.88 1.14 0.87 1.07 0.85 1.05 c 0
 0.82 1.01 0.83 0.96 0.94 0.64 c 0
 1.03794905604 0.351914541061 1.13570711166 0.269878155699 1.13570711166 0.269878155699 c 1
 1.1449772252 0.27733276218 1.15500489192 0.289694205466 1.16656492858 0.309194362207 c 0
 1.19845141566 0.364333469474 1.23621930381 0.468146302459 1.29 0.62 c 0
 1.3138283291 0.685986142128 1.33328904845 0.740213334924 1.34893568164 0.78526879462 c 0
 1.3934887971 0.922418240819 1.40000071048 0.967720638511 1.4 1 c 0
 1.4 1.00443859121 1.39955178029 1.00887718242 1.39909251766 1.01342512854 c 0
 1.39861005343 1.01820283352 1.39811540232 1.02310122156 1.39811540232 1.02824707253 c 0
 1.39402358166 1.04157508272 1.38776551739 1.054468127 1.38 1.07 c 0
 1.35 1.13 1.34 1.16 1.34 1.19 c 0
 1.34 1.21 1.35 1.24 1.36 1.26 c 0
 1.37107853609 1.27994136497 1.38412081558 1.2974280507 1.39869282885 1.31256853334 c 0
 1.49287336599 1.43924719507 1.69247489996 1.42535780385 1.77 1.28 c 2
 1.76980960113 1.2753048979 l 2
 1.77276877498 1.26913738259 1.77543981717 1.26292031714 1.77807108334 1.2567958336 c 0
 1.78072084848 1.25062829221 1.78333027634 1.24455463909 1.78615299761 1.23872002514 c 0
 1.79538432211 1.21537873969 1.79999998436 1.19038147784 1.8 1.17 c 0
 1.8 1.08 1.75 1.01 1.67 0.98 c 0
 1.62862933759 0.962269716111 1.59773744074 0.937553588515 1.56081118218 0.872821083223 c 0
 1.5343239565 0.818267881834 1.50063863079 0.733507188043 1.45 0.6 c 0
 1.41561726513 0.506675433938 1.38364712712 0.413350867876 1.3600146253 0.338986705914 c 0
 1.33779676312 0.247744079795 1.3300000805 0.176273135398 1.33 0.11 c 2
 1.33 0.11 1.33 0.1 1.33 0.09 c 0
 1.33 0.07 1.33 0.07 1.33 0.06 c 2
 1.33 0.06 1.33 0.06 1.33 0.05 c 0
 1.33 0.04 1.33 0.04 1.33 0.04 c 2
 1.33 0.0305467998133 1.32785525247 0.0214510516016 1.32577886688 0.0126452223236 c 0
 1.32383075847 0.00438340906368 1.32194282623 -0.00362320059131 1.32194282623 -0.0114303806229 c 0
 1.31239501344 -0.0482011153095 1.29277376139 -0.0719086708013 1.26 -0.1 c 0
 1.17508668188 -0.175478504998 1.06346865414 -0.170842881167 0.983934477768 -0.102890869127 c 0
 0.96928988278 -0.0932153797738 0.954645287791 -0.0822030181852 0.94 -0.07 c 0
 0.91 -0.04 0.9 -0.02 0.9 0.04 c 2
 0.9 0.04 0.9 0.05 0.9 0.06 c 0
 0.9 0.07 0.9 0.07 0.9 0.08 c 0
 0.9 0.1 0.9 0.11 0.9 0.13 c 0
 0.9 0.164711093473 0.894733895122 0.19585751236 0.889330227161 0.227817549193 c 0
 0.883636673591 0.261492116746 0.877790401603 0.296069938586 0.877790401603 0.336672418798 c 0
 0.858218097519 0.403794171556 0.827499950907 0.490452767767 0.78 0.62 c 0
 0.746415838396 0.710677236332 0.719599052255 0.779924450361 0.697656218704 0.831908620204 c 0
 0.65216519295 0.93598395214 0.626082321949 0.969999760122 0.6 0.97 c 0
 0.566432241437 0.97 0.520344544931 1.0138197828 0.486250716863 1.06818710559 c 0
 0.459353462638 1.10746604756 0.440001725108 1.1522521037 0.44 1.19 c 2
 0.440081872103 1.19546878721 l 1x00
0.76033152854 1.21917253345 m 0
 0.736650832902 1.25756823719 0.694586650516 1.27999862436 0.66 1.28 c 0
 0.651890776466 1.28 0.644146883522 1.27785469668 0.636817748809 1.27582429451 c 0
 0.630233790934 1.2740003299 0.623984539209 1.27226908949 0.618105825785 1.27226908949 c 0
 0.585058533107 1.25473084608 0.559999645304 1.2190481273 0.56 1.17 c 0
 0.56 1.11 0.6 1.07 0.65 1.07 c 0
 0.657775680478 1.07 0.665173478413 1.07141584516 0.672266858959 1.07277342868 c 0
 0.678799531114 1.07402369968 0.685074010151 1.07522455578 0.691147680516 1.07522455578 c 0
 0.707595381514 1.0826737952 0.724188300719 1.0941884252 0.74 1.11 c 0
 0.768908904076 1.13890890408 0.766537080869 1.15737124897 0.763082415089 1.18426247379 c 0
 0.761783509988 1.1943731911 0.76033152854 1.20567545941 0.76033152854 1.21917253345 c 0
1.67684360064 1.21068999897 m 0
 1.67310426999 1.22379386458 1.66655233718 1.23689773019 1.66 1.25 c 0
 1.64 1.27 1.6 1.28 1.57 1.28 c 0
 1.5470254309 1.28 1.52620527333 1.2735367654 1.50930648711 1.26237833245 c 0
 1.48456780845 1.24513255791 1.47000077864 1.21620788752 1.47 1.18 c 0
 1.47 1.17 1.47 1.17 1.47 1.16 c 0
 1.47477047365 1.13614763173 1.48864391487 1.11457100534 1.5072749615 1.09852559904 c 0
 1.53821379613 1.07504499791 1.58119954696 1.067067009 1.62 1.08 c 0
 1.65889033862 1.09555613545 1.68568100974 1.15951094092 1.67684360064 1.21068999897 c 0
1.13782123751 -0.0366858346251 m 0
 1.13953132064 -0.0366858346251 1.1413299654 -0.0351964737618 1.14322941185 -0.033623644447 c 0
 1.14535440025 -0.0318640559941 1.14760555014 -0.03 1.15 -0.03 c 0
 1.19 0 1.21 0.03 1.21 0.07 c 0
 1.21 0.101326675165 1.19159948918 0.138786853937 1.16440274475 0.163165138774 c 0
 1.09942711248 0.199425445954 1.08863803382 0.188636367299 1.04 0.14 c 0
 1.03096433587 0.129157203041 1.02356153626 0.118314406082 1.01791018065 0.107586768084 c 0
 1.0122746201 0.0908972698559 1.01 0.0743124877839 1.01 0.06 c 0
 1.01 0.035078459294 1.02380184869 0.010156918588 1.05140604421 -0.0147638564818 c 2
 1.06 -0.02 l 2
 1.09016672634 -0.0426250447529 1.10895806045 -0.0481870011701 1.13782123751 -0.0366858346251 c 0
EndSplineSet
Validated: 33
EndChar

StartChar: K
Encoding: 75 75 28
Width: 2
Flags: W
HStem: -19.2 20G<0.605 0.621311 0.64851 0.675 1.85 1.95> -19.2 20G<0.605 0.621311 0.64851 0.675 1.85 1.95> -18.71 19.51G<0.605 0.621311 0.64851 0.675 1.06 1.46 1.85 1.95> -18.71 19.51G<0.605 0.621311 0.64851 0.675 1.06 1.46 1.85 1.95> 0.4 21G<0.61 0.638437 0.64893 0.674046 1.24996 1.27389 1.85 1.95> 0.4 21G<0.61 0.638437 0.64893 0.674046 1.85 1.95> 0.4 21G<0.61 0.638437 0.64893 0.674046 1.85 1.95> 0.4 21G<0.61 0.638437 0.64893 0.674046 1.24996 1.27389 1.85 1.95>
LayerCount: 2
Back
Fore
SplineSet
1.15418489343 1.15947688832 m 1x08
 1.15 1.16 l 2
 1.08 1.17 1.07 1.18 1.06 1.23 c 0
 1.06 1.24 1.06 1.24 1.06 1.25 c 0
 1.06 1.27 1.06 1.28 1.06 1.29 c 1
 1.26 1.29 l 1
 1.46 1.29 l 1
 1.46 1.22 l 2
 1.46 1.16 1.45 1.15 1.4 1.15 c 2
 1.34 1.15 l 1
 1.34 0.91 l 1
 1.34 0.66 l 1
 1.42 0.66 1.5 0.66 1.58 0.66 c 2
 1.81 0.66 l 1
 1.81 0.73 l 2
 1.81 0.79 1.82 0.8 1.88 0.8 c 2
 1.95 0.8 l 1
 1.95 0.73 1.95 0.67 1.95 0.6 c 2
 1.95 0.4 l 1
 1.88 0.4 l 2
 1.82 0.4 1.81 0.41 1.81 0.47 c 2
 1.81 0.54 l 1
 1.58 0.54 l 2
 1.5 0.54 1.42 0.54 1.34 0.54 c 1
 1.34 0.45 1.34 0.37 1.34 0.28 c 2
 1.34 0.02 l 2
 1.36 0.02 1.38 0.02 1.4 0.02 c 0
 1.45 0.02 1.46 0.01 1.46 -0.04 c 0
 1.46 -0.0420486671692 1.45998381893 -0.0440157252822 1.45996828293 -0.0459043655893 c 0
 1.45995393814 -0.0476481955586 1.4599401433 -0.049325171981 1.4599401433 -0.0509378068903 c 2
 1.46 -0.06 l 2
 1.46 -0.09 1.46 -0.09 1.46 -0.09 c 1
 1.45109910636 -0.09 1.44239614727 -0.0900142323819 1.43388673689 -0.0900281482441 c 0
 1.42574758087 -0.0900414586108 1.41778549692 -0.0900544794028 1.40999664717 -0.0900544794028 c 0
 1.40215012144 -0.0900544794028 1.39307231662 -0.0901073183023 1.38257002716 -0.0901684486557 c 0
 1.36815823184 -0.0902523349498 1.35106402149 -0.0903518346946 1.33078814171 -0.0903518346946 c 0
 1.31919585043 -0.0903518346946 1.30809939874 -0.0904505937911 1.29747759702 -0.0905451284739 c 0
 1.28772721413 -0.0906319074761 1.27837679479 -0.0907151267782 1.26940994847 -0.0907151267782 c 0
 1.23050687271 -0.0907151267782 1.1988237847 -0.0906497931977 1.17302246337 -0.0905965883868 c 0
 1.15530089388 -0.0905600448028 1.1403541025 -0.0905292230787 1.12774846998 -0.0905292230787 c 0
 1.11415412611 -0.0905292230787 1.10328755194 -0.0890061755887 1.09460179806 -0.0877887895527 c 0
 1.08881962286 -0.0869783660213 1.08400391534 -0.086303401572 1.07999331458 -0.086303401572 c 0
 1.0612448616 -0.0820040697013 1.06 -0.0741151036652 1.06 -0.06 c 2
 1.06007195853 -0.0515628421686 l 2
 1.06007195853 -0.0498719649348 1.0600554641 -0.0481092164425 1.06003826934 -0.0462716239313 c 0
 1.0600195497 -0.0442710686333 1.06 -0.0421818059464 1.06 -0.04 c 0
 1.06 -0.000444101513202 1.07251735284 0.014077091292 1.10745449906 0.0233691631991 c 0
 1.11160214557 0.0233691631991 1.1161025361 0.0247576942463 1.12098448757 0.0262639504523 c 0
 1.12677094934 0.0280492803595 1.13309345846 0.03 1.14 0.03 c 0
 1.15085223075 0.03 1.16170446149 0.0323254780173 1.17255669224 0.0346509560346 c 0
 1.18340892299 0.0369764340518 1.19426115374 0.0393019120691 1.20511338448 0.0393019120691 c 2
 1.21 0.04 l 1
 1.21 0.28 l 2
 1.21 0.36 1.21 0.45 1.21 0.53 c 1
 1.13 0.53 1.04 0.53 0.96 0.53 c 0
 0.88 0.53 0.8 0.53 0.72 0.53 c 2
 0.719476888322 0.526338218252 l 2
 0.719476888322 0.515281848543 0.717107666241 0.504225478834 0.714738444161 0.493169109126 c 0
 0.71236922208 0.482112739417 0.71 0.471056369709 0.71 0.46 c 0
 0.709629629703 0.458148148516 0.709272976823 0.456351166696 0.708926993043 0.454607530381 c 0
 0.708916407149 0.454554181202 0.708905831242 0.454500881962 0.708895265235 0.454447632617 c 0
 0.699927151664 0.409251165 0.698091488331 0.4 0.65 0.4 c 0
 0.64786013267 0.4 0.645796582544 0.400018817354 0.643806615069 0.400036963713 c 0
 0.641953678935 0.400053860495 0.640164540406 0.40007017551 0.638436991836 0.40007017551 c 2
 0.63 0.4 l 2
 0.59 0.4 0.59 0.41 0.59 0.6 c 0
 0.59 0.79 0.59 0.8 0.62 0.8 c 0
 0.622621490353 0.8 0.625172856096 0.799954592714 0.627655658736 0.799910405662 c 0
 0.630008512308 0.799868531345 0.632299792092 0.799827752873 0.634530827016 0.799827752873 c 0
 0.636741936719 0.799827752873 0.63906283593 0.799866644876 0.641498964845 0.799907467818 c 0
 0.64418963272 0.799952556145 0.647020867828 0.8 0.65 0.8 c 0
 0.7 0.8 0.71 0.79 0.71 0.73 c 2
 0.71 0.66 l 1
 0.83 0.66 l 1
 0.96 0.66 l 2
 0.961844220159 0.66 0.963688440319 0.66011065321 0.965532660478 0.660221306419 c 0
 0.967376880637 0.660331959629 0.969221100796 0.660442612838 0.971065320956 0.660442612838 c 0
 0.974787115492 0.660442612838 0.978468071787 0.661158383598 0.982242829167 0.661892394203 c 0
 0.986214999994 0.662664792325 0.990291039739 0.663457388007 0.994627835978 0.663457388007 c 0
 1.01365246267 0.666347537331 1.03769507466 0.67 1.08 0.67 c 0
 1.15 0.67 1.18 0.67 1.21 0.67 c 1
 1.21 0.71 1.2125 0.75 1.215 0.79 c 0
 1.215 0.81 1.21625 0.83 1.2175 0.85 c 0
 1.21875 0.87 1.22 0.89 1.22 0.91 c 0
 1.22 0.94 1.22 0.97 1.22 1.03 c 0
 1.22 1.06514718626 1.22343145751 1.09 1.22627416998 1.11058874503 c 0
 1.22627416998 1.11560073402 1.22713157167 1.12036003498 1.22795912277 1.12495364004 c 0
 1.22873098984 1.12923815188 1.22947688832 1.13337851619 1.22947688832 1.13744531971 c 0
 1.22947688832 1.13953776642 1.22960766624 1.14163021314 1.22973844416 1.14372265985 c 0
 1.22986922208 1.14581510657 1.23 1.14790755328 1.23 1.15 c 1
 1.22 1.15 1.21 1.15 1.19 1.15 c 0
 1.17828427125 1.15 1.17 1.15343145751 1.16313708499 1.15627416998 c 2
 1.15418489343 1.15947688832 l 1x08
EndSplineSet
Validated: 1
EndChar

StartChar: L
Encoding: 76 76 29
Width: 2
Flags: W
HStem: -19.64 20.53G<0.71723 0.755 0.81 1.17 1.26887 1.27875> -19.64 20.53G<0.71723 0.755 0.81 1.17 1.26887 1.27875> -19.64 20.53G<0.71723 0.755 0.81 1.17 1.26887 1.27875> -19.64 20.53G<0.71723 0.755 1.26887 1.27875> 0.71 21G<0.715 0.725 1.25304 1.265> 0.71 21G<0.715 0.725 1.25304 1.265> 0.71 20.44G<0.715 0.725 0.727613 0.73494 0.9 1.08 1.25304 1.265 1.27 1.29061> 0.71 20.44G<0.715 0.725 0.727613 0.73494 0.9 1.08 1.25304 1.265 1.27 1.29061>
LayerCount: 2
Back
Fore
SplineSet
1.17546552592 0.271562758757 m 0x00
 1.17970677605 0.291396276739 1.19139006551 0.311391297071 1.21 0.33 c 0
 1.22522959131 0.345229591306 1.24110346164 0.354016392297 1.25647416783 0.357178493238 c 0
 1.25872926005 0.357178493238 1.26098435226 0.357884080974 1.26323910715 0.358589563164 c 0
 1.26549318757 0.359294834324 1.26774693087 0.36 1.27 0.36 c 0
 1.28750727991 0.36 1.30309890451 0.352337378752 1.31593814214 0.338691207046 c 0
 1.33348936955 0.321705484395 1.34616107595 0.2945326957 1.35 0.26 c 0
 1.35394484054 0.224496435153 1.34699644426 0.196773753743 1.33222487913 0.179286076275 c 0
 1.31961960833 0.161255300564 1.3012162216 0.150001427048 1.28 0.15 c 0
 1.26 0.15 1.24 0.16 1.22 0.17 c 0
 1.19 0.19 1.17 0.22 1.17 0.25 c 0
 1.17 0.253036018373 1.17123551187 0.256302471936 1.17253168026 0.259729289553 c 0
 1.17396168821 0.263509952974 1.17546552592 0.267485807974 1.17546552592 0.271562758757 c 0x00
1.21 0.75 m 0
 1.18 0.77 1.17 0.79 1.17 0.8 c 0
 1.17 0.81 1.17 0.82 1.18 0.83 c 0
 1.1876311086 0.845262217209 1.19671806267 0.857612743492 1.2072638369 0.867050867526 c 0
 1.25676385117 0.922044002664 1.34999702531 0.889330650528 1.35 0.81 c 2
 1.34992632354 0.804218898355 l 1
 1.35 0.8 l 2
 1.35 0.76 1.34 0.74 1.29 0.72 c 0
 1.28 0.71 1.27 0.71 1.26 0.71 c 0x08
 1.24607719044 0.71 1.24184661218 0.714846115652 1.2304403789 0.727911924221 c 0
 1.22546165305 0.733615040864 1.21911578566 0.740884214341 1.21 0.75 c 0
0.632031250751 0.797500034255 m 0
 0.624073736459 0.822466835305 0.627776772227 0.847776757424 0.65 0.87 c 0
 0.65624978212 0.87624978212 0.674217497205 0.88249956424 0.691694291263 0.886308632758 c 0
 0.695714209504 0.886308632758 0.699913050967 0.887135494015 0.704336236949 0.888006534551 c 0
 0.709258765385 0.888975908623 0.71445915094 0.89 0.72 0.89 c 0
 0.74922462312 0.89 0.775032931854 0.879751056842 0.791434526932 0.861249999298 c 0
 0.827058162665 0.823159080748 0.822039022052 0.757572893594 0.76 0.73 c 0
 0.758087282486 0.73 0.756220296076 0.728672458832 0.754395575235 0.727374971059 c 0
 0.752651642959 0.726134928883 0.750946316529 0.724922337817 0.749276570637 0.724922337817 c 2
 0.74 0.72 l 2
 0.73 0.71 0.73 0.71 0.72 0.71 c 0
 0.71 0.71 0.69 0.72 0.67 0.73 c 0
 0.647499994751 0.752500005249 0.636249994751 0.775000010499 0.632031250751 0.797500034255 c 0
0.884886615524 1.01930191207 m 1
 0.88 1.02 l 2
 0.83 1.02 0.81 1.03 0.81 1.08 c 0
 0.81 1.09 0.81 1.1 0.81 1.11 c 0
 0.81 1.12 0.81 1.13 0.81 1.14 c 1
 0.99 1.14 l 1
 1.17 1.14 l 1
 1.17 1.08 l 1
 1.17 1.07 l 2
 1.17 1.02 1.16 1.01 1.11 1.01 c 0
 1.09 1.01 1.07 1.01 1.05 1.01 c 1
 1.05 0.52 l 2
 1.05 0.35 1.05 0.19 1.05 0.02 c 0
 1.07 0.02 1.09 0.02 1.11 0.02 c 0
 1.16 0.02 1.17 0.01 1.17 -0.03 c 0
 1.17 -0.0320559983521 1.169976131 -0.0340274541198 1.16995324351 -0.0359178418335 c 0
 1.16993216399 -0.0376589011433 1.16991191704 -0.0393311942402 1.16991191704 -0.0409374355889 c 2
 1.17 -0.05 l 2
 1.17 -0.08 1.17 -0.08 0.99 -0.08 c 0
 0.81 -0.08 0.81 -0.08 0.81 -0.05 c 0
 0.81 -0.0477243952626 0.810006156732 -0.0455207124269 0.810012313464 -0.0433862257076 c 0
 0.810012513009 -0.0433170452483 0.810012712554 -0.0432479374768 0.810012911889 -0.0431789023003 c 0
 0.810018862819 -0.0411179332995 0.810024626929 -0.0391216649865 0.810024626929 -0.0371876281135 c 2
 0.81 -0.03 l 2
 0.81 0.01 0.82 0.03 0.87 0.03 c 0
 0.88 0.03 0.89 0.03 0.91 0.03 c 0
 0.93 0.03 0.93 0.03 0.94 0.03 c 1
 0.94 0.09 0.94 0.15 0.94 0.28 c 0
 0.94 0.41 0.94 0.46 0.94 0.52 c 0
 0.94 0.525698590407 0.940176863457 0.531463454146 0.940356753286 0.537326962465 c 0
 0.940542906606 0.543394629257 0.940732300714 0.549567929528 0.940732300714 0.555882734982 c 0
 0.940732300714 0.631568945819 0.943049225535 0.707255156655 0.945366150357 0.782941367491 c 0
 0.947683075178 0.858627578327 0.95 0.934313789164 0.95 1.01 c 1
 0.94 1.01 0.94 1.01 0.92 1.01 c 0
 0.908284271247 1.01 0.9 1.01343145751 0.89313708499 1.01627416998 c 2
 0.884886615524 1.01930191207 l 1
0.67 0.34 m 0
 0.69 0.35 0.71 0.36 0.73 0.36 c 0
 0.78 0.36 0.81 0.31 0.81 0.25 c 2
 0.809926185901 0.245468929437 l 1
 0.81 0.24 l 2
 0.81 0.196439167725 0.789245589438 0.167702914422 0.759037781677 0.15702003636 c 0
 0.749760384855 0.152440518944 0.73988018198 0.15 0.73 0.15 c 0
 0.725226391107 0.15 0.72102246576 0.151455073993 0.717116256221 0.152807101787 c 0
 0.713726720618 0.153980297002 0.710561351779 0.155075903012 0.707442456269 0.155075903012 c 0
 0.696006268169 0.155075903012 0.684210309551 0.161846108601 0.672391496269 0.16862943146 c 0
 0.67159440035 0.169086918928 0.670797200475 0.169544466061 0.67 0.17 c 0
 0.627205364388 0.198529757075 0.614933742729 0.247408190118 0.63318427057 0.287610184951 c 0
 0.63812662849 0.307643224649 0.649304349423 0.326200298384 0.67 0.34 c 0
EndSplineSet
Validated: 33
EndChar

StartChar: M
Encoding: 77 77 30
Width: 2
Flags: W
HStem: -19.5103 20.4303G<0.63 0.657812 0.668865 0.694726 0.99524 0.997929 1.635 1.67232 1.935 1.96168 1.98885 2.01> -19.5103 20.4303G<0.63 0.657812 0.668865 0.694726 0.99524 0.997929 1.1 1.54 1.635 1.67232 1.935 1.96168 1.98885 2.01> -19.5103 20.4303G<0.63 0.657812 0.668865 0.694726 0.99524 0.997929 1.1 1.54 1.635 1.67232 1.935 1.96168 1.98885 2.01> -19.5103 20.4303G<0.63 0.657812 0.668865 0.694726 0.99524 0.997929 1.645 1.65811 1.935 1.96168 1.98885 2.01> 0.5 21.43G<0.63 0.657812 0.668865 0.695 0.943346 0.959199 1.215 1.54 1.935 1.96168 1.98885 2.006> 0.5 21.43G<0.63 0.657812 0.668865 0.695 0.943346 0.959199 1.935 1.96168 1.98885 2.006> 0.5 21.43G<0.63 0.657812 0.668865 0.695 0.943346 0.959199 1.935 1.96168 1.98885 2.006> 0.5 21.43G<0.63 0.657812 0.668865 0.695 0.943346 0.959199 1.215 1.54 1.935 1.96168 1.98885 2.006>
LayerCount: 2
Back
Fore
SplineSet
0.95314065048 0.273144521004 m 0x00
 0.91609447119 0.282263396286 0.888130730621 0.311215217584 0.88 0.36 c 0
 0.88 0.37 0.88 0.37 0.88 0.38 c 0
 0.88 0.41 0.89 0.44 0.93 0.47 c 0
 0.943478706131 0.483478706131 0.961499300236 0.487873636314 0.974879585134 0.489306616921 c 0
 0.978849368027 0.489306616921 0.982593181517 0.489417120421 0.986284679657 0.489526079766 c 0
 0.989874430978 0.489632035921 0.993414711086 0.48973653187 0.997065207162 0.48973653187 c 0
 0.998792118277 0.48973653187 1.00044800549 0.488427200616 1.00254531949 0.486768827548 c 0
 1.00616727856 0.483904898068 1.01110573151 0.48 1.02 0.48 c 0
 1.03025114969 0.472311637736 1.03984551144 0.463966487534 1.04844574208 0.455129269481 c 0
 1.07276197311 0.432876713454 1.08651769921 0.407822661631 1.0889910816 0.382847651782 c 0
 1.0889910816 0.380712077446 1.08924294242 0.378573430852 1.08949498743 0.376433220265 c 0
 1.08974740135 0.374289877117 1.09 0.372144965395 1.09 0.37 c 0
 1.09 0.353346122819 1.08383663055 0.339773930362 1.07493057288 0.327573507147 c 0
 1.068686202 0.317920591396 1.06039359586 0.308659857596 1.05 0.3 c 0
 1.01937801657 0.269378016569 0.983546556086 0.262198679869 0.95314065048 0.273144521004 c 0x00
1.54445929508 1.02608445466 m 0
 1.54445929508 1.02840404005 1.54334433623 1.03072362544 1.54222944493 1.03304307032 c 0
 1.5411146887 1.03536223419 1.54 1.03768125757 1.54 1.04 c 0
 1.54 1.07 1.55 1.09 1.56 1.1 c 0
 1.58 1.12 1.62 1.14 1.65 1.14 c 0
 1.69464620211 1.14 1.72821860776 1.11785240708 1.74247982856 1.08179832836 c 0
 1.7545774543 1.05781937296 1.75825740069 1.02890915754 1.75 1 c 0
 1.75 0.987433954077 1.74244709347 0.976131152236 1.73551710857 0.966250001726 c 0
 1.70974875285 0.924747227657 1.66360984947 0.909744329674 1.6231140251 0.921240583369 c 0
 1.58319044848 0.927369625152 1.55881949088 0.955908698975 1.55 1 c 0
 1.55 1.00363396037 1.54875530075 1.00756138002 1.54744579933 1.011693271 c 0
 1.54599245734 1.01627902445 1.54445929508 1.0211166361 1.54445929508 1.02608445466 c 0
0.916718763099 0.951790741799 m 0
 0.880526874188 0.989558905236 0.868347196263 1.06043311202 0.9 1.1 c 0
 0.9 1.10277478462 0.903612476746 1.10537672489 0.906990157601 1.10780954993 c 0
 0.908220424804 1.10869566824 0.909419542429 1.1095593506 0.910401603595 1.11040077721 c 0
 0.930268015032 1.1301336061 0.950200548557 1.14000002055 0.98 1.14 c 0
 1.00283445041 1.14 1.02566890083 1.13275816492 1.04519581327 1.12103028586 c 0
 1.07677799988 1.10501619377 1.10000027149 1.07665506325 1.1 1.04 c 0
 1.1 0.990163950085 1.05860613548 0.94722687759 1.01020094852 0.934108690148 c 2
 1.01020094852 0.934108690148 0.968398803491 0.93 0.95 0.93 c 0
 0.936692520768 0.93 0.92559865408 0.941080964704 0.916718763099 0.951790741799 c 0
1.17 1.28 m 2
 1.1 1.28 1.1 1.29 1.1 1.36 c 0
 1.1 1.38 1.1 1.41 1.1 1.43 c 1
 1.32 1.43 l 1
 1.54 1.43 l 1
 1.54 1.42 1.54 1.42 1.54 1.4 c 0
 1.54 1.38828427125 1.53656854249 1.38 1.53372583002 1.37313708499 c 2
 1.53069808793 1.36488661552 l 1
 1.53 1.36 l 2
 1.52 1.31 1.51 1.3 1.46 1.29 c 2
 1.45511338449 1.28930191207 l 1
 1.44686291501 1.28627416998 l 2
 1.44 1.28343145751 1.43171572875 1.28 1.42 1.28 c 0
 1.4 1.28 1.4 1.28 1.39 1.28 c 1
 1.39 1.2 1.39 1.11 1.39 1.03 c 0
 1.39 0.94 1.39 0.86 1.39 0.77 c 1
 1.65 0.77 l 1
 1.9 0.77 l 1
 1.9 0.84 l 2
 1.9 0.9 1.91 0.92 1.96 0.92 c 0
 1.9633534608 0.92 1.96651949328 0.919929967223 1.96950858587 0.919863848364 c 0
 1.97218125962 0.919804728704 1.97471247166 0.919748738183 1.97710971972 0.919748738183 c 0
 1.97910906549 0.919748738183 1.98115577632 0.91980862369 1.98325079026 0.919869922516 c 0
 1.98544708051 0.919934184625 1.98769645683 0.92 1.99 0.92 c 0
 2.03 0.92 2.02 0.92 2.02 0.71 c 0
 2.02 0.668 2.0204 0.6344 2.02072 0.60752 c 0
 2.022 0.5 2.022 0.5 1.99 0.5 c 0
 1.98769645526 0.5 1.98544705662 0.500065817847 1.9832507488 0.500130082246 c 0
 1.98115572596 0.500191383027 1.97910901016 0.500251270334 1.97710968551 0.500251270334 c 0
 1.97471246215 0.500251270334 1.97218125297 0.500195278017 1.96950858008 0.500136156412 c 0
 1.96651948331 0.500070035264 1.96335344353 0.5 1.96 0.5 c 0
 1.91 0.5 1.9 0.52 1.9 0.58 c 2
 1.9 0.65 l 1
 1.65 0.65 l 1
 1.39 0.65 l 1
 1.39 0.56 1.39 0.47 1.39 0.38 c 0
 1.39 0.29 1.39 0.2 1.39 0.11 c 1
 1.41 0.11 1.44 0.11 1.46 0.11 c 0
 1.52 0.11 1.54 0.1 1.54 0.05 c 0
 1.54 0.0447675068988 1.5397323953 0.0399913301984 1.53948812937 0.0356317011722 c 0
 1.53928305228 0.0319715097436 1.53909442597 0.0286049299371 1.53909442597 0.0255084272794 c 0
 1.53909442597 0.0205651140789 1.5392953754 0.015335524459 1.53950795352 0.00980330490111 c 0
 1.53974664612 0.00359147139473 1.54 -0.00300191319187 1.54 -0.01 c 1
 1.54 -0.01 1.5 -0.01 1.32 -0.01 c 0
 1.11 -0.01 1.1 -0.01 1.1 0.02 c 0
 1.1 0.0228236541158 1.10004051207 0.0255601032973 1.10007977208 0.028211980943 c 0
 1.10011667814 0.030704857016 1.1001524778 0.0331229990196 1.1001524778 0.0354685945049 c 0
 1.1001524778 0.0375686860924 1.1001177982 0.0397657762381 1.1000815169 0.042064341248 c 0
 1.10004172194 0.0445855106397 1.1 0.0472287612758 1.1 0.05 c 0
 1.1 0.1 1.11 0.11 1.17 0.11 c 0
 1.19 0.11 1.22 0.11 1.24 0.11 c 1
 1.24 0.2 1.24 0.29 1.24 0.38 c 0
 1.24 0.47 1.24 0.56 1.24 0.65 c 1
 1.15 0.65 1.08 0.65 0.99 0.65 c 0
 0.9 0.65 0.82 0.65 0.73 0.65 c 1
 0.73 0.63 0.73 0.6 0.73 0.58 c 0
 0.73 0.52 0.72 0.5 0.67 0.5 c 0
 0.667730443179 0.5 0.665546734494 0.500023049155 0.66344561241 0.500045226605 c 0
 0.661497625296 0.500065787707 0.659620625239 0.500085599537 0.65781201312 0.500085599537 c 2
 0.65 0.5 l 2x08
 0.61 0.5 0.61 0.5 0.61 0.71 c 0
 0.61 0.92 0.61 0.92 0.65 0.92 c 2
 0.657812150004 0.919914395878 l 2
 0.659620717596 0.919914395878 0.661497697152 0.919934208699 0.663445666196 0.919954770863 c 0
 0.66554677598 0.919976949534 0.667730475758 0.92 0.67 0.92 c 0
 0.719451476967 0.92 0.729775776747 0.900436411406 0.729996337838 0.841959957568 c 2
 0.73 0.84 l 1
 0.73 0.77 l 1
 0.99 0.77 l 1
 1.24 0.77 l 1
 1.24 0.86 1.24 0.94 1.24 1.03 c 0
 1.24 1.12 1.24 1.19 1.24 1.28 c 1
 1.17 1.28 l 2
1.6 0.47 m 0
 1.62 0.48 1.64 0.49 1.65 0.49 c 2
 1.65810912797 0.488090128171 l 2
 1.67100685054 0.488090128171 1.68387981625 0.482091486126 1.7 0.47 c 0
 1.77 0.43 1.77 0.36 1.72 0.3 c 0
 1.69108130298 0.265297563576 1.66885293426 0.254011276197 1.64364133302 0.26033689308 c 0
 1.625760816 0.26033689308 1.60788029898 0.272119460452 1.59 0.29 c 0
 1.56615480005 0.307883899965 1.55297072936 0.32576779993 1.54621094159 0.343652124102 c 0
 1.52713515868 0.380097941952 1.53493203794 0.413329754449 1.57242174413 0.446163254076 c 0
 1.58021050908 0.454109688405 1.58940251444 0.462056122734 1.6 0.47 c 0
EndSplineSet
Validated: 33
EndChar

StartChar: N
Encoding: 78 78 31
Width: 2
Flags: W
HStem: -18.5 20G<1.055 1.07> -18.5 20G<1.055 1.07> -0.06 21G<0.99 1.14> -0.06 21G<0.99 1.14>
VStem: 0.78 0.57<0.252656 0.407344>
LayerCount: 2
Back
Fore
SplineSet
0.512200358311 0.72715052467 m 2x28
 0.719419953256 1.03057921727 l 2
 0.732610007298 1.05218817358 0.744875269432 1.07109408679 0.76 1.09 c 0
 0.92 1.32 1.05 1.5 1.06 1.5 c 0x88
 1.08 1.5 1.64 0.71 1.64 0.68 c 0
 1.64 0.67 1.53 0.66 1.39 0.66 c 0
 1.31 0.66 1.22 0.66 1.14 0.66 c 1
 1.14 0.54 l 1
 1.14 0.41 l 1
 1.17 0.41 1.22 0.41 1.25 0.41 c 0
 1.35 0.41 1.35 0.4 1.35 0.33 c 0
 1.35 0.26 1.35 0.25 1.25 0.25 c 0
 1.22 0.25 1.17 0.25 1.14 0.25 c 1
 1.14 0.09 l 1
 1.14 -0.06 l 1
 1.06 -0.06 l 1
 0.99 -0.06 l 1
 0.99 0.09 l 1
 0.99 0.25 l 1
 0.88 0.25 l 2
 0.78 0.25 0.78 0.26 0.78 0.33 c 0
 0.78 0.4 0.78 0.41 0.88 0.41 c 0
 0.91 0.41 0.96 0.41 0.99 0.41 c 1
 0.99 0.53 l 1
 0.99 0.66 l 1
 0.988105775789 0.66 0.986211551578 0.660109479942 0.984307258273 0.660219541844 c 0
 0.982382611541 0.660330780107 0.980447679325 0.660442612838 0.978492066206 0.660442612838 c 0
 0.937076721838 0.660442612838 0.895661377471 0.662831959629 0.854246033103 0.665221306419 c 0
 0.812830688735 0.66761065321 0.771415344368 0.67 0.73 0.67 c 0
 0.7 0.67 0.67 0.67 0.6 0.67 c 0
 0.557695074662 0.67 0.533652462669 0.673652462669 0.514627835978 0.676542611993 c 0
 0.510291039739 0.676542611993 0.506214999994 0.677335207675 0.502242829167 0.678107605797 c 0
 0.498468071787 0.678841616402 0.494787115492 0.679557387162 0.491065320956 0.679557387162 c 0
 0.489221100796 0.679557387162 0.487376880637 0.679668040371 0.485532660478 0.679778693581 c 0
 0.483688440319 0.67988934679 0.481844220159 0.68 0.48 0.68 c 1
 0.491075560107 0.69661334016 0.501384445015 0.711693329924 0.512200358311 0.72715052467 c 2x28
1.07794032853 0.770000319655 m 0
 1.25935689909 0.770000319655 1.4 0.78 1.4 0.78 c 2
 1.4 0.7875 1.349375 0.8625 1.29875 0.9375 c 0
 1.281875 0.9625 1.265 0.9875 1.25 1.01 c 0
 1.15 1.15 1.07 1.26 1.06 1.26 c 0
 1.0410199687 1.26 0.760864786021 0.854728213375 0.732336465762 0.787752686074 c 0
 0.75133262179 0.778587402227 0.884805991271 0.77005939198 1.07794032853 0.770000319655 c 0
EndSplineSet
Validated: 1
EndChar

StartChar: O
Encoding: 79 79 32
Width: 2
Flags: W
HStem: -18.66 20G<0.92 0.92> -18.66 20G<0.92 0.92> -0.06 21G<0.37 0.67 1.15 1.37> -0.06 21G<0.37 0.67 1.15 1.37>
LayerCount: 2
Back
Fore
SplineSet
0.411352200319 0.630385823531 m 2x20
 0.601958259522 0.901632907782 l 2
 0.619522975636 0.928317637491 0.633191992781 0.947589323708 0.65 0.97 c 0
 0.705310495932 1.05603854923 0.771951550976 1.14585395149 0.829033095609 1.21855632775 c 0
 0.883281700157 1.29196000196 0.919313201684 1.33910143263 0.919990289589 1.33998729337 c 0
 0.919996759236 1.33999575786 0.920000001023 1.33999999922 0.92 1.34 c 1
 0.92 1.34 0.956821228536 1.27974708058 1.01497043878 1.19022830185 c 0
 1.06362183131 1.11843681077 1.12246071791 1.03130846247 1.17 0.96 c 2
 1.3 0.78 l 2
 1.37 0.69 1.4 0.65 1.43 0.6 c 1
 1.39543509626 0.6 1.36087019251 0.597643302018 1.32630528877 0.595286604035 c 0
 1.29174038503 0.592929906053 1.25717548129 0.59057320807 1.22261057754 0.59057320807 c 0
 1.22059590989 0.59057320807 1.21856727308 0.590434433164 1.21650633539 0.59029344862 c 0
 1.21437870538 0.59014790179 1.21221665012 0.59 1.21 0.59 c 0
 1.07127610976 0.59 1.00128192568 0.5703629411 1.00001748931 0.550546886387 c 0
 1.03670061901 0.490446202176 1.15892679194 0.341034666306 1.25936937282 0.226411882982 c 0
 1.32252894323 0.157313240879 1.37992964083 0.0987751000623 1.40780597153 0.0776659758217 c 0
 1.44132337015 0.065841969193 1.44999996874 0.0372592632519 1.45 0 c 0
 1.45 -0.00188525341715 1.44996402075 -0.00371127049353 1.44992917224 -0.00547990009787 c 0
 1.44989644741 -0.00714074915974 1.44986471971 -0.00875099203125 1.44986471971 -0.0103121597502 c 2
 1.45 -0.02 l 2
 1.45 -0.06 1.44 -0.06 1.3 -0.06 c 0
 1.25 -0.06 1.2 -0.06 1.15 -0.06 c 1x20
 1.15 0.01 l 2
 1.15 0.0273342811309 1.15428193798 0.0410628346339 1.15756927192 0.0516025342062 c 0
 1.15961731104 0.0581688634447 1.16127930414 0.0634974696524 1.16127930414 0.0676891591497 c 0
 1.16602318108 0.0755099353793 1.17226347681 0.0799991917419 1.18 0.08 c 0
 1.19 0.08 1.19 0.08 1.19 0.09 c 0
 1.19 0.11 1.16 0.15 1.1 0.23 c 0
 1.09221545649 0.240898360912 1.08443091298 0.251796721824 1.0767967801 0.26242897948 c 0
 1.02938395028 0.3206185256 0.988137941677 0.361864534202 0.98 0.37 c 0
 0.970720012972 0.37 0.970003733121 0.31832910446 0.970003733121 0.222978882585 c 0
 0.970003733121 0.133897828314 0.994098007195 0.102716412614 1.00488488172 0.0887566636003 c 0
 1.0079958832 0.0847305854479 1.01 0.0821369734232 1.01 0.08 c 0
 1.04489061481 0.0712773462981 1.05695582333 0.0549462238359 1.059469021 0.0110977996288 c 0
 1.059469021 0.00931861156736 1.05959842427 0.00751544094545 1.0597294666 0.00568943074901 c 0
 1.05986387117 0.00381656938291 1.06 0.00191968138602 1.06 0 c 2
 1.05997419819 -0.00484376414724 l 1
 1.06 -0.01 l 2
 1.06 -0.0155006867576 1.05886641147 -0.0204340443627 1.05785126085 -0.0248519621935 c 0
 1.05702817061 -0.0284340366589 1.05628294221 -0.0316772576995 1.05628294221 -0.0346092838643 c 0
 1.04529072812 -0.0644987540396 1.02750042682 -0.0637668476074 0.974472137437 -0.0615852237311 c 0
 0.957097699061 -0.0608704262137 0.935940425506 -0.06 0.91 -0.06 c 0x10
 0.829029867061 -0.06 0.791544484921 -0.0449327448846 0.774327078621 -0.0380122057746 c 0
 0.769194232842 -0.0359490576246 0.765862709062 -0.034609951129 0.763717368151 -0.034609951129 c 1
 0.763717368151 -0.0316773309828 0.762971990457 -0.0284335897682 0.762148774304 -0.0248511104628 c 0
 0.761133575798 -0.020433160662 0.76 -0.0155000555185 0.76 -0.01 c 2
 0.760025801876 -0.00484376524293 l 1
 0.76 0 l 2
 0.76 0.00736466370859 0.761135100328 0.0143903382201 0.762205292041 0.021014262512 c 0
 0.76315971018 0.0269216092189 0.764062503736 0.0325094268935 0.764062503736 0.0377331990051 c 0
 0.764062503736 0.0406481267727 0.765522137624 0.0433736401108 0.76688819936 0.0459244300791 c 0
 0.768089665627 0.0481678778105 0.769218750134 0.0502761701091 0.769218750134 0.0522593018389 c 0
 0.775495731772 0.0654896287924 0.78536952461 0.0751231445463 0.8 0.08 c 0
 0.839887528865 0.0899718822162 0.84994352725 0.0999437644325 0.849999745503 0.228906249969 c 0
 0.849999745503 0.240211917766 0.849956458677 0.250972548081 0.849915489512 0.261157033473 c 0
 0.849878684525 0.270306349794 0.84984375 0.278990689786 0.84984375 0.2871875 c 0
 0.84984375 0.340625 0.84 0.38 0.84 0.38 c 1
 0.84 0.38 0.803637060205 0.343637060205 0.759217710181 0.289784749364 c 0
 0.749682318466 0.277164116787 0.739842014001 0.263775016903 0.73 0.25 c 0
 0.704866360619 0.216488480825 0.684996886475 0.188241126888 0.670390720225 0.165259596536 c 0
 0.64472283576 0.118330212141 0.64 0.09 0.64 0.09 c 1
 0.66 0.09 0.67 0.05 0.67 0.01 c 0
 0.67 -0.01 0.67 -0.04 0.67 -0.06 c 1
 0.62 -0.06 0.57 -0.06 0.52 -0.06 c 0
 0.47 -0.06 0.42 -0.06 0.37 -0.06 c 1
 0.37 -0.05 0.37 -0.04 0.37 -0.02 c 0
 0.37 0 0.37 0 0.37 0.01 c 0
 0.37 0.05 0.39 0.08 0.41 0.08 c 0
 0.431233673486 0.0853084183714 0.548276986032 0.208969920289 0.653426366466 0.329819059647 c 0
 0.738866171348 0.432479494736 0.817280241943 0.534341153987 0.828604890686 0.564181173044 c 0
 0.820258621003 0.576328641773 0.774885394554 0.584189899784 0.706519523248 0.587763667121 c 0
 0.692485301717 0.587763667121 0.677636378924 0.588278059685 0.662181618175 0.588813439531 c 0
 0.645412102828 0.589394364768 0.627929286325 0.59 0.61 0.59 c 0
 0.575 0.59 0.5375 0.5925 0.5 0.595 c 0
 0.481666666667 0.595 0.463333333333 0.59625 0.445 0.5975 c 0
 0.426666666667 0.59875 0.408333333333 0.6 0.39 0.6 c 1
 0.397044568164 0.610566852246 0.404089136329 0.620513380235 0.411352200319 0.630385823531 c 2x20
1.05 0.93 m 0
 1.03619429464 0.949722436227 1.02277756377 0.969055897963 1.01005666838 0.987386663241 c 0
 0.964329272799 1.05327967857 0.927593211335 1.10621621323 0.914101743021 1.11768865923 c 0
 0.887177633799 1.10035548869 0.8076891522 0.986762386507 0.689094762006 0.817284286018 c 0
 0.682838027711 0.808343092982 0.676472448277 0.799246354682 0.67 0.79 c 2
 0.611667239808 0.698334233984 l 1
 0.61125 0.6975 l 2
 0.609600420945 0.694247886528 0.607258633519 0.691464668211 0.605138375071 0.68894473746 c 0
 0.602381988705 0.685668767603 0.6 0.682837769998 0.6 0.68 c 1
 0.91 0.68 l 2
 1.01 0.68 1.12 0.68 1.22 0.68 c 1
 1.21 0.69 1.2 0.7 1.19 0.72 c 0
 1.18 0.73 1.18 0.73 1.18 0.74 c 0
 1.17623821488 0.745642677673 1.17070755136 0.754115560797 1.16380725786 0.76468669392 c 0
 1.14589142763 0.792133443295 1.11874261511 0.833724965637 1.08934857979 0.876649825992 c 2
 1.08303847577 0.885 l 2
 1.06866025404 0.904019237886 1.05732050808 0.919019237886 1.05 0.93 c 0
EndSplineSet
Validated: 33
EndChar

StartChar: P
Encoding: 80 80 33
Width: 2
Flags: W
HStem: -19.44 20G<0.745 0.85183 1.22551 1.335> -19.44 20G<0.745 0.85183 1.22551 1.335> -18.56 19.12G<0.745 0.85183 0.96 1.11 1.22551 1.335> -18.56 19.12G<0.745 0.85183 0.96 1.11 1.22551 1.335> 0.05 21G<0.79 0.85 1.22 1.29> 0.05 21G<0.79 0.85 1.22 1.29>
LayerCount: 2
Back
Fore
SplineSet
0.96 1.27 m 0x08
 0.96 1.33 0.96 1.38 0.96 1.44 c 1
 0.98 1.44 1.02 1.44 1.04 1.44 c 0
 1.06 1.44 1.09 1.44 1.11 1.44 c 1
 1.11 1.38 1.11 1.33 1.11 1.27 c 0
 1.11 1.22 1.11 1.16 1.11 1.11 c 1
 1.16 1.11 1.2 1.11 1.25 1.11 c 0
 1.37 1.11 1.39 1.1 1.39 1.06 c 0
 1.39 1.02 1.38 1.01 1.25 1.01 c 0
 1.2 1.01 1.16 1.01 1.11 1.01 c 1
 1.11 0.99 1.11 0.96 1.11 0.94 c 0
 1.11 0.92 1.11 0.89 1.11 0.87 c 1
 1.16 0.87 1.2 0.87 1.25 0.87 c 0
 1.38 0.87 1.39 0.86 1.39 0.82 c 0
 1.39 0.78 1.37 0.78 1.25 0.78 c 0
 1.2 0.78 1.16 0.78 1.11 0.78 c 1
 1.11 0.74 1.11 0.7 1.11 0.66 c 0
 1.11 0.62 1.11 0.59 1.11 0.55 c 1
 1.13 0.55 1.14 0.55 1.17 0.55 c 0
 1.18651530772 0.55 1.19696938457 0.553030615433 1.2063673852 0.555755076536 c 0
 1.21404082058 0.557979589711 1.22101020514 0.56 1.23 0.56 c 0
 1.24 0.56 1.24 0.56 1.25 0.56 c 0
 1.28 0.56 1.3 0.56 1.31 0.56 c 0
 1.36 0.56 1.38 0.55 1.41 0.52 c 0
 1.49 0.44 1.53 0.37 1.53 0.29 c 0
 1.53 0.23 1.51 0.18 1.46 0.13 c 0
 1.41 0.08 1.33 0.05 1.25 0.05 c 0
 1.19 0.05 1.14 0.07 1.1 0.1 c 0
 1.09585786438 0.104142135624 1.09 0.106568542495 1.08313708499 0.10941125497 c 0
 1.07343145751 0.113431457505 1.06171572875 0.118284271247 1.05 0.13 c 0
 1.04 0.14 1.04 0.14 1.04 0.14 c 1
 1.04 0.14 1.03 0.14 1.02 0.13 c 0
 1.00828427125 0.118284271247 0.996568542495 0.113431457505 0.98686291501 0.10941125497 c 0
 0.98 0.106568542495 0.974142135624 0.104142135624 0.97 0.1 c 0
 0.93 0.07 0.88 0.05 0.82 0.05 c 0
 0.76 0.05 0.69 0.06 0.64 0.1 c 0
 0.58 0.15 0.55 0.22 0.55 0.3 c 0
 0.55 0.34 0.56 0.38 0.58 0.42 c 0
 0.62 0.52 0.69 0.56 0.8 0.56 c 0
 0.83 0.56 0.84 0.56 0.85 0.56 c 0
 0.853660254038 0.56 0.858660254038 0.558660254038 0.865 0.556961524227 c 0
 0.875980762114 0.554019237886 0.890980762114 0.55 0.91 0.55 c 0
 0.94 0.55 0.95 0.55 0.96 0.55 c 1
 0.96 0.59 0.96 0.62 0.96 0.66 c 0
 0.96 0.7 0.96 0.74 0.96 0.78 c 1
 0.91 0.78 0.87 0.78 0.82 0.78 c 0
 0.7 0.78 0.68 0.78 0.68 0.82 c 0
 0.68 0.86 0.69 0.87 0.82 0.87 c 0
 0.87 0.87 0.91 0.87 0.96 0.87 c 1
 0.96 0.89 0.96 0.92 0.96 0.94 c 0
 0.96 0.96 0.96 0.99 0.96 1.01 c 1
 0.91 1.01 0.87 1.01 0.82 1.01 c 0
 0.69 1.01 0.68 1.02 0.68 1.06 c 0
 0.68 1.1 0.7 1.11 0.82 1.11 c 0
 0.87 1.11 0.91 1.11 0.96 1.11 c 1
 0.96 1.16 0.96 1.22 0.96 1.27 c 0x08
0.92 0.41 m 0
 0.89 0.43 0.86 0.45 0.82 0.45 c 0
 0.76 0.45 0.71 0.41 0.68 0.37 c 0
 0.66 0.35 0.66 0.33 0.66 0.31 c 0
 0.66 0.28 0.68 0.23 0.72 0.19 c 0
 0.76 0.15 0.78 0.14 0.81 0.14 c 0
 0.83 0.14 0.86 0.16 0.89 0.19 c 0
 0.93 0.23 0.96 0.27 0.96 0.32 c 0
 0.96 0.35 0.94 0.39 0.92 0.41 c 0
1.38 0.39 m 0
 1.35 0.43 1.32 0.45 1.27 0.45 c 0
 1.18 0.45 1.12 0.39 1.12 0.31 c 0
 1.12 0.25 1.15 0.19 1.22 0.15 c 0
 1.24 0.14 1.25 0.14 1.26 0.14 c 0
 1.27 0.14 1.29 0.15 1.31 0.16 c 0
 1.37 0.2 1.4 0.26 1.4 0.31 c 0
 1.4 0.34 1.4 0.36 1.38 0.39 c 0
EndSplineSet
Validated: 1
EndChar

StartChar: Q
Encoding: 81 81 34
Width: 2
Flags: W
HStem: -19.99 20G<1.1 1.95> -19.99 20G<1.1 1.95> -18.4 20G<0.52 0.55 1.305 1.34> -18.4 20G<0.52 0.55 1.305 1.34> -0.1 0.5<1.47 1.67> 0.11 21G<1.83 1.95> 0.11 21G<1.83 1.95>
LayerCount: 2
Back
Fore
SplineSet
1.1 -0.04 m 0x08
 1.1 -0.02 1.1 -0.01 1.1 0.01 c 1
 1.24 0.01 1.39 0.01 1.53 0.01 c 0
 1.67 0.01 1.81 0.01 1.95 0.01 c 1
 1.95 -0.01 1.95 -0.02 1.95 -0.04 c 0
 1.95 -0.06 1.95 -0.08 1.95 -0.1 c 1
 1.81 -0.1 1.67 -0.1 1.53 -0.1 c 0
 1.39 -0.1 1.24 -0.1 1.1 -0.1 c 1
 1.1 -0.08 1.1 -0.06 1.1 -0.04 c 0x08
0.48 1.59 m 0
 0.49 1.6 0.51 1.6 0.53 1.6 c 0
 0.57 1.6 0.59 1.57 0.61 1.51 c 0
 0.66 1.36 0.76 1.28 0.91 1.28 c 0
 1.05 1.28 1.16 1.35 1.2 1.47 c 0
 1.22 1.54 1.28 1.6 1.33 1.6 c 0
 1.35 1.6 1.36 1.59 1.37 1.57 c 2
 1.37 1.57 1.37 1.56 1.37 1.55 c 0
 1.37 1.5 1.34 1.42 1.32 1.4 c 0
 1.31 1.39 1.27 1.35 1.22 1.3 c 0
 1.21585786438 1.29585786438 1.21343145751 1.29171572875 1.21058874503 1.28686291501 c 0
 1.20656854249 1.28 1.20171572875 1.27171572875 1.19 1.26 c 0
 1.17 1.24 1.16 1.23 1.15 1.22 c 0
 1.165 1.2 1.1825 1.1825 1.2 1.165 c 0
 1.2175 1.1475 1.235 1.13 1.25 1.11 c 0
 1.33 1.02 1.38 0.92 1.38 0.83 c 0
 1.38 0.79 1.38 0.76 1.37 0.74 c 0
 1.33 0.62 1.18 0.48 1.02 0.42 c 0
 0.97 0.4 0.97 0.39 0.97 0.32 c 0
 0.97 0.29 0.97 0.27 0.97 0.24 c 1
 1.03 0.24 1.09 0.24 1.15 0.24 c 0
 1.32 0.24 1.33 0.25 1.35 0.29 c 0
 1.39 0.37 1.47 0.4 1.59 0.4 c 0
 1.67 0.4 1.7 0.39 1.76 0.33 c 0
 1.82 0.27 1.86 0.24 1.91 0.24 c 0
 1.94 0.24 1.95 0.22 1.95 0.14 c 0
 1.95 0.11 1.95 0.11 1.95 0.11 c 1x04
 1.71 0.11 1.7 0.11 1.7 0.14 c 0
 1.7 0.23 1.65 0.29 1.57 0.29 c 0
 1.53 0.29 1.5 0.28 1.47 0.25 c 0
 1.44 0.22 1.43 0.17 1.43 0.14 c 0
 1.43 0.11 1.41 0.11 1.2 0.11 c 0
 1.12 0.11 1.05 0.11 0.97 0.11 c 1x02
 0.97 0.08 0.97 0.03 0.97 0 c 0
 0.97 -0.09 0.96 -0.1 0.91 -0.1 c 0x08
 0.86 -0.1 0.85 -0.09 0.85 0 c 0
 0.85 0.03 0.85 0.08 0.85 0.11 c 1
 0.82 0.11 0.78 0.11 0.75 0.11 c 0x02
 0.65 0.11 0.64 0.11 0.64 0.17 c 0
 0.64 0.24 0.65 0.24 0.85 0.24 c 1
 0.85 0.37 0.84 0.4 0.78 0.43 c 0
 0.57 0.53 0.48 0.66 0.48 0.84 c 0
 0.48 0.97 0.53 1.08 0.62 1.16 c 0
 0.625 1.165 0.63 1.1675 0.635 1.17 c 0
 0.64 1.1725 0.645 1.175 0.65 1.18 c 0
 0.655 1.185 0.6575 1.19 0.66 1.195 c 0
 0.6625 1.2 0.665 1.205 0.67 1.21 c 0
 0.66 1.23 0.65 1.24 0.62 1.27 c 0
 0.613333333333 1.28333333333 0.606666666667 1.28777777778 0.6 1.29222222222 c 0
 0.596666666667 1.29444444444 0.593333333333 1.29666666667 0.59 1.3 c 0
 0.54 1.35 0.5 1.42 0.49 1.47 c 0
 0.49 1.48 0.48 1.51 0.47 1.53 c 0
 0.46 1.55 0.47 1.58 0.48 1.59 c 0
0.92 1.16 m 2
 0.91 1.16 l 2
 0.9 1.16 0.89 1.16 0.88 1.16 c 0
 0.71 1.11 0.6 0.99 0.6 0.85 c 0
 0.6 0.69 0.76 0.52 0.91 0.52 c 0
 1.01 0.52 1.13 0.59 1.18 0.67 c 0
 1.2 0.71 1.21 0.75 1.21 0.8 c 0
 1.21 0.81 1.21 0.82 1.21 0.83 c 0
 1.2 1 1.11 1.1 0.92 1.16 c 2
EndSplineSet
Validated: 1
EndChar

StartChar: R
Encoding: 82 82 35
Width: 2
Flags: W
HStem: -18.82 20G<1.14 1.33> -18.82 20G<1.14 1.33> -0.14 21G<0.9 0.96> -0.14 21G<0.9 0.96> 1.24 21G<0.55 0.72 1.14 1.33> 1.24 21G<0.55 0.72 1.14 1.33>
LayerCount: 2
Back
Fore
SplineSet
0.55 1.14 m 0x20
 0.55 1.18178889405 0.556985246663 1.18166630812 0.62349877187 1.18049904479 c 0
 0.636568024245 1.18026968904 0.651935566903 1.18 0.67 1.18 c 0
 0.700430780618 1.18 0.722501546433 1.18064307806 0.738658468371 1.18111384388 c 0
 0.7828 1.1824 0.7828 1.1824 0.788541531629 1.16448615612 c 0
 0.788985640646 1.16310051548 0.789464101615 1.16160769515 0.79 1.16 c 0
 0.81 1.09 0.83 1.05 0.88 1.03 c 0
 0.892915026221 1.02354248689 0.901660104885 1.02542486889 0.911620734196 1.02756889871 c 0
 0.917084973779 1.02874507866 0.922915026221 1.03 0.93 1.03 c 0
 0.99 1.03 1.05 1.07 1.07 1.15 c 0
 1.08 1.18 1.08 1.18 1.2 1.18 c 0
 1.24 1.18 1.29 1.18 1.33 1.18 c 1
 1.33 1.16 1.33 1.14 1.33 1.12 c 2
 1.33 1.12 1.33 1.07 1.29 1.07 c 0
 1.2 1.07 1.17 1.05 1.15 1.02 c 0
 1.13 0.99 1.09 0.96 1.06 0.95 c 0
 1.05414213562 0.947071067812 1.04914213562 0.945 1.045 0.943284271247 c 0
 1.035 0.939142135624 1.03 0.937071067812 1.03 0.93 c 0
 1.03 0.92 1.05 0.91 1.09 0.89 c 0
 1.24 0.82 1.32 0.71 1.32 0.57 c 0
 1.32 0.47 1.27 0.37 1.18 0.3 c 0
 1.13 0.26 1.07 0.23 1.03 0.22 c 0
 1 0.21 0.99 0.2 0.99 0.14 c 0
 0.99 0.1 0.99 0.1 1.06 0.1 c 0
 1.16 0.1 1.17 0.1 1.17 0.05 c 0
 1.17 0 1.16 0 0.99 -0 c 1
 0.99 -0.13 0.99 -0.14 0.93 -0.14 c 0
 0.87 -0.14 0.87 -0.13 0.87 -0 c 1
 0.7 0 0.69 0 0.69 0.05 c 0
 0.69 0.1 0.7 0.1 0.8 0.1 c 0
 0.87 0.1 0.87 0.1 0.87 0.14 c 0
 0.87 0.2 0.86 0.21 0.83 0.22 c 0
 0.73 0.24 0.62 0.34 0.58 0.45 c 0
 0.57 0.49 0.56 0.53 0.56 0.57 c 0
 0.56 0.7 0.62 0.81 0.74 0.88 c 0
 0.746180339887 0.88 0.752360679775 0.883819660113 0.760901699437 0.889098300563 c 0
 0.766180339887 0.892360679775 0.772360679775 0.896180339887 0.78 0.9 c 0
 0.795 0.91 0.805 0.915 0.8125 0.91875 c 0
 0.82 0.9225 0.825 0.925 0.83 0.93 c 1
 0.82 0.94 l 2
 0.81 0.95 0.8 0.96 0.79 0.96 c 0
 0.76 0.98 0.73 1.01 0.72 1.03 c 0
 0.7 1.06 0.66 1.07 0.59 1.07 c 0
 0.56 1.07 0.55 1.08 0.55 1.14 c 0x20
1.06 0.8 m 0
 1.03 0.82 0.98 0.82 0.93 0.82 c 0
 0.89 0.82 0.84 0.81 0.81 0.8 c 0
 0.73 0.76 0.67 0.67 0.67 0.56 c 0
 0.67 0.47 0.71 0.4 0.77 0.35 c 0
 0.81 0.32 0.86 0.31 0.92 0.31 c 0
 1.02 0.31 1.12 0.36 1.16 0.44 c 0
 1.18 0.47 1.19 0.5 1.19 0.55 c 0
 1.19 0.66 1.13 0.76 1.06 0.8 c 0
0.9 1.52 m 0
 0.92 1.53 0.93 1.53 0.96 1.52 c 0
 1.04 1.5 1.1 1.46 1.14 1.41 c 0
 1.17 1.37 1.21 1.36 1.28 1.36 c 0
 1.32 1.36 1.33 1.36 1.33 1.3 c 0
 1.33 1.28 1.33 1.26 1.33 1.24 c 1
 1.29 1.24 1.24 1.24 1.2 1.24 c 0
 1.08 1.24 1.07 1.25 1.07 1.27 c 0
 1.07 1.34 1.01 1.4 0.93 1.4 c 0
 0.86 1.4 0.79 1.34 0.79 1.28 c 0
 0.79 1.25 0.77 1.24 0.67 1.24 c 0
 0.63 1.24 0.59 1.24 0.55 1.24 c 1x08
 0.55 1.26 0.55 1.28 0.55 1.3 c 0
 0.55 1.35 0.56 1.36 0.6 1.36 c 0
 0.66 1.36 0.69 1.37 0.72 1.41 c 0
 0.76 1.46 0.81 1.5 0.9 1.52 c 0
EndSplineSet
Validated: 33
EndChar

StartChar: S
Encoding: 83 83 36
Width: 2
Flags: W
HStem: -19.09 20.17G<0.62 0.65 1.085 1.125 1.685 1.72> -19.09 20.17G<0.62 0.65 1.055 1.17 1.685 1.72> -19.09 20.17G<0.62 0.65 1.055 1.17 1.685 1.72> 0.83 21G<0.505 0.54 1.575 1.615> 0.83 21G<0.505 0.54 1.575 1.615> 0.83 20.19G<0.505 0.54 1.085 1.115 1.575 1.615> 0.83 20.19G<0.505 0.54 1.085 1.115 1.575 1.615>
LayerCount: 2
Back
Fore
SplineSet
0.99 0.87 m 0x00
 1.03 0.9 1.07 0.91 1.1 0.91 c 0
 1.15 0.91 1.19 0.89 1.24 0.84 c 0
 1.28 0.8 1.31 0.76 1.31 0.73 c 0
 1.31 0.69 1.29 0.65 1.25 0.61 c 2
 1.24 0.61 l 2
 1.22535898385 0.595358983849 1.22679491924 0.591435935394 1.22861561237 0.586461709275 c 0
 1.2292820323 0.584641016151 1.23 0.582679491924 1.23 0.58 c 0
 1.23 0.57 1.23 0.57 1.25 0.55 c 0
 1.29 0.51 1.31 0.47 1.31 0.44 c 0
 1.31 0.39 1.21 0.27 1.17 0.27 c 0
 1.16 0.27 1.15 0.26 1.15 0.24 c 0
 1.15 0.22 1.17 0.2 1.24 0.2 c 0
 1.3 0.2 1.31 0.19 1.31 0.16 c 0
 1.31 0.13 1.3 0.12 1.22 0.12 c 0
 1.16 0.12 1.15 0.12 1.15 0.08 c 0
 1.15 0.04 1.13 0.02 1.1 0.02 c 0
 1.07 0.02 1.06 0.04 1.06 0.08 c 0
 1.06 0.12 1.06 0.12 1 0.12 c 0
 0.93 0.12 0.92 0.13 0.92 0.16 c 0
 0.92 0.19 0.93 0.2 0.98 0.2 c 0
 1.04 0.2 1.06 0.22 1.06 0.24 c 0
 1.06 0.26 1.05 0.27 1.03 0.27 c 0
 1.01 0.27 0.97 0.28 0.95 0.31 c 0
 0.93 0.34 0.92 0.39 0.92 0.44 c 0
 0.92 0.48 0.93 0.52 0.95 0.54 c 0
 0.96 0.55 0.96 0.55 0.96 0.56 c 0
 0.96 0.566180339887 0.956180339887 0.572360679775 0.950901699437 0.580901699437 c 0
 0.947639320225 0.586180339887 0.943819660113 0.592360679775 0.94 0.6 c 0
 0.92 0.64 0.92 0.68 0.92 0.71 c 0
 0.92 0.77 0.94 0.82 0.99 0.87 c 0x00
1.18 0.75 m 2
 1.18 0.79 1.17 0.8 1.13 0.8 c 0
 1.12 0.8 1.12 0.8 1.11 0.8 c 0
 1.05 0.8 1.01 0.77 1.01 0.73 c 0
 1.01 0.71 1.01 0.69 1.03 0.67 c 0
 1.05 0.64 1.08 0.62 1.11 0.62 c 0
 1.15 0.62 1.18 0.67 1.18 0.73 c 2
 1.18 0.73 1.18 0.73 1.18 0.74 c 0
 1.18 0.75 1.18 0.75 1.18 0.75 c 2
1.18 0.45 m 2
 1.18 0.5 1.17 0.51 1.13 0.51 c 0
 1.12 0.51 1.11 0.51 1.1 0.51 c 0
 1.04 0.51 1.01 0.48 1.01 0.44 c 0
 1.01 0.42 1.02 0.39 1.04 0.37 c 0
 1.06 0.34 1.08 0.33 1.1 0.33 c 0
 1.10618033989 0.33 1.11236067977 0.333819660113 1.12090169944 0.339098300563 c 0
 1.12618033989 0.342360679775 1.13236067977 0.346180339887 1.14 0.35 c 0
 1.17 0.37 1.18 0.39 1.18 0.43 c 2
 1.18 0.43 1.18 0.43 1.18 0.44 c 0
 1.18 0.45 1.18 0.45 1.18 0.45 c 2
0.92 1.19 m 0
 0.96 1.23 1.02 1.25 1.09 1.25 c 0
 1.25 1.25 1.4 1.16 1.4 1.05 c 0
 1.4 1.01 1.42 1 1.52 1 c 0
 1.61 1 1.62 1 1.63 1.03 c 0
 1.64 1.06 1.66 1.08 1.71 1.08 c 0
 1.73 1.08 1.74 1.08 1.74 1.07 c 0
 1.74 1.06381966011 1.73618033989 1.05763932023 1.73090169944 1.04909830056 c 0
 1.72763932023 1.04381966011 1.72381966011 1.03763932023 1.72 1.03 c 0
 1.66 0.88 1.64 0.84 1.59 0.83 c 0
 1.56 0.83 1.56 0.83 1.57 0.87 c 0
 1.57 0.88 1.58 0.89 1.58 0.89 c 2
 1.58 0.91 1.56 0.91 1.45 0.91 c 0
 1.32 0.91 1.31 0.92 1.31 0.95 c 0
 1.31 0.99 1.3 1.02 1.29 1.02 c 0
 1.28 1.02 1.26 1.03 1.26 1.05 c 0
 1.25 1.08 1.22 1.12 1.18 1.14 c 0
 1.16 1.15 1.13 1.16 1.1 1.16 c 0
 1.03 1.16 0.96 1.11 0.93 1.04 c 0
 0.92 1.01 0.92 0.97 0.92 0.95 c 0
 0.92 0.92 0.9 0.91 0.78 0.91 c 0
 0.66 0.91 0.63 0.91 0.61 0.88 c 0
 0.59 0.85 0.56 0.83 0.52 0.83 c 2
 0.51 0.83 l 2x10
 0.5 0.83 0.5 0.84 0.5 0.84 c 1
 0.5 0.84 0.5 0.84 0.5 0.85 c 0
 0.5 0.86 0.51 0.86 0.51 0.86 c 1
 0.51 0.88 l 2
 0.57 1.05 0.6 1.08 0.64 1.08 c 0
 0.66 1.08 0.66 1.08 0.66 1.06 c 2
 0.66 1.06 0.66 1.05 0.66 1.03 c 0
 0.66 1.02 0.66 1.03 0.66 1.02 c 0
 0.66 1.01 0.66 1 0.69 1 c 0
 0.71 1 0.72 1 0.73 1 c 0
 0.73242422037 1.00030302755 0.734784162753 1.00059687252 0.737081774951 1.00088292622 c 0
 0.737144120213 1.00089068823 0.737206419582 1.0008984445 0.737268673096 1.00090619507 c 0
 0.81062250028 1.01003875066 0.82031125014 1.01124500056 0.83 1.05 c 0
 0.84 1.11 0.88 1.16 0.92 1.19 c 0
EndSplineSet
Validated: 1
EndChar

StartChar: T
Encoding: 84 84 37
Width: 2
Flags: W
HStem: -19.87 20G<0.39 0.40309 1.225 1.23309> -19.87 20G<0.39 0.40309 1.225 1.23309> -18.84 20G<0.42 0.86 1.25 1.69> -18.84 20G<0.42 0.86 1.25 1.69> -0.04 21G<0.62 0.72 1.445 1.545> -0.04 21G<0.62 0.72 1.445 1.545>
LayerCount: 2
Back
Fore
SplineSet
0.42 1.1 m 0x08
 0.42 1.12 0.42 1.14 0.42 1.16 c 1
 0.53 1.16 0.65 1.16 0.76 1.16 c 0
 0.96 1.16 1.1 1.15 1.1 1.14 c 0
 1.1 1.13 1.06 1.07 1.02 1.02 c 0
 1.01171572875 1.00757359313 1.00171572875 0.99686291501 0.99 0.984314575051 c 0
 0.973431457505 0.966568542495 0.953431457505 0.945147186258 0.93 0.91 c 1
 1.05 0.91 1.16 0.91 1.28 0.91 c 0
 1.61 0.91 1.63 0.92 1.66 0.96 c 0
 1.69 0.99 1.71 1.02 1.71 1.02 c 2
 1.71 1.03 1.6 1.04 1.48 1.04 c 0
 1.4 1.04 1.33 1.04 1.25 1.04 c 1
 1.25 1.06 1.25 1.08 1.25 1.1 c 0
 1.25 1.12 1.25 1.14 1.25 1.16 c 1
 1.36 1.16 1.48 1.16 1.59 1.16 c 0
 1.79 1.16 1.94 1.15 1.94 1.14 c 0
 1.94 1.13 1.9 1.08 1.85 1.02 c 0
 1.84381966011 1.01381966011 1.83763932023 1.00381966011 1.82909830056 0.99 c 0
 1.82381966011 0.981458980338 1.81763932023 0.971458980338 1.81 0.96 c 0
 1.79 0.93 1.78 0.92 1.77 0.91 c 1
 1.82 0.91 1.85 0.91 1.9 0.91 c 0
 2.04 0.91 2.04 0.91 2.04 0.86 c 0
 2.04 0.83 2.04 0.81 2.04 0.81 c 1
 1.72 0.81 1.69 0.81 1.65 0.76 c 0
 1.64 0.75 1.63 0.74 1.62 0.73 c 0
 1.61 0.72 1.61 0.72 1.6 0.71 c 1
 1.60414213562 0.71 1.60656854249 0.708284271247 1.60941125497 0.70627416998 c 0
 1.61343145751 0.703431457505 1.61828427125 0.7 1.63 0.7 c 0
 1.645 0.695 1.655 0.69 1.6625 0.68625 c 0
 1.67 0.6825 1.675 0.68 1.68 0.68 c 0
 1.8 0.65 1.91 0.58 1.95 0.49 c 0
 1.97 0.45 2 0.41 2.02 0.41 c 0
 2.04 0.41 2.04 0.39 2.04 0.36 c 0
 2.04 0.33 2.03 0.31 2.01 0.31 c 0
 1.99 0.31 1.98 0.29 1.97 0.25 c 0
 1.95 0.17 1.84 0.04 1.75 -0 c 0
 1.69 -0.03 1.6 -0.04 1.49 -0.04 c 0
 1.4 -0.04 1.32 -0.03 1.26 -0.01 c 0
 1.22 0.01 1.21 0.03 1.21 0.09 c 0
 1.21 0.12 1.22 0.13 1.23 0.13 c 0
 1.23618033989 0.13 1.24618033989 0.126180339887 1.26 0.120901699437 c 0
 1.26854101966 0.117639320225 1.27854101966 0.113819660113 1.29 0.11 c 0
 1.38 0.07 1.44 0.06 1.51 0.06 c 0
 1.58 0.06 1.65 0.08 1.71 0.12 c 0
 1.77 0.16 1.83 0.23 1.83 0.26 c 0
 1.83 0.29 1.73 0.31 1.49 0.31 c 0
 1.38 0.31 1.26 0.31 1.15 0.31 c 0
 1.14381966011 0.303819660113 1.14145898034 0.293819660113 1.13819660113 0.28 c 0
 1.13618033989 0.271458980338 1.13381966011 0.261458980338 1.13 0.25 c 0
 1.13 0.24 1.13 0.23 1.13 0.23 c 2
 1.1 0.15 0.99 0.03 0.9 -0.01 c 0
 0.85 -0.03 0.77 -0.04 0.67 -0.04 c 0
 0.57 -0.04 0.49 -0.03 0.43 -0.01 c 0
 0.39 0.01 0.38 0.03 0.38 0.09 c 0
 0.38 0.12 0.38 0.13 0.4 0.13 c 0
 0.406180339887 0.13 0.416180339887 0.126180339887 0.43 0.120901699437 c 0
 0.438541019662 0.117639320225 0.448541019662 0.113819660113 0.46 0.11 c 0
 0.54 0.08 0.61 0.06 0.67 0.06 c 0
 0.79 0.06 0.88 0.12 1 0.25 c 0
 1.02 0.27 1.02 0.27 1.02 0.28 c 0
 1.02 0.3 0.99 0.31 0.67 0.31 c 0
 0.56 0.31 0.44 0.31 0.33 0.31 c 1
 0.33 0.33 0.33 0.34 0.33 0.36 c 0
 0.33 0.38 0.33 0.39 0.33 0.41 c 1
 0.44 0.41 0.55 0.41 0.66 0.41 c 0
 0.88 0.41 0.98 0.42 0.98 0.44 c 0
 0.98 0.46 0.9 0.54 0.85 0.56 c 0
 0.81 0.57 0.74 0.58 0.68 0.58 c 0
 0.61 0.58 0.58 0.59 0.58 0.62 c 0
 0.58 0.636329931619 0.593333333333 0.652659863237 0.62 0.685319726474 c 0
 0.62599319657 0.692659863237 0.632659863237 0.700824829046 0.64 0.71 c 0
 0.67 0.74 0.69 0.78 0.69 0.79 c 0
 0.69 0.8 0.59 0.81 0.33 0.81 c 1
 0.33 0.86 l 2
 0.33 0.88 0.33 0.89 0.33 0.91 c 1
 0.41 0.91 0.48 0.91 0.56 0.91 c 0
 0.77 0.91 0.79 0.92 0.83 0.96 c 0
 0.86 1 0.87 1.02 0.87 1.02 c 2
 0.87 1.03 0.77 1.04 0.65 1.04 c 0
 0.57 1.04 0.5 1.04 0.42 1.04 c 1
 0.42 1.06 0.42 1.08 0.42 1.1 c 0x08
1.52 0.79 m 2
 1.52 0.8 1.32 0.81 0.87 0.81 c 0
 0.86 0.81 0.83 0.78 0.81 0.76 c 0
 0.805 0.755 0.8025 0.75 0.8 0.745 c 0
 0.7975 0.74 0.795 0.735 0.79 0.73 c 0
 0.78 0.72 0.78 0.72 0.77 0.71 c 1
 0.774142135624 0.71 0.776568542495 0.708284271247 0.77941125497 0.70627416998 c 0
 0.783431457505 0.703431457505 0.788284271247 0.7 0.8 0.7 c 0
 0.815 0.695 0.825 0.69 0.8325 0.68625 c 0
 0.84 0.6825 0.845 0.68 0.85 0.68 c 0
 0.97 0.65 1.06 0.58 1.11 0.49 c 0
 1.11 0.485 1.1125 0.4825 1.11625 0.47875 c 0
 1.12 0.475 1.125 0.47 1.13 0.46 c 0
 1.13438447187 0.451231056256 1.13684658438 0.442462112512 1.13907204364 0.434536021822 c 0
 1.14192235936 0.424384471872 1.14438447187 0.415615528128 1.15 0.41 c 0
 1.26 0.41 1.37 0.41 1.48 0.41 c 0
 1.7 0.41 1.81 0.43 1.81 0.45 c 0
 1.81 0.47 1.73 0.54 1.68 0.56 c 0
 1.64 0.57 1.58 0.58 1.51 0.58 c 0
 1.44 0.58 1.42 0.59 1.42 0.62 c 0
 1.42 0.64 1.43 0.66 1.47 0.71 c 0
 1.5 0.75 1.52 0.79 1.52 0.79 c 2
EndSplineSet
Validated: 1
EndChar

StartChar: U
Encoding: 85 85 38
Width: 2
Flags: W
HStem: -0.18 21G<0.86 1.08> -0.18 21G<0.86 1.08> 0.48 0.82<0.91 1.24>
LayerCount: 2
Back
Fore
SplineSet
0.79 1.28 m 0x80
 0.85 1.29 0.91 1.3 0.98 1.3 c 0x20
 1.24 1.3 1.45 1.17 1.58 0.92 c 0
 1.62 0.84 1.62 0.8 1.62 0.58 c 0
 1.62 0.36 1.62 0.3 1.58 0.23 c 0
 1.45 -0.02 1.21 -0.18 0.95 -0.18 c 0
 0.77 -0.18 0.61 -0.11 0.48 0.02 c 0
 0.35 0.15 0.29 0.3 0.29 0.54 c 0
 0.29 0.79 0.35 0.96 0.49 1.11 c 0
 0.58 1.21 0.66 1.25 0.79 1.28 c 0x80
1.18 1.11 m 0
 1.12 1.14 1.05 1.15 0.98 1.15 c 0
 0.86 1.15 0.75 1.11 0.68 1.06 c 0
 0.59 0.99 0.5 0.84 0.47 0.7 c 0
 0.47 0.69 0.47 0.68 0.47 0.66 c 0
 0.47 0.648284271247 0.466568542495 0.64 0.46372583002 0.63313708499 c 0
 0.461715728753 0.628284271247 0.46 0.624142135624 0.46 0.62 c 1
 0.63 0.62 0.79 0.62 0.96 0.62 c 0
 1 0.62 1.04 0.62 1.07 0.62 c 0
 1.1 0.62 1.13 0.62 1.16 0.62 c 0
 1.44 0.62 1.47 0.63 1.47 0.67 c 0
 1.47 0.68 1.47 0.69 1.46 0.71 c 2
 1.46 0.72 l 1
 1.46 0.72 1.45 0.72 1.45 0.73 c 0
 1.45 0.74 1.45 0.74 1.45 0.74 c 2
 1.4 0.91 1.3 1.05 1.18 1.11 c 0
1.45 0.4 m 0
 1.45 0.404142135624 1.45171572875 0.408284271247 1.45372583002 0.41313708499 c 0
 1.45656854249 0.42 1.46 0.428284271247 1.46 0.44 c 0
 1.46 0.451715728753 1.46343145751 0.46 1.46627416998 0.46686291501 c 0
 1.46828427125 0.471715728753 1.47 0.475857864376 1.47 0.48 c 1
 1.3 0.48 1.13 0.48 0.96 0.48 c 0
 0.79 0.48 0.63 0.48 0.46 0.48 c 1
 0.46 0.475857864376 0.461715728753 0.471715728753 0.46372583002 0.46686291501 c 0
 0.466568542495 0.46 0.47 0.451715728753 0.47 0.44 c 0
 0.47 0.428284271247 0.473431457505 0.42 0.47627416998 0.41313708499 c 0
 0.478284271247 0.408284271247 0.48 0.404142135624 0.48 0.4 c 0
 0.54 0.14 0.73 -0.03 0.96 -0.03 c 0
 1 -0.03 1.03 -0.03 1.06 -0.02 c 0
 1.14 0 1.23 0.04 1.27 0.07 c 0
 1.35 0.13 1.42 0.27 1.45 0.4 c 0
EndSplineSet
Validated: 1
EndChar

StartChar: V
Encoding: 86 86 39
Width: 2
Flags: W
HStem: -18.95 20G<1.07343 1.16> -18.95 20G<1.07343 1.16> -18.95 20G<1.07343 1.16> -18.95 20G<1.07343 1.16> -0.11 21G<0.96 1.095> -0.11 21G<0.96 1.095>
VStem: 1.01 0.6<0.195 0.74>
LayerCount: 2
Back
Fore
SplineSet
0.94 1.03 m 0x0a
 0.950294372515 1.03171572875 0.960294372515 1.03343145751 0.97 1.03509667992 c 0
 1.01686291501 1.04313708499 1.05686291501 1.05 1.09 1.05 c 0
 1.23 1.05 1.36 1 1.47 0.89 c 0
 1.58 0.78 1.61 0.67 1.61 0.44 c 0
 1.61 0.33 1.61 0.28 1.57 0.21 c 0
 1.49 0.05 1.39 -0.03 1.24 -0.08 c 0
 1.17 -0.1 1.12 -0.11 1.07 -0.11 c 0
 0.85 -0.11 0.66 0.03 0.57 0.26 c 0
 0.55 0.31 0.55 0.35 0.55 0.41 c 0
 0.55 0.42 0.55 0.44 0.55 0.47 c 0
 0.55 0.48 0.55 0.47 0.55 0.48 c 0
 0.56 0.68 0.6 0.78 0.7 0.89 c 0
 0.78 0.97 0.84 1.01 0.94 1.03 c 0x0a
1.01 0.4 m 0
 1.01 0.81 1 0.92 0.98 0.92 c 0
 0.97 0.92 0.93 0.9 0.88 0.87 c 0
 0.74 0.78 0.69 0.66 0.69 0.38 c 0
 0.69 0.3 0.7 0.28 0.73 0.23 c 0
 0.8 0.12 0.91 0.03 0.97 0.03 c 0
 1 0.03 1.01 0.06 1.01 0.4 c 0
1.23 0.91 m 2
 1.22 0.91 l 1
 1.21 0.92 l 2
 1.19 0.93 1.19 0.93 1.18 0.93 c 0
 1.15 0.93 1.15 0.89 1.15 0.61 c 0
 1.15 0.59 1.15 0.57 1.15 0.55 c 0
 1.15 0.53 1.15 0.5 1.15 0.47 c 0
 1.15 0.32 1.15 0.17 1.15 0.02 c 1
 1.15414213562 0.02 1.15656854249 0.0217157287525 1.15941125497 0.0237258300203 c 0
 1.16343145751 0.0265685424949 1.16828427125 0.03 1.18 0.03 c 0
 1.19 0.03 1.2 0.03 1.21 0.03 c 0
 1.31 0.05 1.38 0.12 1.44 0.25 c 0
 1.47 0.3 1.48 0.34 1.48 0.39 c 0
 1.48 0.395 1.4775 0.3975 1.475 0.4 c 0
 1.4725 0.4025 1.47 0.405 1.47 0.41 c 0
 1.47 0.42 1.47 0.42 1.47 0.43 c 0
 1.46 0.7 1.41 0.82 1.23 0.91 c 2
EndSplineSet
Validated: 1
EndChar

StartChar: W
Encoding: 87 87 40
Width: 2
Flags: W
HStem: -19.85 20G<2.13 2.13> -19.85 20G<2.13 2.13> -18.56 19.99G<1.305 1.505 2.01 2.14> -18.56 19.99G<1.305 1.505 2.01 2.14> -0.21 21G<1.05 1.48 1.86 2.14> -0.21 21G<1.05 1.48 1.86 2.14> 1.15 21G<2.13 2.14>
VStem: 1.23 0.85<0.195 0.65681>
LayerCount: 2
Back
Fore
SplineSet
1.99 -0.03 m 0x09
 2.08 0.09 2.13 0.15 2.13 0.15 c 1
 2.13 0.15 2.14 0.08 2.14 -0.03 c 0
 2.14 -0.09 2.14 -0.15 2.14 -0.21 c 1
 2.09 -0.21 2.05 -0.21 2 -0.21 c 0
 1.95 -0.21 1.91 -0.21 1.86 -0.21 c 1
 1.88 -0.19 1.9 -0.17 1.93 -0.12 c 0
 1.93550510257 -0.110824829046 1.94033673505 -0.102659863237 1.94468027353 -0.0953197264742 c 0
 1.96400680343 -0.0626598632371 1.97367006838 -0.0463299316186 1.99 -0.03 c 0x09
1.97 1.39 m 0
 1.96 1.4 1.96 1.41 1.96 1.41 c 2
 1.96 1.43 1.98 1.44 2.04 1.44 c 0
 2.07 1.44 2.11 1.44 2.14 1.44 c 1
 2.14 1.39 2.14 1.34 2.14 1.29 c 0
 2.14 1.24 2.14 1.2 2.14 1.15 c 1x03
 2.12 1.17 2.1 1.19 2.07 1.24 c 0
 2.06 1.25 2.06 1.26 2.06 1.26 c 2
 2.04593386622 1.28344355629 2.02966933112 1.30468871126 2.01429869541 1.3247662318 c 0
 1.99688711259 1.34750969007 1.98062257748 1.36875484503 1.97 1.39 c 0
1.13 1.4 m 0
 1.2 1.42 1.27 1.43 1.34 1.43 c 0
 1.67 1.43 1.94 1.24 2.03 0.96 c 0
 2.06 0.87 2.08 0.76 2.08 0.64 c 0
 2.08 0.45 2.05 0.26 1.98 0.13 c 0
 1.87 -0.09 1.62 -0.23 1.34 -0.23 c 0
 1.32 -0.23 1.29 -0.23 1.26 -0.23 c 0
 0.84 -0.19 0.58 0.12 0.58 0.6 c 0
 0.58 0.613094750193 0.581905249807 0.624284250579 0.584052498069 0.636895003862 c 0
 0.586824583655 0.653175416345 0.59 0.671824583655 0.59 0.7 c 2
 0.59 0.71 l 2
 0.61 0.92 0.65 1.05 0.79 1.2 c 0
 0.9 1.32 0.99 1.37 1.13 1.4 c 0
1.23 0.4 m 0
 1.23 1.13 1.22 1.24 1.17 1.24 c 0
 1.09 1.24 0.9 1.06 0.83 0.92 c 0
 0.79 0.83 0.77 0.72 0.77 0.6 c 0
 0.77 0.44 0.81 0.28 0.88 0.18 c 0
 0.96 0.07 1.1 -0.04 1.18 -0.04 c 0
 1.22 -0.04 1.23 -0.01 1.23 0.4 c 0
1.49 1.26 m 2
 1.48 1.26 l 2
 1.47 1.27 1.46 1.27 1.46 1.27 c 2
 1.43 1.27 1.42 1.23 1.42 0.96 c 0
 1.42 0.86 1.42 0.77 1.42 0.67 c 1
 1.5 0.67 1.58 0.67 1.66 0.67 c 0
 1.74 0.67 1.82 0.67 1.9 0.67 c 1
 1.89458618735 0.691655250606 1.89210331144 0.710379564469 1.88937786379 0.730933204316 c 0
 1.88706906326 0.748344749394 1.88458618735 0.767069063257 1.88 0.79 c 0
 1.85 0.98 1.72 1.14 1.49 1.26 c 2
1.89 0.47 m 0
 1.89 0.5 1.89 0.5 1.66 0.5 c 0
 1.58 0.5 1.5 0.5 1.42 0.5 c 1
 1.42 0.41 1.42 0.32 1.42 0.23 c 0
 1.42 0.14 1.42 0.04 1.42 -0.05 c 1
 1.42414213562 -0.05 1.42828427125 -0.0482842712475 1.43313708499 -0.0462741699797 c 0
 1.44 -0.0434314575051 1.44828427125 -0.04 1.46 -0.04 c 0
 1.49 -0.03 1.5 -0.03 1.51 -0.03 c 0
 1.56 -0.02 1.64 0.01 1.67 0.04 c 0
 1.77 0.11 1.89 0.34 1.89 0.47 c 0
EndSplineSet
Validated: 1
EndChar

StartChar: X
Encoding: 88 88 41
Width: 2
Flags: W
HStem: -18.43 20G<0.99 1.08> -18.43 20G<0.99 1.08> 0.38 21G<0.99 1.105> 0.38 21G<0.99 1.105> 0.38 21G<0.99 1.105> 0.38 21G<0.99 1.105>
LayerCount: 2
Back
Fore
SplineSet
0.85 1.55 m 0x20
 0.9 1.56 0.96 1.57 1.02 1.57 c 0
 1.14 1.57 1.25 1.54 1.32 1.51 c 0
 1.42 1.46 1.54 1.31 1.57 1.19 c 0
 1.58 1.14 1.59 1.09 1.59 1.01 c 0
 1.59 0.89 1.57 0.76 1.54 0.68 c 0
 1.5 0.58 1.41 0.48 1.33 0.44 c 0
 1.26 0.4 1.16 0.38 1.05 0.38 c 0
 0.93 0.38 0.81 0.41 0.73 0.45 c 0
 0.57 0.54 0.48 0.72 0.48 0.95 c 0
 0.48 1 0.48 1.05 0.49 1.1 c 0
 0.53 1.34 0.67 1.5 0.85 1.55 c 0x20
0.97 1.24 m 0
 0.97 1.27 0.97 1.29 0.97 1.34 c 0
 0.97 1.42 0.96 1.44 0.93 1.44 c 0
 0.81 1.44 0.63 1.23 0.63 1.08 c 0
 0.63 1.06 0.63 1.04 0.63 1.02 c 1
 0.633660254038 1.02 0.638660254038 1.02133974596 0.645 1.02303847577 c 0
 0.655980762114 1.02598076211 0.670980762114 1.03 0.69 1.03 c 0
 0.75 1.03 0.77 1.03 0.8 1.03 c 0
 0.82 1.03 0.84 1.03 0.88 1.03 c 0
 0.903431457505 1.03 0.92 1.03343145751 0.93372583002 1.03627416998 c 0
 0.943431457505 1.03828427125 0.951715728753 1.04 0.96 1.04 c 1
 0.96 1.06 0.96 1.07 0.96 1.1 c 0
 0.96 1.13986493882 0.963243292545 1.16675670746 0.966035773095 1.18991056726 c 0
 0.968146689974 1.2074132401 0.97 1.22277996504 0.97 1.24 c 0
1.17 1.43 m 2
 1.16 1.43 l 1
 1.15 1.44 l 2
 1.14 1.44 1.13 1.44 1.13 1.44 c 2
 1.09 1.44 1.09 1.38 1.09 0.81 c 0
 1.09 0.77 1.09 0.74 1.09 0.69 c 0
 1.09 0.64 1.09 0.58 1.09 0.52 c 0
 1.09 0.51 1.1 0.51 1.12 0.51 c 0
 1.19 0.51 1.29 0.56 1.35 0.62 c 0
 1.42 0.69 1.45 0.8 1.45 0.96 c 0
 1.45 1.22 1.36 1.38 1.17 1.43 c 2
0.97 0.71 m 0
 0.97 0.78 0.97 0.84 0.97 0.91 c 1
 0.91 0.91 0.86 0.91 0.8 0.91 c 0
 0.63 0.91 0.63 0.91 0.63 0.89 c 0
 0.63 0.72 0.81 0.51 0.95 0.51 c 0
 0.97 0.51 0.97 0.53 0.97 0.71 c 0
EndSplineSet
Validated: 1
EndChar

StartChar: Y
Encoding: 89 89 42
Width: 2
Flags: W
HStem: -18.78 20G<0.655 0.715 1.265 1.325> -18.78 20G<0.655 0.715 1.265 1.325> -0.14 0.89<0.885 1.16>
LayerCount: 2
Back
Fore
SplineSet
0.59 1.16 m 0x20
 0.61 1.21 0.62 1.22 0.69 1.22 c 0
 0.74 1.22 0.76 1.21 0.76 1.2 c 0
 0.76 1.195 0.7575 1.19 0.755 1.185 c 0
 0.7525 1.18 0.75 1.175 0.75 1.17 c 0
 0.73 1.13 0.73 1.08 0.73 1.03 c 0
 0.73 0.96 0.74 0.9 0.77 0.86 c 0
 0.81 0.79 0.9 0.75 1 0.75 c 0
 1.06 0.75 1.12 0.77 1.17 0.8 c 0
 1.24 0.84 1.28 0.91 1.28 1 c 0
 1.28 1.04 1.27 1.08 1.25 1.14 c 2
 1.25 1.14 1.25 1.14 1.25 1.15 c 0
 1.24 1.17 1.24 1.18 1.24 1.19 c 0
 1.24 1.21 1.25 1.22 1.28 1.22 c 0
 1.37 1.22 1.4 1.2 1.42 1.11 c 0
 1.43 1.08 1.43 1.05 1.43 1.02 c 0
 1.43 0.91 1.37 0.8 1.27 0.71 c 0
 1.24290646266 0.682906462655 1.24843780379 0.680281584172 1.26449593932 0.672661252433 c 0
 1.26621857785 0.671843780379 1.26806235823 0.670968820885 1.27 0.67 c 0
 1.37 0.64 1.48 0.48 1.5 0.34 c 0
 1.5 0.320980762114 1.50401923789 0.31 1.50696152423 0.301961524227 c 0
 1.50866025404 0.297320508076 1.51 0.293660254038 1.51 0.29 c 0
 1.51 0.06 1.26 -0.14 0.98 -0.14 c 0
 0.87 -0.14 0.76 -0.11 0.68 -0.05 c 0
 0.57 0.04 0.5 0.18 0.5 0.32 c 0
 0.5 0.46 0.57 0.58 0.68 0.64 c 0
 0.69 0.64 0.69 0.64 0.7 0.65 c 0
 0.72 0.66 0.73 0.67 0.74 0.68 c 1
 0.73 0.69 0.73 0.69 0.71 0.71 c 0
 0.69 0.73 0.69 0.73 0.68 0.74 c 0
 0.6 0.81 0.57 0.89 0.57 0.99 c 0
 0.57 1.04 0.57 1.09 0.59 1.16 c 0x20
1.24 0.53 m 0
 1.18 0.57 1.07 0.6 0.97 0.6 c 0
 0.92 0.6 0.86 0.59 0.83 0.58 c 0
 0.76 0.55 0.68 0.44 0.66 0.36 c 0
 0.66 0.35 0.6575 0.3425 0.655 0.335 c 0
 0.6525 0.3275 0.65 0.32 0.65 0.31 c 0
 0.65 0.17 0.78 0.03 0.94 0.01 c 0
 0.96 0.01 0.98 0.01 0.99 0.01 c 0
 1.12 0.01 1.24 0.07 1.3 0.16 c 0
 1.33 0.2 1.34 0.26 1.34 0.31 c 0
 1.34 0.4 1.31 0.48 1.24 0.53 c 0
EndSplineSet
Validated: 1
EndChar

StartChar: Z
Encoding: 90 90 43
Width: 2
Flags: W
HStem: -18.99 20G<0.905 0.92> -18.99 20G<0.905 0.92> -18.99 20G<0.905 0.92> -18.99 20G<0.905 0.92> 0.15 21G<0.905 0.925> 0.15 21G<0.905 0.925>
LayerCount: 2
Back
Fore
SplineSet
0.71 0.8 m 0x08
 0.84 0.96 0.89 1.01 0.92 1.01 c 2
 0.92 1.01 0.92 1 0.93 1 c 0
 0.95 0.99 1.03 0.9 1.11 0.8 c 0
 1.12097167541 0.789028324593 1.12893390928 0.778056649186 1.14049042476 0.762132181434 c 0
 1.15 0.749028324593 1.16194335081 0.732570811482 1.18 0.71 c 0
 1.22 0.66 1.24 0.64 1.26 0.62 c 0
 1.35 0.62 1.43 0.62 1.52 0.62 c 0
 1.76 0.62 1.79 0.62 1.79 0.58 c 0
 1.79 0.54 1.77 0.54 1.52 0.54 c 0
 1.43 0.54 1.35 0.54 1.26 0.54 c 0
 1.24763932023 0.521458980338 1.23527864045 0.506737620788 1.21819660113 0.48639320225 c 0
 1.20763932023 0.473819660113 1.19527864045 0.459098300563 1.18 0.44 c 0
 1.15656854249 0.416568542495 1.14343145751 0.4 1.13254833996 0.38627416998 c 0
 1.12485281374 0.376568542495 1.11828427125 0.368284271247 1.11 0.36 c 0
 1.08333333333 0.33 1.05666666667 0.298888888889 1.03222222222 0.27037037037 c 0
 0.983333333333 0.213333333333 0.943333333333 0.166666666667 0.93 0.16 c 2
 0.93 0.16 0.93 0.15 0.92 0.15 c 0
 0.89 0.15 0.84 0.2 0.72 0.35 c 0
 0.690871000473 0.384425181259 0.663845716516 0.416045408425 0.639852619795 0.444117904164 c 0
 0.57324045433 0.522055727402 0.53 0.572648090866 0.53 0.58 c 0
 0.53 0.59 0.61 0.69 0.71 0.8 c 0x08
1.04 0.72 m 0
 0.98 0.79 0.91 0.85 0.9 0.85 c 0
 0.89 0.85 0.85 0.81 0.77 0.72 c 0
 0.765857864376 0.715857864376 0.761715728753 0.71 0.75686291501 0.70313708499 c 0
 0.75 0.693431457505 0.741715728753 0.681715728753 0.73 0.67 c 0
 0.711943350814 0.647429188518 0.7 0.630971675407 0.690490424755 0.617867818566 c 0
 0.678933909283 0.601943350814 0.670971675407 0.590971675407 0.66 0.58 c 0
 0.7 0.53 0.74 0.48 0.77 0.44 c 0
 0.84 0.35 0.9 0.3 0.91 0.3 c 0
 0.92 0.3 0.98 0.37 1.04 0.44 c 0
 1.045 0.45 1.0525 0.4575 1.0625 0.4675 c 0
 1.0725 0.4775 1.085 0.49 1.1 0.51 c 0
 1.10878679656 0.521715728753 1.11585786438 0.530857864376 1.12171572875 0.538431457505 c 0
 1.13585786438 0.556715728753 1.14292893219 0.565857864376 1.15 0.58 c 0
 1.14292893219 0.594142135624 1.13585786438 0.603284271247 1.12171572875 0.621568542495 c 0
 1.11585786438 0.629142135624 1.10878679656 0.638284271247 1.1 0.65 c 0
 1.085 0.67 1.0725 0.6825 1.0625 0.6925 c 0
 1.0525 0.7025 1.045 0.71 1.04 0.72 c 0
EndSplineSet
Validated: 1
EndChar

StartChar: a
Encoding: 97 97 44
Width: 2
Flags: W
HStem: -18.68 20G<1.87248 1.885> -18.68 20G<1.87248 1.885> -0.09 21G<0.725 0.88> -0.09 21G<0.725 0.88>
LayerCount: 2
Back
Fore
SplineSet
1.23 0.98 m 0x20
 1.34157928942 1.03950895436 1.43655866174 1.09041054429 1.51661501213 1.13331454987 c 0
 1.75942644362 1.26344267785 1.86495907953 1.32 1.88 1.32 c 0
 1.89 1.32 1.91 1.31 1.91 1.3 c 0
 1.91 1.26 1.2 0.09 1.13 0.01 c 0
 1.08 -0.04 0.93 -0.09 0.83 -0.09 c 0
 0.62 -0.09 0.44 0.11 0.44 0.33 c 0
 0.44 0.4 0.46 0.47 0.5 0.52 c 0
 0.57 0.61 0.73 0.71 1.23 0.98 c 0x20
1.42 0.7 m 0
 1.55 0.91 1.62 1.04 1.62 1.05 c 1
 1.59 1.05 1.02 0.73 1.02 0.71 c 0
 1.02 0.7 1.04 0.67 1.07 0.66 c 0
 1.12 0.63 1.18 0.57 1.21 0.51 c 0
 1.24 0.47 1.26 0.45 1.26 0.45 c 1
 1.26 0.45 1.26 0.45 1.27 0.46 c 0
 1.2784428877 0.472664331553 1.28510371659 0.487110721926 1.29223934502 0.502586884992 c 0
 1.30200700534 0.523771550809 1.31266433155 0.546885775404 1.33 0.57 c 0
 1.335 0.575 1.3375 0.58 1.34125 0.5875 c 0
 1.345 0.595 1.35 0.605 1.36 0.62 c 0
 1.37145898034 0.63527864045 1.38145898034 0.647639320225 1.39 0.658196601125 c 0
 1.40381966011 0.67527864045 1.41381966011 0.687639320225 1.42 0.7 c 0
1.05 0.51 m 0
 0.99 0.58 0.96 0.59 0.9 0.59 c 0
 0.72 0.59 0.58 0.47 0.58 0.31 c 0
 0.58 0.24 0.61 0.17 0.66 0.12 c 0
 0.71 0.07 0.78 0.04 0.85 0.04 c 0
 1.01 0.04 1.13 0.17 1.13 0.35 c 0
 1.13 0.41 1.12 0.45 1.05 0.51 c 0
EndSplineSet
Validated: 1
EndChar

StartChar: b
Encoding: 98 98 45
Width: 2
Flags: W
HStem: -18.59 20G<1.145 1.195> -18.59 20G<1.145 1.195> 0.24 20.99G<0.645 0.72 1.145 1.24 1.635 1.69> 0.24 20.99G<0.645 0.72 1.145 1.24 1.635 1.69> 0.24 20.99G<0.645 0.72 1.145 1.24 1.635 1.69>
LayerCount: 2
Back
Fore
SplineSet
1.05 1.36 m 0x20
 1.08 1.39 1.12 1.41 1.17 1.41 c 0
 1.22 1.41 1.27 1.38 1.31 1.34 c 0
 1.33 1.32 1.34 1.29 1.34 1.27 c 0
 1.34 1.25 1.34 1.23 1.33 1.21 c 2
 1.32 1.2 l 2
 1.31 1.19 1.31 1.19 1.31 1.18 c 0
 1.31 1.16 1.32 1.15 1.37 1.13 c 0
 1.58 1.03 1.67 0.9 1.67 0.67 c 0
 1.67 0.59 1.69 0.54 1.71 0.54 c 0
 1.75 0.54 1.84 0.43 1.84 0.38 c 0
 1.84 0.35 1.81 0.3 1.79 0.28 c 0
 1.76 0.24 1.72 0.23 1.66 0.23 c 0
 1.61 0.23 1.56 0.25 1.53 0.28 c 0
 1.525 0.285 1.5225 0.29 1.52 0.295 c 0
 1.5175 0.3 1.515 0.305 1.51 0.31 c 0
 1.50618033989 0.313819660113 1.50236067977 0.316180339887 1.49909830056 0.318196601125 c 0
 1.49381966011 0.321458980338 1.49 0.323819660113 1.49 0.33 c 1
 1.48 0.32 1.47 0.31 1.44 0.3 c 0
 1.43236067977 0.296180339887 1.42618033989 0.293819660113 1.42090169944 0.291803398875 c 0
 1.41236067977 0.288541019662 1.40618033989 0.286180339887 1.4 0.28 c 0
 1.35 0.25 1.28 0.23 1.2 0.23 c 0
 1.09 0.23 0.98 0.26 0.87 0.32 c 0
 0.854384471872 0.327807764064 0.85096117968 0.323423292192 0.845451008183 0.316365994544 c 0
 0.843903882032 0.314384471872 0.842192235936 0.312192235936 0.84 0.31 c 0
 0.8 0.26 0.75 0.24 0.69 0.24 c 0
 0.6 0.24 0.54 0.29 0.54 0.37 c 0
 0.54 0.45 0.62 0.54 0.68 0.54 c 0
 0.7 0.54 0.7 0.55 0.7 0.57 c 0
 0.7 0.58 0.7 0.58 0.7 0.6 c 0
 0.7 0.61 0.6975 0.6225 0.695 0.635 c 0
 0.6925 0.6475 0.69 0.66 0.69 0.67 c 0
 0.69 0.86 0.81 1.05 0.99 1.13 c 0
 1.02 1.14 1.03 1.16 1.03 1.18 c 0
 1.03 1.18414213562 1.02828427125 1.18656854249 1.02627416998 1.18941125497 c 0
 1.02343145751 1.19343145751 1.02 1.19828427125 1.02 1.21 c 2
 1.02 1.22 l 2
 1.02 1.24 1.02 1.25 1.02 1.27 c 0
 1.02 1.3 1.03 1.34 1.05 1.36 c 0x20
1.25 1.3 m 0
 1.23 1.32 1.21 1.34 1.18 1.34 c 0
 1.13 1.34 1.09 1.3 1.09 1.26 c 0
 1.09 1.25 1.09 1.24 1.1 1.22 c 0
 1.12 1.19 1.14 1.18 1.17 1.18 c 0
 1.2 1.18 1.23 1.21 1.25 1.24 c 0
 1.26 1.25 1.26 1.26 1.26 1.27 c 0
 1.26 1.28 1.26 1.29 1.25 1.3 c 0
1.38 1.01 m 0
 1.32 1.05 1.24 1.07 1.16 1.07 c 0
 1.08 1.07 1 1.05 0.95 1.01 c 0
 0.88 0.95 0.8 0.78 0.8 0.69 c 0
 0.8 0.6 0.89 0.44 0.96 0.39 c 0
 1.01 0.36 1.09 0.34 1.17 0.34 c 0
 1.25 0.34 1.32 0.35 1.37 0.38 c 0
 1.48 0.44 1.55 0.55 1.55 0.69 c 0
 1.55 0.83 1.49 0.95 1.38 1.01 c 0
0.78 0.43 m 0
 0.77 0.45 0.74 0.47 0.71 0.47 c 0
 0.68 0.47 0.66 0.46 0.64 0.44 c 0
 0.637320508076 0.434641016151 0.634641016151 0.43 0.632153903092 0.425692193817 c 0
 0.625358983849 0.413923048454 0.62 0.404641016151 0.62 0.39 c 0
 0.62 0.35 0.65 0.32 0.69 0.31 c 2
 0.7 0.31 l 2
 0.74 0.31 0.78 0.34 0.78 0.39 c 0
 0.78 0.393027756377 0.780916730868 0.396972243623 0.781917501285 0.40127833419 c 0
 0.784222051019 0.411194294641 0.786972243623 0.423027756377 0.78 0.43 c 0
1.74 0.43 m 0
 1.72 0.45 1.7 0.47 1.68 0.47 c 0
 1.65 0.47 1.62 0.45 1.59 0.41 c 0
 1.57 0.39 1.56 0.38 1.58 0.36 c 0
 1.61 0.33 1.64 0.32 1.68 0.32 c 0
 1.73 0.32 1.76 0.34 1.76 0.38 c 0
 1.76 0.394641016151 1.75464101615 0.403923048454 1.74784609691 0.415692193817 c 0
 1.74535898385 0.42 1.74267949192 0.424641016151 1.74 0.43 c 0
EndSplineSet
Validated: 1
EndChar

StartChar: c
Encoding: 99 99 46
Width: 2
Flags: W
HStem: -19.16 20G<0.83 0.895> -19.16 20G<0.83 0.895> -18.84 20G<0.83 0.895 1.16 1.20198 1.785 1.87> -18.84 20G<0.83 0.895 1.16 1.20198 1.785 1.87> -0.05 21.74G<0.815 0.95 1.605 1.61 1.805 1.875> -0.05 21.74G<0.815 0.95 1.605 1.61 1.805 1.875> 0.96 20.73G<1.605 1.61 1.805 1.875> 0.96 20.73G<1.605 1.61 1.805 1.875>
LayerCount: 2
Back
Fore
SplineSet
1.22 1.1 m 0x08
 1.21666666667 1.10333333333 1.21333333333 1.10555555556 1.21 1.10777777778 c 0
 1.20333333333 1.11222222222 1.19666666667 1.11666666667 1.19 1.13 c 0
 1.18333333333 1.14333333333 1.17666666667 1.14777777778 1.17 1.15222222222 c 0
 1.16666666667 1.15444444444 1.16333333333 1.15666666667 1.16 1.16 c 1
 1.16 1.16 1.17 1.16 1.18 1.16 c 0
 1.22396262444 1.15560373756 1.25439626244 1.15120747511 1.27894795365 1.14766088374 c 0
 1.31024299936 1.14314018746 1.33198131222 1.14 1.36 1.14 c 0
 1.3788854382 1.14 1.3977708764 1.1377708764 1.417708764 1.135417528 c 0
 1.44 1.1327864045 1.46360679775 1.13 1.49 1.13 c 0
 1.56 1.12 1.57 1.12 1.57 1.12 c 1
 1.57 1.12 1.58 1.04 1.59 0.91 c 0
 1.59 0.9 1.59 0.89 1.59 0.88 c 0
 1.59413200452 0.838679954823 1.59826400904 0.807603986447 1.60169053736 0.781833761516 c 0
 1.6065566629 0.745236617725 1.61 0.719339977412 1.61 0.69 c 1
 1.6 0.7 1.59 0.71 1.58 0.72 c 0
 1.57618033989 0.723819660113 1.57381966011 0.727639320225 1.57180339887 0.730901699437 c 0
 1.56854101966 0.736180339887 1.56618033989 0.74 1.56 0.74 c 0
 1.53 0.77 1.51 0.81 1.51 0.87 c 0
 1.51 0.9 1.51 0.92 1.51 0.95 c 1
 1.49 0.93 1.465 0.9075 1.44 0.885 c 0
 1.415 0.8625 1.39 0.84 1.37 0.82 c 0
 1.35 0.8 1.34 0.79 1.31 0.75 c 0
 1.28949874371 0.722664991614 1.27366750419 0.709340033543 1.25931490776 0.697259631026 c 0
 1.25266499161 0.691662479036 1.24633249581 0.686332495807 1.24 0.68 c 1
 1.25 0.67 1.26 0.66 1.27 0.64 c 0
 1.28 0.63 1.28 0.62 1.28 0.61 c 0
 1.31 0.56 1.33 0.48 1.33 0.37 c 0
 1.33 0.28 1.31 0.24 1.27 0.18 c 0
 1.17 0.04 1.02 -0.05 0.88 -0.05 c 0
 0.75 -0.05 0.6 0.04 0.51 0.16 c 0
 0.46 0.23 0.43 0.32 0.43 0.4 c 0
 0.43 0.55 0.51 0.69 0.64 0.77 c 0
 0.71 0.82 0.79 0.84 0.87 0.84 c 0
 0.92 0.84 0.98 0.83 1.04 0.81 c 0
 1.05414213562 0.802928932188 1.06328427125 0.800857864376 1.08156854249 0.796715728753 c 0
 1.08914213562 0.795 1.09828427125 0.792928932188 1.11 0.79 c 0
 1.125 0.785 1.135 0.78 1.1425 0.77625 c 0
 1.15 0.7725 1.155 0.77 1.16 0.77 c 0
 1.18 0.79 1.2 0.81 1.23 0.84 c 0
 1.26 0.87 1.27 0.88 1.29 0.9 c 0
 1.31 0.92 1.3325 0.945 1.355 0.97 c 0
 1.3775 0.995 1.4 1.02 1.42 1.04 c 1
 1.4 1.04 1.37 1.04 1.35 1.04 c 0
 1.3 1.04 1.26 1.06 1.22 1.1 c 0x08
1.05 0.67 m 0
 1 0.7 0.95 0.72 0.89 0.72 c 0
 0.72 0.72 0.56 0.57 0.56 0.4 c 0
 0.56 0.36 0.57 0.31 0.59 0.27 c 0
 0.64 0.16 0.76 0.08 0.88 0.08 c 0
 0.95 0.08 1.03 0.11 1.08 0.15 c 0
 1.16 0.21 1.2 0.3 1.2 0.4 c 0
 1.2 0.51 1.14 0.61 1.05 0.67 c 0
1.68 1.32 m 0
 1.71 1.35 1.76 1.37 1.81 1.37 c 0
 1.93 1.37 2.02 1.29 2.02 1.19 c 0
 2.02 1.09 1.92 0.96 1.83 0.96 c 0x02
 1.78 0.96 1.7 1.01 1.66 1.05 c 0
 1.64 1.08 1.62 1.12 1.62 1.16 c 0
 1.62 1.22 1.64 1.28 1.68 1.32 c 0
1.91 1.23 m 0
 1.89 1.25 1.84 1.27 1.79 1.27 c 0
 1.77 1.27 1.75 1.27 1.74 1.26 c 0
 1.73 1.25 1.72 1.21 1.72 1.18 c 0
 1.72 1.12 1.77 1.07 1.83 1.07 c 0
 1.87 1.07 1.91 1.09 1.92 1.14 c 0
 1.92 1.16 1.92 1.16 1.92 1.17 c 0
 1.92 1.19 1.92 1.21 1.91 1.23 c 0
EndSplineSet
Validated: 1
EndChar

StartChar: d
Encoding: 100 100 47
Width: 2
Flags: W
HStem: -19.23 20G<0.745 0.84> -19.23 20G<0.745 0.84 1.26 1.44> -19.23 20G<0.745 0.84 1.26 1.44> 0.83 21.08G<0.6 0.615 1.65 1.67> 0.83 21.08G<0.6 0.615 1.65 1.67> 0.83 20.26G<0.6 0.615 0.725 0.795 1.145 1.15 1.65 1.67> 0.83 20.26G<0.6 0.615 0.725 0.795 1.145 1.15 1.65 1.67>
VStem: 0.43 0.65<0.3 0.49>
LayerCount: 2
Back
Fore
SplineSet
0.63 0.74 m 0x01
 0.67 0.76 0.72 0.77 0.77 0.77 c 0
 0.88 0.77 0.97 0.72 1.03 0.63 c 0
 1.06 0.58 1.08 0.51 1.08 0.44 c 0
 1.08 0.3 1.02 0.16 0.93 0.12 c 0
 0.89 0.1 0.83 0.09 0.76 0.09 c 0
 0.69 0.09 0.62 0.1 0.58 0.12 c 0
 0.49 0.17 0.43 0.29 0.43 0.42 c 0
 0.43 0.49 0.45 0.56 0.48 0.61 c 0
 0.51 0.66 0.57 0.71 0.63 0.74 c 0x01
0.9 0.61 m 0
 0.87 0.64 0.81 0.66 0.76 0.66 c 0
 0.72 0.66 0.68 0.65 0.65 0.63 c 0
 0.59 0.59 0.56 0.51 0.56 0.42 c 0
 0.56 0.4 0.56 0.37 0.57 0.33 c 0
 0.6 0.24 0.68 0.18 0.77 0.18 c 0
 0.82 0.18 0.87 0.2 0.9 0.24 c 0
 0.94 0.28 0.96 0.35 0.96 0.42 c 0
 0.96 0.5 0.94 0.57 0.9 0.61 c 0
1.27 1.31 m 0
 1.26 1.32 1.26 1.32 1.26 1.32 c 1
 1.62 1.32 1.68 1.32 1.69 1.29 c 0
 1.7 1.27 1.7 1.24 1.7 1.17 c 0
 1.7 1.04 1.68 0.91 1.66 0.91 c 0
 1.64 0.91 1.61 0.98 1.61 1.06 c 0
 1.61 1.09 1.61 1.12 1.61 1.15 c 1
 1.59 1.13 1.57 1.11 1.52 1.06 c 0
 1.48937129434 1.02937129434 1.46624752956 1.01 1.44833003941 0.99499011823 c 0
 1.43699802365 0.985497035469 1.42774851773 0.977748517734 1.42 0.97 c 0
 1.39 0.94 1.36 0.9075 1.33 0.875 c 0
 1.3 0.8425 1.27 0.81 1.24 0.78 c 0
 1.24 0.77 1.24 0.77 1.25 0.76 c 0
 1.26 0.74 1.27 0.73 1.28 0.72 c 0
 1.31 0.67 1.33 0.55 1.33 0.44 c 0
 1.33 0.38 1.32 0.33 1.31 0.28 c 0
 1.29 0.22 1.24 0.12 1.16 -0.01 c 2
 1.16 -0.02 l 2
 1.15 -0.03 1.15 -0.03 1.15 -0.03 c 2
 1.14 -0.03 1.13 -0.02 1.1 0.01 c 0
 1.08674772708 0.0232522729151 1.07739818167 0.030650454583 1.07108936358 0.0356425456649 c 0
 1.06311651514 0.0419513637491 1.06 0.044417424305 1.06 0.05 c 2
 1.06 0.05 1.07 0.06 1.07 0.07 c 0
 1.15 0.21 1.19 0.36 1.19 0.48 c 0
 1.19 0.52 1.18 0.56 1.17 0.6 c 0
 1.12 0.75 0.96 0.86 0.78 0.86 c 0
 0.74 0.86 0.7 0.85 0.66 0.84 c 0
 0.64 0.83 0.62 0.83 0.61 0.83 c 0x11
 0.59 0.83 0.58 0.84 0.56 0.86 c 0
 0.55 0.87 0.55 0.88 0.55 0.89 c 0
 0.55 0.92 0.58 0.94 0.65 0.96 c 0
 0.7 0.97 0.75 0.98 0.8 0.98 c 0
 0.88 0.98 0.97 0.96 1.04 0.93 c 0
 1.04828427125 0.925857864376 1.05656854249 0.923431457505 1.06627416998 0.92058874503 c 0
 1.08 0.916568542495 1.09656854249 0.911715728753 1.12 0.9 c 0
 1.13 0.895 1.135 0.89 1.13875 0.88625 c 0
 1.1425 0.8825 1.145 0.88 1.15 0.88 c 0
 1.18 0.91 1.21 0.94 1.27 1 c 0
 1.3 1.03 1.32 1.05 1.33 1.06 c 0
 1.33774851773 1.06774851773 1.34549703547 1.07399604729 1.35499011823 1.08165019705 c 0
 1.37 1.09375247044 1.38937129434 1.10937129434 1.42 1.14 c 0
 1.47 1.19 1.49 1.21 1.51 1.23 c 1
 1.48 1.23 1.45 1.23 1.42 1.23 c 0
 1.36 1.23 1.32 1.26 1.27 1.31 c 0
EndSplineSet
Validated: 1
EndChar

StartChar: e
Encoding: 101 101 48
Width: 2
Flags: W
HStem: -18.89 20G<0.984686 1.005> -18.89 20G<0.984686 1.005> -18.89 20G<0.984686 1.005> -0.07 21G<0.975 1> -0.07 21G<0.975 1>
LayerCount: 2
Back
Fore
SplineSet
0.9 1.02 m 0x10
 0.907748517734 1.02774851773 0.916998023646 1.03549703547 0.92833003941 1.04499011823 c 0
 0.946247529557 1.06 0.969371294336 1.07937129434 1 1.11 c 0
 1.01 1.1 1.02 1.09 1.04 1.07 c 0
 1.07 1.04 1.08 1.03 1.09 1.02 c 0
 1.09366025404 1.01633974596 1.09866025404 1.01267949192 1.105 1.00803847577 c 0
 1.11598076211 1 1.13098076211 0.989019237886 1.15 0.97 c 0
 1.17 0.95 1.18 0.94 1.19 0.93 c 1
 1.18 0.93 1.17 0.93 1.15 0.93 c 0
 1.13828427125 0.93 1.13343145751 0.926568542495 1.12941125497 0.92372583002 c 0
 1.12656854249 0.921715728753 1.12414213562 0.92 1.12 0.92 c 0
 1.05 0.91 1.05 0.91 1.05 0.83 c 0
 1.05 0.78 1.05 0.78 1.11 0.78 c 0
 1.2 0.78 1.2 0.78 1.2 0.74 c 0
 1.2 0.7 1.2 0.69 1.11 0.69 c 0
 1.05 0.69 1.05 0.69 1.05 0.62 c 0
 1.05 0.6 1.05 0.57 1.05 0.55 c 1
 1.07 0.55 1.1 0.55 1.15 0.55 c 0
 1.2 0.55 1.22 0.55 1.24 0.55 c 0
 1.24774851773 0.55 1.25699802365 0.548499011823 1.26833003941 0.54666007882 c 0
 1.28624752956 0.543752470443 1.30937129434 0.54 1.34 0.54 c 0
 1.39 0.54 1.41 0.54 1.43 0.54 c 1
 1.41367006838 0.523670068381 1.40400680343 0.507340136763 1.38468027353 0.474680273526 c 0
 1.38033673505 0.467340136763 1.37550510257 0.459175170954 1.37 0.45 c 0
 1.36 0.435 1.35 0.425 1.34125 0.41625 c 0
 1.3325 0.4075 1.325 0.4 1.32 0.39 c 0
 1.28090161656 0.34308193987 1.22345903006 0.259475473636 1.15723528965 0.163088224125 c 0
 1.13877043864 0.136213025131 1.11962290981 0.108344203053 1.1 0.08 c 0
 1.09438447187 0.0687689437438 1.08561552813 0.0575378874876 1.07546397818 0.0445360218225 c 0
 1.06753788749 0.0343844718719 1.05876894374 0.0231534156157 1.05 0.01 c 0
 1.02 -0.04 1.01 -0.05 0.99 -0.07 c 1
 0.96 -0.03 0.93 0.01 0.89 0.07 c 0
 0.86807764064 0.100691303103 0.844232921921 0.133304965566 0.822680109112 0.162783869065 c 0
 0.795075774975 0.200539753153 0.771231056256 0.233153415616 0.76 0.25 c 0
 0.743700546606 0.266299453394 0.721497266969 0.300310385517 0.698201618124 0.335994606253 c 0
 0.678620401809 0.365989067877 0.658267395475 0.397165755656 0.64 0.42 c 0
 0.62 0.45 0.6 0.48 0.55 0.55 c 1
 0.61 0.55 0.68 0.55 0.74 0.55 c 0
 0.8 0.55 0.87 0.55 0.93 0.55 c 1
 0.93 0.57 0.93 0.6 0.93 0.62 c 0
 0.93 0.69 0.93 0.69 0.87 0.69 c 0
 0.78 0.69 0.78 0.7 0.78 0.74 c 0
 0.78 0.78 0.78 0.78 0.87 0.78 c 0
 0.93 0.78 0.93 0.79 0.93 0.84 c 0
 0.93 0.92 0.93 0.92 0.87 0.92 c 0
 0.85 0.92 0.83 0.92 0.81 0.92 c 1
 0.82 0.93 0.83 0.94 0.85 0.96 c 0
 0.869019237886 0.979019237886 0.88 0.994019237886 0.888038475773 1.005 c 0
 0.892679491924 1.01133974596 0.896339745962 1.01633974596 0.9 1.02 c 0x10
1.24 0.45 m 0
 1.24 0.46 1.14 0.47 0.98 0.47 c 0
 0.83 0.47 0.74 0.47 0.74 0.46 c 0
 0.74 0.45 0.86 0.28 0.9 0.24 c 0
 0.92 0.22 0.95 0.18 0.96 0.16 c 0
 0.97 0.14 0.98 0.12 0.99 0.11 c 1
 1.00171572875 0.121715728753 1.00656854249 0.133431457505 1.01058874503 0.14313708499 c 0
 1.01343145751 0.15 1.01585786438 0.155857864376 1.02 0.16 c 0
 1.1 0.26 1.24 0.44 1.24 0.45 c 0
EndSplineSet
Validated: 1
EndChar

StartChar: f
Encoding: 102 102 49
Width: 2
Flags: W
HStem: -19.8 19.99G<0.675 0.77 1.195 1.225> -19.8 19.99G<0.675 0.77 1.195 1.225> -18.59 20G<0.66 0.7 0.95 0.99 1.195 1.225 1.26 1.315> -18.59 20G<0.66 0.7 0.95 0.99 1.26 1.315> -0.13 21G<0.485 0.535 0.825 0.835 0.96 1.00345 1.135 1.145 1.42 1.47> -0.13 21G<0.485 0.535 0.96 1.00345 1.42 1.47> 1.15 20.99G<0.825 0.835 1.135 1.145> 1.15 20.99G<0.825 0.835 1.135 1.145>
LayerCount: 2
Back
Fore
SplineSet
0.55 1.35 m 0x08
 0.59 1.39 0.64 1.41 0.68 1.41 c 0
 0.72 1.41 0.75 1.4 0.78 1.37 c 2
 0.78 1.37 0.79 1.36 0.8 1.35 c 0
 0.81 1.34 0.82 1.33 0.83 1.32 c 0
 0.834142135624 1.32414213562 0.838284271247 1.33 0.84313708499 1.33686291501 c 0
 0.85 1.34656854249 0.858284271247 1.35828427125 0.87 1.37 c 0
 0.9 1.4 0.93 1.41 0.97 1.41 c 0
 1.01 1.41 1.05 1.4 1.08 1.37 c 0
 1.09 1.36 1.09 1.36 1.11 1.34 c 0
 1.12 1.33 1.12 1.32 1.12 1.32 c 1
 1.13 1.33 1.13 1.33 1.14 1.34 c 0
 1.15 1.35 1.16 1.36 1.17 1.37 c 0
 1.2 1.4 1.24 1.41 1.28 1.41 c 0
 1.35 1.41 1.43 1.37 1.46 1.31 c 0
 1.48 1.26 1.5 1.18 1.5 1.09 c 0
 1.5 1.02 1.49 0.94 1.47 0.89 c 0
 1.42 0.74 1.26 0.6 1.11 0.56 c 0
 1.06 0.55 1.05 0.54 1.04 0.46 c 2
 1.04 0.46 1.04 0.46 1.04 0.45 c 2
 1.04 0.44 l 2
 1.04 0.42 1.05 0.41 1.09 0.41 c 0
 1.2 0.4 1.23 0.39 1.23 0.35 c 0
 1.23 0.33 1.21 0.33 1.14 0.33 c 0
 1.11 0.33 1.07 0.33 1.04 0.33 c 1
 1.04 0.3 1.04 0.26 1.04 0.23 c 0
 1.04 0.2 1.04 0.17 1.04 0.14 c 1
 1.06 0.15 1.08 0.16 1.1 0.17 c 0
 1.14 0.19 1.18 0.2 1.21 0.2 c 0
 1.24 0.2 1.27 0.2 1.3 0.18 c 0
 1.4 0.13 1.47 0.03 1.49 -0.09 c 0
 1.49 -0.1 1.49 -0.1 1.49 -0.11 c 0
 1.49 -0.13 1.49 -0.13 1.45 -0.13 c 0
 1.39 -0.13 1.37 -0.12 1.36 -0.08 c 0
 1.34 0 1.3 0.06 1.26 0.09 c 0
 1.24 0.11 1.22 0.11 1.2 0.11 c 0
 1.14 0.11 1.08 0.05 1.05 -0.06 c 0
 1.04876274794 -0.063711756185 1.04760203551 -0.067232163287 1.04650129042 -0.0705706911878 c 0
 1.02980865092 -0.121198982245 1.02690686985 -0.13 0.98 -0.13 c 0
 0.94 -0.13 0.92 -0.12 0.91 -0.07 c 0
 0.89 0.02 0.84 0.09 0.79 0.11 c 0
 0.78 0.11 0.77 0.11 0.76 0.11 c 0
 0.69 0.11 0.63 0.03 0.6 -0.08 c 0
 0.59 -0.13 0.57 -0.13 0.5 -0.13 c 0
 0.47 -0.13 0.46 -0.12 0.46 -0.11 c 2
 0.46 -0.11 0.46 -0.1 0.46 -0.09 c 0
 0.5 0.09 0.6 0.19 0.75 0.19 c 0
 0.79 0.19 0.83 0.18 0.87 0.17 c 0
 0.88 0.17 0.88 0.17 0.89 0.17 c 0
 0.91 0.17 0.92 0.17 0.92 0.24 c 0
 0.92 0.27 0.92 0.3 0.92 0.33 c 1
 0.89 0.33 0.85 0.33 0.82 0.33 c 0
 0.74 0.33 0.73 0.33 0.73 0.37 c 0
 0.73 0.41 0.75 0.41 0.84 0.41 c 0
 0.92 0.41 0.92 0.41 0.92 0.47 c 0
 0.92 0.537606658155 0.910672121986 0.539918170212 0.87399846138 0.549006154479 c 0
 0.872700177913 0.549327878014 0.871367623911 0.549658094022 0.87 0.55 c 0
 0.73 0.58 0.58 0.7 0.51 0.83 c 0
 0.47 0.9 0.45 0.98 0.45 1.07 c 0
 0.45 1.18 0.49 1.29 0.55 1.35 c 0x08
0.77 1.28 m 0
 0.76 1.3 0.72 1.31 0.69 1.31 c 0
 0.65 1.31 0.63 1.29 0.61 1.23 c 0
 0.6 1.21 0.58 1.16 0.58 1.15 c 0
 0.58 1.13 0.71 1.12 0.98 1.12 c 0
 1.11 1.12 1.25 1.12 1.38 1.12 c 1
 1.38 1.12414213562 1.37828427125 1.12656854249 1.37627416998 1.12941125497 c 0
 1.37343145751 1.13343145751 1.37 1.13828427125 1.37 1.15 c 0x01
 1.37 1.16171572875 1.36656854249 1.16656854249 1.36372583002 1.17058874503 c 0
 1.36171572875 1.17343145751 1.36 1.17585786438 1.36 1.18 c 0
 1.34 1.27 1.32 1.31 1.27 1.31 c 0
 1.21 1.31 1.15 1.24 1.15 1.17 c 0
 1.15 1.15 1.15 1.14 1.14 1.14 c 0
 1.13 1.14 1.09 1.18 1.07 1.24 c 0
 1.05 1.3 1.04 1.31 0.99 1.31 c 0
 0.92 1.31 0.89 1.29 0.87 1.21 c 0
 0.86 1.17 0.84 1.15 0.83 1.15 c 0x02
 0.82 1.15 0.81 1.17 0.8 1.2 c 0
 0.79 1.24 0.78 1.27 0.77 1.28 c 0
1.35 1.02 m 0
 1.35 1.06 1.35 1.06 1.14 1.06 c 0
 0.79 1.06 0.6 1.05 0.59 1.04 c 2
 0.59 1.04 0.59 1.04 0.59 1.03 c 0
 0.59 0.99 0.63 0.89 0.67 0.83 c 0
 0.74 0.73 0.87 0.66 0.98 0.66 c 0
 0.99 0.66 0.9975 0.6625 1.005 0.665 c 0
 1.0125 0.6675 1.02 0.67 1.03 0.67 c 0
 1.19 0.7 1.35 0.88 1.35 1.02 c 0
EndSplineSet
Validated: 1
EndChar

StartChar: g
Encoding: 103 103 50
Width: 2
Flags: W
HStem: -19.48 20G<1.135 1.21> -19.48 20G<1.135 1.21> -18.64 20G<0.735 0.82 1.135 1.21> -18.64 20G<0.735 0.82 1.135 1.21> 0.09 21.07G<0.735 0.785 1.13 1.2> 0.09 21.07G<0.735 0.785 1.13 1.2>
LayerCount: 2
Back
Fore
SplineSet
0.62 1.34 m 0x08
 0.67 1.36 0.72 1.36 0.75 1.36 c 0
 0.89 1.36 1.07 1.24 1.13 1.1 c 0
 1.15 1.06 1.16 1.02 1.16 0.97 c 0
 1.16 0.81 1.04 0.65 0.86 0.57 c 0
 0.81 0.55 0.81 0.53 0.81 0.45 c 0
 0.81 0.41 0.81 0.41 0.86 0.41 c 0
 0.95 0.41 1 0.42 1.03 0.46 c 0
 1.06 0.5 1.11 0.52 1.16 0.52 c 0
 1.26 0.52 1.35 0.43 1.35 0.34 c 0
 1.35 0.32 1.35 0.31 1.34 0.29 c 0
 1.31 0.22 1.24 0.16 1.16 0.16 c 0
 1.1 0.16 1.06 0.19 1.03 0.23 c 0
 1.01 0.27 0.97 0.28 0.9 0.28 c 0
 0.87 0.28 0.84 0.28 0.81 0.28 c 1
 0.81 0.25 0.81 0.22 0.81 0.19 c 0
 0.81 0.1 0.81 0.09 0.76 0.09 c 0
 0.71 0.09 0.7 0.1 0.7 0.19 c 0
 0.7 0.22 0.7 0.25 0.7 0.28 c 1
 0.66 0.28 0.63 0.28 0.59 0.28 c 0
 0.5 0.28 0.49 0.29 0.49 0.31 c 2
 0.49 0.31 0.49 0.31 0.49 0.32 c 0
 0.5 0.39 0.5 0.39 0.61 0.4 c 0
 0.612352942304 0.400294117788 0.614645330915 0.400579585048 0.616878692401 0.400857673918 c 0
 0.616937719287 0.4008650237 0.616996704941 0.400872368328 0.617055649392 0.400879707826 c 0
 0.690594668586 0.410036455321 0.7 0.411207564832 0.7 0.45 c 0
 0.7 0.53 0.7 0.55 0.65 0.57 c 0
 0.53 0.61 0.4 0.72 0.36 0.83 c 0
 0.34 0.87 0.34 0.91 0.34 0.95 c 0
 0.34 1.12 0.46 1.28 0.62 1.34 c 0x08
0.82 1.24 m 0
 0.81 1.24 0.79 1.24 0.77 1.25 c 2
 0.77 1.25 0.76 1.25 0.75 1.25 c 0
 0.71 1.25 0.65 1.23 0.6 1.21 c 0
 0.52 1.17 0.47 1.07 0.47 0.96 c 0
 0.47 0.89 0.49 0.83 0.52 0.78 c 0
 0.57 0.71 0.65 0.67 0.74 0.67 c 0
 0.9 0.67 1.04 0.79 1.04 0.93 c 0
 1.04 0.94 1.04 0.96 1.04 0.98 c 0
 1.02 1.1 0.89 1.24 0.82 1.24 c 0
1.25 0.39 m 0
 1.24 0.42 1.21 0.43 1.17 0.43 c 0
 1.11 0.43 1.07 0.4 1.07 0.35 c 0
 1.07 0.33 1.08 0.31 1.09 0.29 c 0
 1.11 0.26 1.15 0.24 1.18 0.24 c 0
 1.22 0.24 1.26 0.29 1.26 0.35 c 0
 1.26 0.36 1.26 0.38 1.25 0.39 c 0
EndSplineSet
Validated: 1
EndChar

StartChar: h
Encoding: 104 104 51
Width: 2
Flags: W
HStem: -18.96 20G<0.675 0.735> -18.96 20G<0.675 0.735> -18.78 19.82G<0.675 0.735 0.85 0.961716 1.355 1.385> -18.78 19.82G<0.675 0.735 0.85 0.961716 1.355 1.385> 0.02 21.86G<0.69 0.73 1.2 1.2 1.32 1.41> 0.02 21.86G<0.69 0.73 1.2 1.2 1.32 1.41> 1.01 20.87G<1.2 1.2 1.32 1.41> 1.01 20.87G<1.2 1.2 1.32 1.41>
LayerCount: 2
Back
Fore
SplineSet
0.88 1.18 m 0x08
 0.87 1.19 0.86 1.2 0.85 1.21 c 2
 0.85 1.22 l 1
 0.88 1.22 0.9 1.22 0.95 1.22 c 0
 0.973431457505 1.22 0.986568542495 1.21656854249 0.997451660041 1.21372583002 c 0
 1.00514718626 1.21171572875 1.01171572875 1.21 1.02 1.21 c 0
 1.04 1.21 1.05 1.21 1.1 1.21 c 0
 1.15 1.21 1.17 1.21 1.19 1.21 c 1
 1.19 1.19 1.19 1.17 1.19 1.13 c 0
 1.19 1.10656854249 1.19343145751 1.08656854249 1.19627416998 1.07 c 0
 1.19828427125 1.05828427125 1.2 1.04828427125 1.2 1.04 c 0
 1.2 1.02 1.2 1 1.2 0.96 c 0
 1.2 0.92 1.2 0.9 1.2 0.88 c 1
 1.2 0.88 1.19 0.89 1.18 0.9 c 0
 1.17 0.91 1.17 0.91 1.17 0.91 c 2
 1.15 0.93 1.13 0.97 1.13 1.01 c 0x01
 1.13 1.04 1.12 1.06 1.11 1.06 c 0
 1.10381966011 1.06 1.09 1.04854101966 1.07090169944 1.03270509831 c 0
 1.05909830056 1.02291796068 1.04527864045 1.01145898034 1.03 1 c 0
 1.02585786438 0.995857864376 1.02171572875 0.993431457505 1.01686291501 0.99058874503 c 0
 1.01 0.986568542495 1.00171572875 0.981715728753 0.99 0.97 c 0
 0.97 0.95 0.97 0.95 0.96 0.94 c 0
 0.96 0.933819660113 0.963819660113 0.927639320225 0.969098300563 0.919098300563 c 0
 0.972360679775 0.913819660113 0.976180339887 0.907639320225 0.98 0.9 c 0
 0.99 0.88 0.99 0.88 0.99 0.87 c 0
 1.01 0.83 1.02 0.77 1.02 0.71 c 0
 1.02 0.66 1.02 0.63 1 0.59 c 0
 0.96 0.51 0.86 0.42 0.78 0.4 c 0
 0.75 0.39 0.75 0.39 0.75 0.33 c 0
 0.75 0.31 0.75 0.28 0.75 0.26 c 1
 0.78 0.26 0.8 0.26 0.83 0.26 c 0
 0.9 0.26 0.9 0.26 0.9 0.22 c 0
 0.9 0.18 0.9 0.17 0.83 0.17 c 0
 0.8 0.17 0.78 0.17 0.75 0.17 c 1
 0.75 0.14 0.75 0.13 0.75 0.1 c 0
 0.75 0.03 0.75 0.02 0.71 0.02 c 0
 0.67 0.02 0.66 0.02 0.66 0.09 c 0
 0.66 0.1 0.66 0.11 0.66 0.13 c 0
 0.66 0.141715728753 0.656568542495 0.15 0.65372583002 0.15686291501 c 0
 0.651715728753 0.161715728753 0.65 0.165857864376 0.65 0.17 c 1
 0.64 0.17 0.63 0.17 0.61 0.17 c 0
 0.59 0.17 0.58 0.17 0.57 0.17 c 0
 0.5 0.17 0.49 0.18 0.49 0.22 c 0
 0.49 0.26 0.49 0.26 0.57 0.26 c 0
 0.65 0.26 0.66 0.27 0.66 0.32 c 0
 0.66 0.33 0.66 0.33 0.66 0.34 c 0
 0.66 0.37 0.65 0.38 0.62 0.4 c 0
 0.47 0.47 0.37 0.6 0.37 0.74 c 0
 0.37 0.84 0.42 0.93 0.51 0.99 c 0
 0.57 1.03 0.64 1.04 0.71 1.04 c 0
 0.76 1.04 0.81 1.04 0.84 1.02 c 0
 0.846180339887 1.02 0.848541019662 1.01618033989 0.851803398875 1.01090169944 c 0
 0.853819660113 1.00763932023 0.856180339887 1.00381966011 0.86 1 c 0
 0.88 0.99 0.88 0.99 0.89 0.99 c 0
 0.92 1.02 0.94 1.04 0.97 1.07 c 0
 1 1.1 1.02 1.12 1.05 1.15 c 1
 1.03 1.15 1 1.15 0.98 1.15 c 0
 0.93 1.15 0.9 1.15 0.88 1.18 c 0x08
0.85 0.89 m 0
 0.81 0.93 0.78 0.94 0.71 0.95 c 0
 0.7 0.95 0.68 0.95 0.67 0.95 c 0
 0.6 0.95 0.57 0.93 0.52 0.87 c 0
 0.48 0.82 0.47 0.8 0.47 0.71 c 0
 0.47 0.63 0.48 0.62 0.54 0.56 c 0
 0.6 0.5 0.62 0.49 0.67 0.49 c 0
 0.8 0.49 0.87 0.54 0.91 0.64 c 0
 0.92 0.67 0.93 0.7 0.93 0.73 c 0
 0.93 0.79 0.9 0.84 0.85 0.89 c 0
1.27 1.26 m 0
 1.3 1.29 1.34 1.3 1.37 1.3 c 0
 1.4 1.3 1.42 1.29 1.45 1.27 c 0
 1.49 1.24 1.51 1.19 1.51 1.14 c 0
 1.51 1.06 1.45 1.01 1.37 1.01 c 2
 1.36 1.01 l 2x02
 1.28 1.01 1.22 1.06 1.22 1.14 c 0
 1.22 1.18 1.24 1.23 1.27 1.26 c 0
1.39 1.23 m 0
 1.38 1.24 1.37 1.24 1.36 1.24 c 0
 1.35 1.24 1.33 1.23 1.32 1.22 c 0
 1.3 1.2 1.29 1.17 1.29 1.14 c 0
 1.29 1.1 1.32 1.08 1.36 1.08 c 0
 1.41 1.08 1.44 1.11 1.44 1.15 c 0
 1.44 1.18 1.42 1.21 1.39 1.23 c 0
EndSplineSet
Validated: 1
EndChar

StartChar: i
Encoding: 105 105 52
Width: 2
Flags: W
HStem: -19.39 20G<0.495 0.505 0.915 0.922887> -19.39 20G<0.495 0.505 0.915 0.922887> -18.57 19.18G<0.495 0.505 0.69 0.835 0.915 0.922887> -18.57 19.18G<0.495 0.505 0.69 0.835 0.915 0.922887> 0.08 21.21G<0.36 0.455 0.485 0.494302 0.66 0.76 0.92 0.935 0.985 1.05> 0.08 21.21G<0.36 0.455 0.485 0.494302 0.66 0.76 0.92 0.935 0.985 1.05> 0.29 21G<0.36 0.455 0.985 1.05> 0.29 21G<0.36 0.455 0.985 1.05>
LayerCount: 2
Back
Fore
SplineSet
0.58 1.41 m 0x02
 0.62 1.43 0.67 1.43 0.71 1.43 c 0
 0.73 1.43 0.74 1.43 0.75 1.43 c 0
 0.92 1.41 1.06 1.26 1.06 1.1 c 0
 1.06 1.08098076211 1.05598076211 1.07 1.05303847577 1.06196152423 c 0
 1.05133974596 1.05732050808 1.05 1.05366025404 1.05 1.05 c 0
 1.03 0.92 0.91 0.79 0.78 0.75 c 0
 0.767024624957 0.743512312478 0.766676276727 0.737024624957 0.765301587928 0.7114222231 c 0
 0.764557357168 0.697561562392 0.763512312478 0.678098499827 0.76 0.65 c 0
 0.75 0.56 0.75 0.51 0.75 0.48 c 0
 0.75 0.46 0.75 0.46 0.75 0.46 c 1
 0.76 0.46 0.82 0.51 0.89 0.59 c 0
 0.9 0.61 0.91 0.61 0.92 0.61 c 0
 0.925773502692 0.61 0.92821367205 0.606666666667 0.933094010768 0.6 c 0
 0.936666666667 0.595119661283 0.941547005384 0.588452994616 0.95 0.58 c 2
 0.96 0.58 l 2
 0.97 0.57 0.97 0.57 0.97 0.56 c 0
 0.97 0.551614835193 0.962968901116 0.543229670386 0.931219626471 0.505366044119 c 0
 0.925105274849 0.498074175964 0.918074175964 0.489689011157 0.91 0.48 c 0
 0.9 0.47 0.9 0.47 0.9 0.47 c 2
 0.88 0.45 0.86 0.43 0.81 0.38 c 1
 0.85 0.38 0.89 0.38 0.93 0.38 c 0
 0.940909090909 0.38 0.950826446281 0.380082644628 0.959842223892 0.380157776108 c 0
 1.05 0.380909090909 1.05 0.380909090909 1.05 0.29 c 1
 1.03 0.29 1.02 0.29 1.02 0.29 c 2x02
 0.95 0.3 0.89 0.3 0.84 0.3 c 0
 0.82 0.3 0.82 0.3 0.82 0.3 c 1
 0.82 0.29 0.86 0.25 0.93 0.19 c 0
 0.97 0.15 0.98 0.14 0.98 0.13 c 0
 0.98 0.12 0.97 0.11 0.96 0.1 c 0
 0.95 0.09 0.94 0.08 0.93 0.08 c 0
 0.91 0.08 0.89 0.1 0.83 0.16 c 0
 0.794549722437 0.188360222051 0.774180111025 0.211693555384 0.758198889747 0.23 c 0
 0.751639777949 0.237513444359 0.745819888975 0.244180111025 0.74 0.25 c 1
 0.74 0.241010205144 0.742020410289 0.232020410289 0.744244923464 0.222122461732 c 0
 0.746969384567 0.21 0.75 0.196515307717 0.75 0.18 c 0
 0.75 0.15 0.75 0.14 0.75 0.12 c 0
 0.75 0.1 0.75 0.09 0.75 0.06 c 0
 0.75 0.0434846922835 0.753030615433 0.033030615433 0.755755076536 0.0236326148039 c 0
 0.757979589711 0.0159591794227 0.76 0.00898979485566 0.76 0 c 1
 0.74 0 0.73 0 0.71 0 c 0
 0.69 0 0.68 0 0.66 0 c 1
 0.66 0.02 0.66 0.03 0.66 0.06 c 0
 0.66 0.0765153077165 0.663030615433 0.086969384567 0.665755076536 0.0963673851961 c 0
 0.667979589711 0.104040820577 0.67 0.111010205144 0.67 0.12 c 0
 0.67 0.14 0.67 0.15 0.67 0.18 c 0
 0.67 0.196515307717 0.673030615433 0.21 0.675755076536 0.222122461732 c 0
 0.677979589711 0.232020410289 0.68 0.241010205144 0.68 0.25 c 1
 0.66 0.23 0.65 0.22 0.61 0.18 c 0
 0.605 0.175 0.6 0.1725 0.595 0.17 c 0
 0.59 0.1675 0.585 0.165 0.58 0.16 c 2
 0.58 0.15 l 2
 0.570226572702 0.141622776602 0.561622776602 0.134220245868 0.554025307335 0.127683538223 c 0
 0.507207592201 0.0874025307335 0.4986037961 0.08 0.49 0.08 c 0x08
 0.48 0.08 0.47 0.09 0.46 0.1 c 0
 0.455 0.11 0.45 0.115 0.44625 0.11875 c 0
 0.4425 0.1225 0.44 0.125 0.44 0.13 c 0
 0.44 0.14 0.46 0.16 0.49 0.19 c 0
 0.56 0.25 0.6 0.29 0.6 0.3 c 1
 0.6 0.3 0.59 0.3 0.58 0.3 c 0
 0.55 0.3 0.5 0.3 0.41 0.29 c 2
 0.36 0.29 l 1
 0.36 0.380976887482 0.368276794056 0.380909040349 0.460130078321 0.380156093985 c 0
 0.469240112111 0.38008141656 0.479172264978 0.38 0.49 0.38 c 0
 0.53 0.38 0.57 0.38 0.61 0.38 c 1
 0.574549722437 0.408360222051 0.554180111025 0.431693555384 0.538198889747 0.45 c 0
 0.531639777949 0.457513444359 0.525819888975 0.464180111025 0.52 0.47 c 0
 0.46 0.52 0.45 0.53 0.45 0.55 c 0
 0.45 0.56 0.45 0.57 0.47 0.59 c 2
 0.47 0.59 0.47 0.59 0.48 0.6 c 0
 0.49 0.61 0.49 0.61 0.5 0.61 c 0
 0.51 0.61 0.52 0.61 0.55 0.57 c 0
 0.56372583002 0.55627416998 0.57627416998 0.542548339959 0.5884531213 0.52922656065 c 0
 0.611766235091 0.50372583002 0.63372583002 0.479705627485 0.66 0.46 c 2
 0.66 0.45 l 1
 0.67 0.45 0.67 0.49 0.67 0.53 c 0
 0.67 0.59 0.67 0.64 0.66 0.68 c 0
 0.659082895434 0.684585522831 0.658249898946 0.688918721426 0.657462442586 0.693015022966 c 0
 0.649663567686 0.733584310186 0.646331581736 0.750917104566 0.61 0.76 c 0
 0.57 0.77 0.5 0.81 0.46 0.85 c 0
 0.39 0.92 0.36 1 0.36 1.09 c 0
 0.36 1.23 0.45 1.36 0.58 1.41 c 0x02
0.81 1.31 m 0
 0.78 1.33 0.74 1.34 0.7 1.34 c 0
 0.6 1.34 0.52 1.28 0.48 1.18 c 0
 0.47 1.15 0.47 1.11 0.47 1.08 c 0
 0.47 0.95 0.58 0.84 0.71 0.84 c 0
 0.74 0.84 0.77 0.85 0.8 0.86 c 0
 0.86 0.88 0.89 0.91 0.92 0.97 c 0
 0.94 1.01 0.95 1.05 0.95 1.09 c 0
 0.95 1.19 0.9 1.27 0.81 1.31 c 0
EndSplineSet
Validated: 33
EndChar

StartChar: j
Encoding: 106 106 53
Width: 2
Flags: W
HStem: -18.57 20G<0.61 0.665> -18.57 20G<0.61 0.665> 0.27 21G<0.57 0.685> 0.27 21G<0.57 0.685> 0.27 21G<0.57 0.685> 0.27 21G<0.57 0.685>
LayerCount: 2
Back
Fore
SplineSet
0.5 1.39 m 0x20
 0.54 1.42 0.59 1.43 0.63 1.43 c 0
 0.7 1.43 0.77 1.4 0.81 1.34 c 0
 0.84 1.3 0.85 1.26 0.85 1.17 c 0
 0.85 1.1 0.85 1.08 0.81 1.04 c 0
 0.76 0.99 0.72 0.96 0.7 0.96 c 0
 0.68 0.96 0.67 0.95 0.67 0.91 c 0
 0.67 0.88 0.68 0.87 0.76 0.87 c 0
 0.84 0.87 0.85 0.87 0.85 0.84 c 0
 0.85 0.81 0.84 0.8 0.76 0.8 c 0
 0.68 0.8 0.67 0.8 0.67 0.77 c 0
 0.67 0.73 0.68 0.71 0.7 0.71 c 0
 0.72 0.71 0.75 0.69 0.8 0.64 c 0
 0.84 0.6 0.85 0.57 0.85 0.49 c 0
 0.85 0.39 0.85 0.37 0.79 0.31 c 0
 0.75 0.27 0.74 0.27 0.63 0.27 c 0
 0.51 0.27 0.5 0.27 0.46 0.32 c 0
 0.41 0.38 0.4 0.4 0.4 0.46 c 0
 0.4 0.58 0.44 0.65 0.54 0.7 c 0
 0.58 0.72 0.6 0.73 0.6 0.75 c 0
 0.6 0.77 0.55 0.8 0.47 0.8 c 0
 0.41 0.8 0.4 0.81 0.4 0.84 c 0
 0.4 0.87 0.41 0.88 0.47 0.88 c 0
 0.55 0.88 0.6 0.9 0.6 0.92 c 0
 0.6 0.93 0.58 0.95 0.54 0.97 c 0
 0.45 1.01 0.4 1.1 0.4 1.21 c 0
 0.4 1.3 0.43 1.35 0.5 1.39 c 0x20
0.75 1.29 m 0
 0.72 1.33 0.69 1.34 0.64 1.34 c 0
 0.55 1.34 0.47 1.27 0.47 1.18 c 0
 0.47 1.1 0.53 1.05 0.63 1.04 c 0
 0.64 1.04 0.65 1.04 0.66 1.04 c 0
 0.69 1.04 0.7 1.05 0.72 1.07 c 0
 0.76 1.11 0.78 1.15 0.78 1.2 c 0
 0.78 1.23 0.77 1.26 0.75 1.29 c 0
0.73 0.59 m 0
 0.7 0.62 0.67 0.64 0.63 0.64 c 0
 0.54 0.64 0.47 0.57 0.47 0.48 c 0
 0.47 0.39 0.54 0.33 0.63 0.33 c 0
 0.72 0.33 0.78 0.39 0.78 0.48 c 0
 0.78 0.52 0.76 0.56 0.73 0.59 c 0
EndSplineSet
Validated: 1
EndChar

StartChar: k
Encoding: 107 107 54
Width: 1
Flags: W
HStem: -19.11 20G<0.55 0.68> -19.11 20G<0.55 0.68> -19.11 20G<0.55 0.68> -0.01 20.99G<0.505 0.64 1.54691 1.565> -0.01 20.99G<0.505 0.64 1.54691 1.565> 0.38 0.51<1.34 1.6>
LayerCount: 2
Back
Fore
SplineSet
0.41 0.85 m 0x10
 0.46 0.88 0.52 0.89 0.58 0.89 c 0
 0.78 0.89 0.95 0.74 0.98 0.53 c 0
 0.98 0.5 0.99 0.5 1.01 0.5 c 2
 1.01 0.5 1.01 0.5 1.02 0.5 c 0
 1.03 0.5 1.04 0.5 1.04 0.5 c 2
 1.04199497513 0.500221663903 1.04395064235 0.500438414318 1.04586787297 0.500650904729 c 0
 1.13044332781 0.510024567443 1.1402216639 0.511108319516 1.15 0.56 c 0
 1.19 0.74 1.34 0.85 1.57 0.89 c 0
 1.6 0.89 1.6 0.89 1.6 0.85 c 0
 1.6 0.78 1.59 0.77 1.55 0.76 c 0
 1.43 0.74 1.33 0.67 1.29 0.57 c 0
 1.28 0.55 1.27 0.51 1.27 0.51 c 2
 1.27 0.5 1.34 0.5 1.43 0.5 c 0
 1.48 0.5 1.55 0.5 1.6 0.5 c 1
 1.6 0.48 1.6 0.46 1.6 0.44 c 0
 1.6 0.42 1.6 0.4 1.6 0.38 c 1
 1.55 0.38 1.48 0.38 1.43 0.38 c 0
 1.34 0.38 1.27 0.37 1.27 0.36 c 2
 1.27 0.36 1.28 0.32 1.29 0.3 c 0
 1.33 0.2 1.44 0.13 1.55 0.11 c 0
 1.55222222349 0.109444444128 1.55435185428 0.108919752488 1.55639232174 0.108417351678 c 0
 1.55648150425 0.108395393295 1.55657051644 0.108373477493 1.55665935858 0.108351603558 c 0
 1.59112605385 0.0998655153899 1.6 0.0976806500038 1.6 0.06 c 0
 1.6 0.01 1.58 -0.02 1.55 -0.02 c 0
 1.54381966011 -0.02 1.53381966011 -0.0161803398875 1.52 -0.0109016994375 c 0
 1.51145898034 -0.007639320225 1.50145898034 -0.0038196601125 1.49 0 c 0
 1.3 0.06 1.18 0.18 1.14 0.33 c 0
 1.13 0.37 1.12 0.38 1.06 0.38 c 0x04
 1 0.38 0.99 0.37 0.98 0.33 c 0
 0.97 0.25 0.94 0.19 0.89 0.13 c 0
 0.81 0.04 0.7 -0.01 0.58 -0.01 c 0
 0.43 -0.01 0.28 0.07 0.21 0.2 c 0
 0.17 0.27 0.15 0.35 0.15 0.43 c 0
 0.15 0.61 0.25 0.78 0.41 0.85 c 0x10
0.52 0.44 m 0
 0.52 0.63 0.51 0.76 0.5 0.76 c 2
 0.5 0.76 0.47 0.75 0.44 0.73 c 0
 0.35 0.67 0.3 0.56 0.3 0.43 c 0
 0.3 0.3 0.34 0.19 0.43 0.14 c 0
 0.45 0.13 0.49 0.11 0.5 0.11 c 0
 0.51 0.11 0.52 0.25 0.52 0.44 c 0
0.71 0.74 m 0
 0.7 0.75 0.66 0.76 0.65 0.76 c 0
 0.64 0.76 0.64 0.71 0.64 0.63 c 0
 0.64 0.59 0.64 0.54 0.64 0.5 c 1
 0.68 0.5 0.71 0.5 0.75 0.5 c 0
 0.79 0.5 0.82 0.5 0.86 0.5 c 1
 0.86 0.504142135624 0.858284271247 0.506568542495 0.85627416998 0.50941125497 c 0
 0.853431457505 0.513431457505 0.85 0.518284271247 0.85 0.53 c 0
 0.85 0.535 0.8475 0.54 0.845 0.545 c 0
 0.8425 0.55 0.84 0.555 0.84 0.56 c 0
 0.81 0.66 0.79 0.7 0.71 0.74 c 0
0.84 0.31 m 0
 0.84 0.324641016151 0.845358983849 0.339282032303 0.852153903092 0.357846096908 c 0
 0.854641016151 0.364641016151 0.857320508076 0.371961524227 0.86 0.38 c 1
 0.82 0.38 0.79 0.38 0.75 0.38 c 0
 0.71 0.38 0.68 0.38 0.64 0.38 c 1
 0.64 0.34 0.64 0.28 0.64 0.24 c 0
 0.64 0.15 0.64 0.11 0.65 0.11 c 2
 0.65 0.11 0.66 0.11 0.69 0.12 c 0
 0.76 0.15 0.81 0.21 0.84 0.31 c 0
EndSplineSet
Validated: 1
EndChar

StartChar: l
Encoding: 108 108 55
Width: 2
Flags: HW
LayerCount: 2
Back
Fore
SplineSet
0 0 m 0
 0 0 l 0
 0 0 l 0
0 0 m 0
 0 0 l 0
 0 0 l 0
EndSplineSet
EndChar

StartChar: m
Encoding: 109 109 56
Width: 2
Flags: HW
LayerCount: 2
Back
Fore
SplineSet
0 0 m 0
 0 0 l 0
 0 0 l 0
0 0 m 0
 0 0 l 0
0 0 m 2
 0 0 l 0
 0 0 l 2
EndSplineSet
EndChar

StartChar: n
Encoding: 110 110 57
Width: 2
Flags: HW
LayerCount: 2
Back
Fore
SplineSet
0 0 m 0
 0 0 1 0 0 0 c 0
0 0 m 0
 0 0 l 0
0 0 m 2
 0 0 0 1 0 0 c 2
EndSplineSet
EndChar

StartChar: o
Encoding: 111 111 58
Width: 2
Flags: W
HStem: -18.8 20G<0.83 0.915> -18.8 20G<0.83 0.915> 0.34 21G<0.795 0.975> 0.34 21G<0.795 0.975> 0.34 21G<0.795 0.975> 0.34 21G<0.795 0.975>
LayerCount: 2
Back
Fore
SplineSet
0.72 1.18 m 0x20
 0.76 1.19 0.8 1.2 0.86 1.2 c 0
 0.97 1.2 1.08 1.17 1.14 1.13 c 0
 1.23 1.08 1.27 0.98 1.28 0.81 c 2
 1.28 0.8 l 2
 1.28 0.780980762114 1.28401923789 0.765980762114 1.28696152423 0.755 c 0
 1.28866025404 0.748660254038 1.29 0.743660254038 1.29 0.74 c 0
 1.29 0.68 1.28 0.64 1.26 0.59 c 0
 1.2 0.44 1.06 0.34 0.89 0.34 c 0
 0.7 0.34 0.54 0.45 0.49 0.63 c 0
 0.48 0.67 0.47 0.71 0.47 0.76 c 0
 0.47 0.95 0.58 1.13 0.72 1.18 c 0x20
0.83 0.97 m 0
 0.83 1.05 0.82 1.09 0.8 1.09 c 0
 0.76 1.09 0.66 0.98 0.63 0.91 c 0
 0.62 0.89 0.61 0.86 0.61 0.86 c 2
 0.61 0.85 0.65 0.85 0.72 0.85 c 0
 0.76 0.85 0.79 0.85 0.83 0.85 c 1
 0.83 0.89 0.83 0.93 0.83 0.97 c 0
1.01 1.07 m 0
 1 1.08 0.96 1.09 0.96 1.09 c 2
 0.95 1.09 0.95 1.04 0.95 0.97 c 0
 0.95 0.93 0.95 0.89 0.95 0.85 c 1
 0.98 0.85 1.02 0.85 1.05 0.85 c 0
 1.12 0.85 1.15 0.86 1.15 0.89 c 0
 1.15 0.94 1.07 1.04 1.01 1.07 c 0
0.83 0.59 m 0
 0.83 0.64 0.83 0.68 0.83 0.73 c 1
 0.79 0.73 0.76 0.73 0.72 0.73 c 0
 0.63 0.73 0.61 0.72 0.61 0.7 c 0
 0.61 0.69 0.61 0.67 0.62 0.66 c 0
 0.66 0.56 0.76 0.45 0.8 0.45 c 0
 0.82 0.45 0.83 0.5 0.83 0.59 c 0
1.15 0.69 m 0
 1.15 0.72 1.14 0.73 1.05 0.73 c 0
 1.02 0.73 0.98 0.73 0.95 0.73 c 1
 0.95 0.68 0.95 0.64 0.95 0.59 c 0
 0.95 0.51 0.95 0.45 0.96 0.45 c 2
 0.96 0.45 1 0.46 1.02 0.47 c 0
 1.09 0.51 1.15 0.61 1.15 0.69 c 0
EndSplineSet
Validated: 1
EndChar

StartChar: p
Encoding: 112 112 59
Width: 2
Flags: W
HStem: -19.32 19.86G<1.205 1.21 1.47 1.535> -19.32 19.86G<1.205 1.21 1.47 1.535> -18.66 19.2G<0.875 0.955 1.205 1.21 1.47 1.535> -18.66 19.2G<0.875 0.955 1.205 1.21 1.47 1.535> 0.15 21.05G<0.615 0.62 1.105 1.175 1.465 1.515> 0.15 21.05G<1.105 1.175 1.465 1.515> 0.2 21G<0.615 0.62 1.465 1.515>
LayerCount: 2
Back
Fore
SplineSet
0.8 1.33 m 0x08
 0.83 1.34 0.86 1.34 0.89 1.34 c 0
 1.02 1.34 1.16 1.26 1.21 1.15 c 0
 1.23 1.11 1.23 1.08 1.23 1.04 c 0
 1.23 0.92 1.15 0.8 0.97 0.61 c 0
 0.963819660113 0.597639320225 0.953819660113 0.589098300563 0.94 0.577294901688 c 0
 0.931458980338 0.57 0.921458980338 0.561458980338 0.91 0.55 c 0
 0.874852813742 0.514852813742 0.853431457505 0.49 0.835685424949 0.46941125497 c 0
 0.82313708499 0.454852813742 0.812426406871 0.442426406871 0.8 0.43 c 1
 0.85 0.43 0.88 0.43 0.93 0.43 c 0
 1.07 0.43 1.07 0.43 1.07 0.45 c 0
 1.07 0.52 1.09 0.56 1.14 0.61 c 0
 1.15 0.62 1.15 0.62 1.17 0.64 c 0
 1.19 0.66 1.2 0.67 1.21 0.68 c 1
 1.21 0.64 1.21 0.59 1.21 0.55 c 0
 1.21 0.43 1.21 0.43 1.23 0.43 c 0
 1.29 0.43 1.33 0.45 1.37 0.49 c 0
 1.41 0.52 1.45 0.54 1.49 0.54 c 0
 1.58 0.54 1.67 0.46 1.67 0.37 c 0
 1.67 0.33 1.65 0.3 1.62 0.27 c 0
 1.59 0.23 1.54 0.2 1.49 0.2 c 0x02
 1.44 0.2 1.4 0.22 1.37 0.26 c 0
 1.34 0.3 1.31 0.31 1.24 0.31 c 0
 1.21 0.31 1.21 0.3 1.21 0.23 c 0
 1.21 0.15 1.21 0.15 1.14 0.15 c 0
 1.07 0.15 1.07 0.15 1.07 0.23 c 0
 1.07 0.26 1.07 0.28 1.07 0.31 c 1
 0.99 0.31 0.92 0.31 0.84 0.31 c 0
 0.64 0.31 0.61 0.31 0.61 0.33 c 0
 0.61 0.39 0.66 0.45 0.81 0.6 c 0
 1.03 0.82 1.09 0.91 1.09 1.05 c 0
 1.09 1.11 1.08 1.13 1.05 1.16 c 0
 1.01 1.2 0.96 1.22 0.89 1.22 c 0
 0.8 1.22 0.71 1.18 0.64 1.12 c 0
 0.63 1.11 0.62 1.11 0.62 1.11 c 2
 0.61 1.11 0.61 1.12 0.61 1.16 c 0
 0.61 1.23 0.62 1.25 0.68 1.28 c 0
 0.72 1.3 0.77 1.32 0.8 1.33 c 0x08
1.55 0.44 m 0
 1.53 0.46 1.51 0.47 1.49 0.47 c 0
 1.45 0.47 1.41 0.42 1.41 0.38 c 0
 1.41 0.34 1.45 0.27 1.48 0.27 c 0
 1.48561552813 0.27 1.49438447187 0.276306831231 1.50453602182 0.283608065467 c 0
 1.51246211251 0.289308696897 1.52123105626 0.295615528128 1.53 0.3 c 0
 1.56 0.32 1.58 0.35 1.58 0.38 c 0
 1.58 0.4 1.57 0.42 1.55 0.44 c 0
EndSplineSet
Validated: 1
EndChar

StartChar: q
Encoding: 113 113 60
Width: 2
Flags: W
HStem: -19.02 20G<1.21 1.29> -19.02 20G<1.21 1.29> -18.66 20G<0.910962 0.965 1.21 1.29 1.575 1.62> -18.66 20G<0.910962 0.965 1.21 1.29 1.575 1.62> 0.07 21.91G<0.875 0.915 1.58 1.635> 0.07 21.91G<0.875 0.915 1.58 1.635> 0.71 21.27G<0.88 0.915 1.58 1.635> 0.71 21.27G<0.88 0.915 1.58 1.635>
LayerCount: 2
Back
Fore
SplineSet
0.87 1.28 m 0x02
 0.87031250009 1.28156250044 0.870615234548 1.28308593837 0.870910339609 1.2845712293 c 0
 0.870917919084 1.2846093775 0.870925493527 1.28464750053 0.870933062973 1.28468559842 c 0
 0.88006164228 1.33063077896 0.881923158031 1.34 0.94 1.34 c 0
 0.99 1.34 1 1.34 1 1.28 c 0
 1 1.26 1 1.24 1 1.22 c 1
 1.07 1.22 1.13 1.22 1.2 1.22 c 0
 1.41 1.22 1.41 1.22 1.44 1.25 c 0
 1.5 1.31 1.55 1.34 1.6 1.34 c 0
 1.64 1.34 1.69 1.32 1.73 1.28 c 0
 1.77 1.24 1.79 1.2 1.79 1.16 c 0
 1.79 1.13 1.77 1.1 1.74 1.06 c 0
 1.7 1.01 1.66 0.98 1.61 0.98 c 0
 1.55 0.98 1.49 1.01 1.43 1.08 c 0
 1.41 1.11 1.39 1.11 1.2 1.11 c 0
 1.13 1.11 1.07 1.11 1 1.11 c 1
 1 1.07 1 1.03 1 0.99 c 0
 1 0.95 1 0.91 1 0.87 c 1
 1.00333333333 0.873333333333 1.00555555556 0.876666666667 1.00777777778 0.88 c 0
 1.01222222222 0.886666666667 1.01666666667 0.893333333333 1.03 0.9 c 0
 1.05 0.91 1.05 0.91 1.06 0.92 c 0
 1.11 0.96 1.18 0.98 1.24 0.98 c 0
 1.34 0.98 1.42 0.93 1.46 0.86 c 0
 1.48 0.81 1.5 0.74 1.5 0.66 c 0
 1.5 0.57 1.48 0.49 1.45 0.43 c 0
 1.38 0.29 1.18 0.16 0.91 0.08 c 2
 0.91 0.07 l 1
 0.9 0.07 l 2
 0.89 0.07 0.88 0.07 0.88 0.07 c 2x08
 0.87 0.07 0.87 0.07 0.87 0.09 c 2
 0.87 0.1 l 2
 0.87 0.11 0.87 0.11 0.87 0.12 c 0
 0.87 0.18 0.88 0.19 0.93 0.2 c 0
 1.06 0.23 1.21 0.33 1.29 0.43 c 0
 1.34 0.5 1.37 0.57 1.37 0.65 c 0
 1.37 0.77 1.3 0.86 1.21 0.86 c 0
 1.16 0.86 1.11 0.84 1.06 0.79 c 0
 1.01 0.74 0.94 0.71 0.89 0.71 c 0
 0.87 0.71 0.87 0.72 0.87 0.91 c 0
 0.87 0.98 0.87 1.04 0.87 1.11 c 1
 0.84 1.11 0.82 1.11 0.79 1.11 c 0
 0.71 1.11 0.7 1.12 0.7 1.16 c 0
 0.7 1.20878418305 0.709519586064 1.20997043578 0.784287385689 1.21928738569 c 0
 0.78615077567 1.21951958606 0.788054692883 1.21975683661 0.79 1.22 c 0
 0.791935480852 1.22032258014 0.793818932731 1.22063475449 0.795652033988 1.22093853706 c 0
 0.795702379511 1.22094688035 0.795752687053 1.22095521731 0.795802956651 1.22096354798 c 0
 0.850662879399 1.23005492614 0.8603314397 1.2316571985 0.87 1.28 c 0x02
1.68 1.21 m 0
 1.67 1.24 1.64 1.26 1.61 1.26 c 0
 1.56 1.26 1.51 1.22 1.51 1.16 c 0
 1.51 1.11 1.55 1.07 1.6 1.07 c 0
 1.65 1.07 1.69 1.11 1.69 1.16 c 0
 1.69 1.17 1.69 1.2 1.68 1.21 c 0
EndSplineSet
Validated: 1
EndChar

StartChar: r
Encoding: 114 114 61
Width: 2
Flags: W
HStem: -18.64 20G<0.76 0.8 1.095 1.125> -18.64 20G<0.76 0.8 1.095 1.125> 0.36 21.65G<0.695 0.865 1.095 1.125> 0.36 21.65G<0.695 0.865 1.095 1.125> 0.36 21.65G<0.695 0.865 1.095 1.125> 0.36 21.65G<0.695 0.865 1.095 1.125>
VStem: 0.46 0.65<0.5 0.69>
LayerCount: 2
Back
Fore
SplineSet
0.74 1.29 m 0x22
 0.74 1.36 0.74 1.36 0.78 1.36 c 0
 0.82 1.36 0.82 1.36 0.82 1.29 c 0
 0.82 1.26 0.82 1.24 0.82 1.21 c 1
 0.85 1.21 0.87 1.21 0.9 1.21 c 0
 0.96 1.21 0.99 1.22 1.02 1.26 c 0
 1.05 1.29 1.08 1.31 1.11 1.31 c 0
 1.14 1.31 1.17 1.3 1.2 1.27 c 0
 1.23 1.24 1.24 1.21 1.24 1.17 c 0
 1.24 1.13 1.22 1.09 1.19 1.05 c 0
 1.16 1.02 1.14 1.01 1.11 1.01 c 0
 1.08 1.01 1.06 1.02 1.02 1.06 c 0
 0.98 1.1 0.96 1.11 0.9 1.11 c 0
 0.88 1.11 0.84 1.11 0.82 1.11 c 1
 0.82 1.1 0.82 1.1 0.82 1.08 c 0
 0.82 1.06828427125 0.823431457505 1.06343145751 0.82627416998 1.05941125497 c 0
 0.828284271247 1.05656854249 0.83 1.05414213562 0.83 1.05 c 0
 0.83 1 0.84 0.99 0.87 0.98 c 0
 0.97 0.96 1.07 0.84 1.1 0.74 c 0
 1.11 0.71 1.11 0.69 1.11 0.67 c 0
 1.11 0.5 0.95 0.36 0.78 0.36 c 0
 0.61 0.36 0.46 0.5 0.46 0.67 c 0
 0.46 0.69 0.46 0.72 0.47 0.74 c 0
 0.5 0.85 0.6 0.96 0.69 0.98 c 0
 0.72 0.99 0.74 1 0.74 1.05 c 0
 0.74 1.06 0.74 1.06 0.74 1.08 c 0
 0.74 1.1 0.74 1.1 0.74 1.11 c 1
 0.71 1.11 0.69 1.11 0.66 1.11 c 0
 0.59 1.11 0.59 1.12 0.59 1.16 c 0
 0.59 1.24 0.59 1.21 0.66 1.21 c 0
 0.69 1.21 0.71 1.21 0.74 1.21 c 1
 0.74 1.24 0.74 1.26 0.74 1.29 c 0x22
1.16 1.2 m 0
 1.15 1.23 1.13 1.25 1.11 1.25 c 0
 1.1 1.25 1.08 1.24 1.07 1.22 c 0
 1.05 1.2 1.04 1.18 1.04 1.16 c 0
 1.04 1.14 1.05 1.12 1.07 1.1 c 0
 1.08 1.09 1.09 1.08 1.11 1.08 c 0
 1.13 1.08 1.15 1.1 1.16 1.13 c 0
 1.17 1.14 1.17 1.15 1.17 1.16 c 0
 1.17 1.17 1.17 1.19 1.16 1.2 c 0
0.9 0.87 m 0
 0.86 0.89 0.82 0.9 0.78 0.9 c 0
 0.66 0.9 0.55 0.8 0.55 0.68 c 0
 0.55 0.65 0.56 0.61 0.57 0.58 c 0
 0.61 0.5 0.69 0.45 0.78 0.45 c 0
 0.83 0.45 0.88 0.47 0.92 0.5 c 0
 0.97 0.54 1.01 0.6 1.01 0.67 c 0
 1.01 0.75 0.97 0.83 0.9 0.87 c 0
EndSplineSet
Validated: 33
EndChar

